<svg id="svgQrWrapper" viewBox="0 0 300 300" xmlns="http://www.w3.org/2000/svg" xmlns:xlink="http://www.w3.org/1999/xlink" style="width: 100%; height: 100%; background-color: rgb(255, 255, 255);"><svg><g transform="translate(9, 9)scale(0.95)" fill="none"><svg width="300" height="300"><style>.background-color{ fill: #fff; }.dot-color{ fill: #000000; }.corners-square-color-0-0{ fill: #000000; }.corners-dot-color-0-0{ fill: #000000; }.corners-square-color-1-0{ fill: #000000; }.corners-dot-color-1-0{ fill: #000000; }.corners-square-color-0-1{ fill: #000000; }.corners-dot-color-0-1{ fill: #000000; }</style><defs/><g class="dot-color"><path d="M 1 82v 9h 9a 9 9, 0, 0, 0, -9 -9" transform="rotate(-90,5.5,86.5)"/><path d="M 1 91v 9h 4.5a 4.5 4.5, 0, 0, 0, 0 -9" transform="rotate(90,5.5,95.5)"/><path d="M 1 109v 9h 9a 9 9, 0, 0, 0, -9 -9" transform="rotate(-90,5.5,113.5)"/><rect x="1" y="118" width="9" height="9" transform="rotate(0,5.5,122.5)"/><rect x="1" y="127" width="9" height="9" transform="rotate(0,5.5,131.5)"/><rect x="1" y="136" width="9" height="9" transform="rotate(0,5.5,140.5)"/><path d="M 1 145v 9h 9a 9 9, 0, 0, 0, -9 -9" transform="rotate(180,5.5,149.5)"/><circle cx="5.5" cy="176.5" r="4.5" transform="rotate(0,5.5,176.5)"/><path d="M 1 208v 9h 4.5a 4.5 4.5, 0, 0, 0, 0 -9" transform="rotate(-90,5.5,212.5)"/><path d="M 1 217v 9h 9a 9 9, 0, 0, 0, -9 -9" transform="rotate(180,5.5,221.5)"/><path d="M 10 73v 9h 4.5a 4.5 4.5, 0, 0, 0, 0 -9" transform="rotate(-90,14.5,77.5)"/><rect x="10" y="82" width="9" height="9" transform="rotate(0,14.5,86.5)"/><path d="M 10 109v 9h 9a 9 9, 0, 0, 0, -9 -9" transform="rotate(0,14.5,113.5)"/><path d="M 10 118v 9h 9a 9 9, 0, 0, 0, -9 -9" transform="rotate(90,14.5,122.5)"/><rect x="10" y="145" width="9" height="9" transform="rotate(0,14.5,149.5)"/><path d="M 10 154v 9h 9a 9 9, 0, 0, 0, -9 -9" transform="rotate(180,14.5,158.5)"/><path d="M 10 181v 9h 9a 9 9, 0, 0, 0, -9 -9" transform="rotate(-90,14.5,185.5)"/><path d="M 10 190v 9h 9a 9 9, 0, 0, 0, -9 -9" transform="rotate(180,14.5,194.5)"/><path d="M 10 217v 9h 4.5a 4.5 4.5, 0, 0, 0, 0 -9" transform="rotate(0,14.5,221.5)"/><path d="M 19 82v 9h 9a 9 9, 0, 0, 0, -9 -9" transform="rotate(0,23.5,86.5)"/><path d="M 19 91v 9h 4.5a 4.5 4.5, 0, 0, 0, 0 -9" transform="rotate(90,23.5,95.5)"/><path d="M 19 136v 9h 9a 9 9, 0, 0, 0, -9 -9" transform="rotate(-90,23.5,140.5)"/><rect x="19" y="145" width="9" height="9" transform="rotate(0,23.5,149.5)"/><rect x="19" y="154" width="9" height="9" transform="rotate(0,23.5,158.5)"/><path d="M 19 163v 9h 9a 9 9, 0, 0, 0, -9 -9" transform="rotate(180,23.5,167.5)"/><rect x="19" y="181" width="9" height="9" transform="rotate(0,23.5,185.5)"/><path d="M 19 190v 9h 9a 9 9, 0, 0, 0, -9 -9" transform="rotate(90,23.5,194.5)"/><path d="M 28 100v 9h 9a 9 9, 0, 0, 0, -9 -9" transform="rotate(-90,32.5,104.5)"/><rect x="28" y="109" width="9" height="9" transform="rotate(0,32.5,113.5)"/><path d="M 28 118v 9h 4.5a 4.5 4.5, 0, 0, 0, 0 -9" transform="rotate(90,32.5,122.5)"/><rect x="28" y="136" width="9" height="9" transform="rotate(0,32.5,140.5)"/><rect x="28" y="145" width="9" height="9" transform="rotate(0,32.5,149.5)"/><rect x="28" y="154" width="9" height="9" transform="rotate(0,32.5,158.5)"/><path d="M 28 163v 9h 9a 9 9, 0, 0, 0, -9 -9" transform="rotate(90,32.5,167.5)"/><rect x="28" y="181" width="9" height="9" transform="rotate(0,32.5,185.5)"/><path d="M 28 217v 9h 4.5a 4.5 4.5, 0, 0, 0, 0 -9" transform="rotate(180,32.5,221.5)"/><path d="M 37 82v 9h 4.5a 4.5 4.5, 0, 0, 0, 0 -9" transform="rotate(180,41.5,86.5)"/><rect x="37" y="100" width="9" height="9" transform="rotate(0,41.5,104.5)"/><rect x="37" y="109" width="9" height="9" transform="rotate(0,41.5,113.5)"/><rect x="37" y="136" width="9" height="9" transform="rotate(0,41.5,140.5)"/><rect x="37" y="154" width="9" height="9" transform="rotate(0,41.5,158.5)"/><path d="M 37 172v 9h 9a 9 9, 0, 0, 0, -9 -9" transform="rotate(-90,41.5,176.5)"/><rect x="37" y="181" width="9" height="9" transform="rotate(0,41.5,185.5)"/><path d="M 37 217v 9h 4.5a 4.5 4.5, 0, 0, 0, 0 -9" transform="rotate(0,41.5,221.5)"/><path d="M 46 73v 9h 9a 9 9, 0, 0, 0, -9 -9" transform="rotate(-90,50.5,77.5)"/><rect x="46" y="82" width="9" height="9" transform="rotate(0,50.5,86.5)"/><rect x="46" y="91" width="9" height="9" transform="rotate(0,50.5,95.5)"/><rect x="46" y="100" width="9" height="9" transform="rotate(0,50.5,104.5)"/><rect x="46" y="109" width="9" height="9" transform="rotate(0,50.5,113.5)"/><path d="M 46 118v 9h 4.5a 4.5 4.5, 0, 0, 0, 0 -9" transform="rotate(90,50.5,122.5)"/><path d="M 46 136v 9h 4.5a 4.5 4.5, 0, 0, 0, 0 -9" transform="rotate(0,50.5,140.5)"/><path d="M 46 154v 9h 9a 9 9, 0, 0, 0, -9 -9" transform="rotate(0,50.5,158.5)"/><rect x="46" y="163" width="9" height="9" transform="rotate(0,50.5,167.5)"/><rect x="46" y="172" width="9" height="9" transform="rotate(0,50.5,176.5)"/><rect x="46" y="181" width="9" height="9" transform="rotate(0,50.5,185.5)"/><path d="M 46 190v 9h 4.5a 4.5 4.5, 0, 0, 0, 0 -9" transform="rotate(90,50.5,194.5)"/><rect x="55" y="73" width="9" height="9" transform="rotate(0,59.5,77.5)"/><path d="M 55 91v 9h 4.5a 4.5 4.5, 0, 0, 0, 0 -9" transform="rotate(0,59.5,95.5)"/><rect x="55" y="109" width="9" height="9" transform="rotate(0,59.5,113.5)"/><circle cx="59.5" cy="131.5" r="4.5" transform="rotate(0,59.5,131.5)"/><circle cx="59.5" cy="149.5" r="4.5" transform="rotate(0,59.5,149.5)"/><rect x="55" y="163" width="9" height="9" transform="rotate(0,59.5,167.5)"/><rect x="55" y="181" width="9" height="9" transform="rotate(0,59.5,185.5)"/><circle cx="59.5" cy="203.5" r="4.5" transform="rotate(0,59.5,203.5)"/><circle cx="59.5" cy="221.5" r="4.5" transform="rotate(0,59.5,221.5)"/><path d="M 64 73v 9h 4.5a 4.5 4.5, 0, 0, 0, 0 -9" transform="rotate(0,68.5,77.5)"/><path d="M 64 109v 9h 4.5a 4.5 4.5, 0, 0, 0, 0 -9" transform="rotate(0,68.5,113.5)"/><path d="M 64 154v 9h 9a 9 9, 0, 0, 0, -9 -9" transform="rotate(-90,68.5,158.5)"/><rect x="64" y="163" width="9" height="9" transform="rotate(0,68.5,167.5)"/><rect x="64" y="172" width="9" height="9" transform="rotate(0,68.5,176.5)"/><rect x="64" y="181" width="9" height="9" transform="rotate(0,68.5,185.5)"/><path d="M 64 190v 9h 9a 9 9, 0, 0, 0, -9 -9" transform="rotate(180,68.5,194.5)"/><circle cx="68.5" cy="212.5" r="4.5" transform="rotate(0,68.5,212.5)"/><path d="M 73 37v 9h 4.5a 4.5 4.5, 0, 0, 0, 0 -9" transform="rotate(-90,77.5,41.5)"/><rect x="73" y="46" width="9" height="9" transform="rotate(0,77.5,50.5)"/><rect x="73" y="55" width="9" height="9" transform="rotate(0,77.5,59.5)"/><path d="M 73 64v 9h 9a 9 9, 0, 0, 0, -9 -9" transform="rotate(180,77.5,68.5)"/><path d="M 73 91v 9h 4.5a 4.5 4.5, 0, 0, 0, 0 -9" transform="rotate(-90,77.5,95.5)"/><path d="M 73 100v 9h 9a 9 9, 0, 0, 0, -9 -9" transform="rotate(180,77.5,104.5)"/><path d="M 73 127v 9h 4.5a 4.5 4.5, 0, 0, 0, 0 -9" transform="rotate(180,77.5,131.5)"/><path d="M 73 145v 9h 4.5a 4.5 4.5, 0, 0, 0, 0 -9" transform="rotate(-90,77.5,149.5)"/><path d="M 73 154v 9h 9a 9 9, 0, 0, 0, -9 -9" transform="rotate(90,77.5,158.5)"/><rect x="73" y="190" width="9" height="9" transform="rotate(0,77.5,194.5)"/><path d="M 73 235v 9h 4.5a 4.5 4.5, 0, 0, 0, 0 -9" transform="rotate(-90,77.5,239.5)"/><path d="M 73 244v 9h 9a 9 9, 0, 0, 0, -9 -9" transform="rotate(180,77.5,248.5)"/><path d="M 73 280v 9h 4.5a 4.5 4.5, 0, 0, 0, 0 -9" transform="rotate(180,77.5,284.5)"/><path d="M 82 10v 9h 4.5a 4.5 4.5, 0, 0, 0, 0 -9" transform="rotate(180,86.5,14.5)"/><rect x="82" y="46" width="9" height="9" transform="rotate(0,86.5,50.5)"/><rect x="82" y="64" width="9" height="9" transform="rotate(0,86.5,68.5)"/><rect x="82" y="73" width="9" height="9" transform="rotate(0,86.5,77.5)"/><path d="M 82 82v 9h 4.5a 4.5 4.5, 0, 0, 0, 0 -9" transform="rotate(90,86.5,86.5)"/><path d="M 82 100v 9h 4.5a 4.5 4.5, 0, 0, 0, 0 -9" transform="rotate(0,86.5,104.5)"/><rect x="82" y="127" width="9" height="9" transform="rotate(0,86.5,131.5)"/><path d="M 82 136v 9h 4.5a 4.5 4.5, 0, 0, 0, 0 -9" transform="rotate(90,86.5,140.5)"/><circle cx="86.5" cy="167.5" r="4.5" transform="rotate(0,86.5,167.5)"/><path d="M 82 181v 9h 9a 9 9, 0, 0, 0, -9 -9" transform="rotate(-90,86.5,185.5)"/><rect x="82" y="190" width="9" height="9" transform="rotate(0,86.5,194.5)"/><path d="M 82 199v 9h 4.5a 4.5 4.5, 0, 0, 0, 0 -9" transform="rotate(90,86.5,203.5)"/><rect x="82" y="244" width="9" height="9" transform="rotate(0,86.5,248.5)"/><circle cx="86.5" cy="266.5" r="4.5" transform="rotate(0,86.5,266.5)"/><rect x="82" y="280" width="9" height="9" transform="rotate(0,86.5,284.5)"/><path d="M 91 1v 9h 4.5a 4.5 4.5, 0, 0, 0, 0 -9" transform="rotate(-90,95.5,5.5)"/><rect x="91" y="10" width="9" height="9" transform="rotate(0,95.5,14.5)"/><path d="M 91 28v 9h 9a 9 9, 0, 0, 0, -9 -9" transform="rotate(-90,95.5,32.5)"/><rect x="91" y="37" width="9" height="9" transform="rotate(0,95.5,41.5)"/><rect x="91" y="46" width="9" height="9" transform="rotate(0,95.5,50.5)"/><rect x="91" y="55" width="9" height="9" transform="rotate(0,95.5,59.5)"/><rect x="91" y="64" width="9" height="9" transform="rotate(0,95.5,68.5)"/><path d="M 91 73v 9h 9a 9 9, 0, 0, 0, -9 -9" transform="rotate(90,95.5,77.5)"/><path d="M 91 109v 9h 4.5a 4.5 4.5, 0, 0, 0, 0 -9" transform="rotate(180,95.5,113.5)"/><rect x="91" y="127" width="9" height="9" transform="rotate(0,95.5,131.5)"/><path d="M 91 145v 9h 4.5a 4.5 4.5, 0, 0, 0, 0 -9" transform="rotate(-90,95.5,149.5)"/><path d="M 91 154v 9h 9a 9 9, 0, 0, 0, -9 -9" transform="rotate(180,95.5,158.5)"/><path d="M 91 172v 9h 9a 9 9, 0, 0, 0, -9 -9" transform="rotate(-90,95.5,176.5)"/><rect x="91" y="181" width="9" height="9" transform="rotate(0,95.5,185.5)"/><path d="M 91 208v 9h 4.5a 4.5 4.5, 0, 0, 0, 0 -9" transform="rotate(-90,95.5,212.5)"/><path d="M 91 217v 9h 4.5a 4.5 4.5, 0, 0, 0, 0 -9" transform="rotate(90,95.5,221.5)"/><path d="M 91 244v 9h 9a 9 9, 0, 0, 0, -9 -9" transform="rotate(0,95.5,248.5)"/><path d="M 91 253v 9h 9a 9 9, 0, 0, 0, -9 -9" transform="rotate(180,95.5,257.5)"/><path d="M 91 271v 9h 4.5a 4.5 4.5, 0, 0, 0, 0 -9" transform="rotate(-90,95.5,275.5)"/><rect x="91" y="280" width="9" height="9" transform="rotate(0,95.5,284.5)"/><path d="M 100 10v 9h 4.5a 4.5 4.5, 0, 0, 0, 0 -9" transform="rotate(0,104.5,14.5)"/><rect x="100" y="28" width="9" height="9" transform="rotate(0,104.5,32.5)"/><path d="M 100 64v 9h 4.5a 4.5 4.5, 0, 0, 0, 0 -9" transform="rotate(0,104.5,68.5)"/><path d="M 100 100v 9h 4.5a 4.5 4.5, 0, 0, 0, 0 -9" transform="rotate(-90,104.5,104.5)"/><path d="M 100 109v 9h 9a 9 9, 0, 0, 0, -9 -9" transform="rotate(90,104.5,113.5)"/><path d="M 100 127v 9h 4.5a 4.5 4.5, 0, 0, 0, 0 -9" transform="rotate(0,104.5,131.5)"/><path d="M 100 154v 9h 9a 9 9, 0, 0, 0, -9 -9" transform="rotate(0,104.5,158.5)"/><rect x="100" y="163" width="9" height="9" transform="rotate(0,104.5,167.5)"/><rect x="100" y="172" width="9" height="9" transform="rotate(0,104.5,176.5)"/><path d="M 100 181v 9h 9a 9 9, 0, 0, 0, -9 -9" transform="rotate(90,104.5,185.5)"/><path d="M 100 199v 9h 4.5a 4.5 4.5, 0, 0, 0, 0 -9" transform="rotate(180,104.5,203.5)"/><circle cx="104.5" cy="230.5" r="4.5" transform="rotate(0,104.5,230.5)"/><path d="M 100 253v 9h 9a 9 9, 0, 0, 0, -9 -9" transform="rotate(0,104.5,257.5)"/><path d="M 100 262v 9h 9a 9 9, 0, 0, 0, -9 -9" transform="rotate(180,104.5,266.5)"/><path d="M 100 280v 9h 4.5a 4.5 4.5, 0, 0, 0, 0 -9" transform="rotate(0,104.5,284.5)"/><circle cx="113.5" cy="5.5" r="4.5" transform="rotate(0,113.5,5.5)"/><path d="M 109 19v 9h 4.5a 4.5 4.5, 0, 0, 0, 0 -9" transform="rotate(-90,113.5,23.5)"/><rect x="109" y="28" width="9" height="9" transform="rotate(0,113.5,32.5)"/><circle cx="113.5" cy="59.5" r="4.5" transform="rotate(0,113.5,59.5)"/><path d="M 109 73v 9h 9a 9 9, 0, 0, 0, -9 -9" transform="rotate(-90,113.5,77.5)"/><rect x="109" y="82" width="9" height="9" transform="rotate(0,113.5,86.5)"/><path d="M 109 91v 9h 4.5a 4.5 4.5, 0, 0, 0, 0 -9" transform="rotate(90,113.5,95.5)"/><path d="M 109 199v 9h 4.5a 4.5 4.5, 0, 0, 0, 0 -9" transform="rotate(0,113.5,203.5)"/><circle cx="113.5" cy="221.5" r="4.5" transform="rotate(0,113.5,221.5)"/><circle cx="113.5" cy="239.5" r="4.5" transform="rotate(0,113.5,239.5)"/><rect x="109" y="262" width="9" height="9" transform="rotate(0,113.5,266.5)"/><path d="M 118 10v 9h 4.5a 4.5 4.5, 0, 0, 0, 0 -9" transform="rotate(180,122.5,14.5)"/><path d="M 118 28v 9h 9a 9 9, 0, 0, 0, -9 -9" transform="rotate(0,122.5,32.5)"/><path d="M 118 37v 9h 4.5a 4.5 4.5, 0, 0, 0, 0 -9" transform="rotate(90,122.5,41.5)"/><path d="M 118 64v 9h 4.5a 4.5 4.5, 0, 0, 0, 0 -9" transform="rotate(-90,122.5,68.5)"/><rect x="118" y="73" width="9" height="9" transform="rotate(0,122.5,77.5)"/><circle cx="122.5" cy="194.5" r="4.5" transform="rotate(0,122.5,194.5)"/><path d="M 118 208v 9h 4.5a 4.5 4.5, 0, 0, 0, 0 -9" transform="rotate(180,122.5,212.5)"/><path d="M 118 244v 9h 9a 9 9, 0, 0, 0, -9 -9" transform="rotate(-90,122.5,248.5)"/><rect x="118" y="253" width="9" height="9" transform="rotate(0,122.5,257.5)"/><rect x="118" y="262" width="9" height="9" transform="rotate(0,122.5,266.5)"/><path d="M 118 280v 9h 4.5a 4.5 4.5, 0, 0, 0, 0 -9" transform="rotate(180,122.5,284.5)"/><path d="M 127 10v 9h 4.5a 4.5 4.5, 0, 0, 0, 0 -9" transform="rotate(0,131.5,14.5)"/><circle cx="131.5" cy="59.5" r="4.5" transform="rotate(0,131.5,59.5)"/><path d="M 127 73v 9h 9a 9 9, 0, 0, 0, -9 -9" transform="rotate(0,131.5,77.5)"/><rect x="127" y="82" width="9" height="9" transform="rotate(0,131.5,86.5)"/><rect x="127" y="91" width="9" height="9" transform="rotate(0,131.5,95.5)"/><path d="M 127 100v 9h 9a 9 9, 0, 0, 0, -9 -9" transform="rotate(180,131.5,104.5)"/><path d="M 127 208v 9h 4.5a 4.5 4.5, 0, 0, 0, 0 -9" transform="rotate(0,131.5,212.5)"/><path d="M 127 244v 9h 4.5a 4.5 4.5, 0, 0, 0, 0 -9" transform="rotate(0,131.5,248.5)"/><path d="M 127 262v 9h 9a 9 9, 0, 0, 0, -9 -9" transform="rotate(0,131.5,266.5)"/><rect x="127" y="271" width="9" height="9" transform="rotate(0,131.5,275.5)"/><path d="M 127 280v 9h 9a 9 9, 0, 0, 0, -9 -9" transform="rotate(90,131.5,284.5)"/><path d="M 136 19v 9h 9a 9 9, 0, 0, 0, -9 -9" transform="rotate(-90,140.5,23.5)"/><path d="M 136 28v 9h 4.5a 4.5 4.5, 0, 0, 0, 0 -9" transform="rotate(90,140.5,32.5)"/><path d="M 136 46v 9h 4.5a 4.5 4.5, 0, 0, 0, 0 -9" transform="rotate(180,140.5,50.5)"/><path d="M 136 64v 9h 4.5a 4.5 4.5, 0, 0, 0, 0 -9" transform="rotate(180,140.5,68.5)"/><path d="M 136 82v 9h 4.5a 4.5 4.5, 0, 0, 0, 0 -9" transform="rotate(0,140.5,86.5)"/><rect x="136" y="100" width="9" height="9" transform="rotate(0,140.5,104.5)"/><path d="M 136 190v 9h 4.5a 4.5 4.5, 0, 0, 0, 0 -9" transform="rotate(180,140.5,194.5)"/><circle cx="140.5" cy="221.5" r="4.5" transform="rotate(0,140.5,221.5)"/><rect x="136" y="271" width="9" height="9" transform="rotate(0,140.5,275.5)"/><circle cx="140.5" cy="293.5" r="4.5" transform="rotate(0,140.5,293.5)"/><path d="M 145 1v 9h 4.5a 4.5 4.5, 0, 0, 0, 0 -9" transform="rotate(180,149.5,5.5)"/><path d="M 145 19v 9h 4.5a 4.5 4.5, 0, 0, 0, 0 -9" transform="rotate(0,149.5,23.5)"/><path d="M 145 46v 9h 9a 9 9, 0, 0, 0, -9 -9" transform="rotate(0,149.5,50.5)"/><rect x="145" y="55" width="9" height="9" transform="rotate(0,149.5,59.5)"/><rect x="145" y="64" width="9" height="9" transform="rotate(0,149.5,68.5)"/><path d="M 145 73v 9h 4.5a 4.5 4.5, 0, 0, 0, 0 -9" transform="rotate(90,149.5,77.5)"/><path d="M 145 100v 9h 4.5a 4.5 4.5, 0, 0, 0, 0 -9" transform="rotate(0,149.5,104.5)"/><rect x="145" y="190" width="9" height="9" transform="rotate(0,149.5,194.5)"/><path d="M 145 208v 9h 4.5a 4.5 4.5, 0, 0, 0, 0 -9" transform="rotate(180,149.5,212.5)"/><path d="M 145 235v 9h 4.5a 4.5 4.5, 0, 0, 0, 0 -9" transform="rotate(-90,149.5,239.5)"/><path d="M 145 244v 9h 9a 9 9, 0, 0, 0, -9 -9" transform="rotate(180,149.5,248.5)"/><path d="M 145 271v 9h 9a 9 9, 0, 0, 0, -9 -9" transform="rotate(0,149.5,275.5)"/><path d="M 145 280v 9h 9a 9 9, 0, 0, 0, -9 -9" transform="rotate(180,149.5,284.5)"/><path d="M 154 1v 9h 4.5a 4.5 4.5, 0, 0, 0, 0 -9" transform="rotate(0,158.5,5.5)"/><circle cx="158.5" cy="41.5" r="4.5" transform="rotate(0,158.5,41.5)"/><path d="M 154 91v 9h 4.5a 4.5 4.5, 0, 0, 0, 0 -9" transform="rotate(180,158.5,95.5)"/><path d="M 154 190v 9h 4.5a 4.5 4.5, 0, 0, 0, 0 -9" transform="rotate(0,158.5,194.5)"/><rect x="154" y="208" width="9" height="9" transform="rotate(0,158.5,212.5)"/><path d="M 154 217v 9h 9a 9 9, 0, 0, 0, -9 -9" transform="rotate(180,158.5,221.5)"/><path d="M 154 244v 9h 4.5a 4.5 4.5, 0, 0, 0, 0 -9" transform="rotate(0,158.5,248.5)"/><path d="M 154 280v 9h 9a 9 9, 0, 0, 0, -9 -9" transform="rotate(0,158.5,284.5)"/><path d="M 154 289v 9h 4.5a 4.5 4.5, 0, 0, 0, 0 -9" transform="rotate(90,158.5,293.5)"/><path d="M 163 10v 9h 4.5a 4.5 4.5, 0, 0, 0, 0 -9" transform="rotate(180,167.5,14.5)"/><path d="M 163 46v 9h 9a 9 9, 0, 0, 0, -9 -9" transform="rotate(-90,167.5,50.5)"/><rect x="163" y="55" width="9" height="9" transform="rotate(0,167.5,59.5)"/><path d="M 163 64v 9h 9a 9 9, 0, 0, 0, -9 -9" transform="rotate(180,167.5,68.5)"/><path d="M 163 82v 9h 4.5a 4.5 4.5, 0, 0, 0, 0 -9" transform="rotate(-90,167.5,86.5)"/><rect x="163" y="91" width="9" height="9" transform="rotate(0,167.5,95.5)"/><path d="M 163 208v 9h 9a 9 9, 0, 0, 0, -9 -9" transform="rotate(0,167.5,212.5)"/><path d="M 163 217v 9h 9a 9 9, 0, 0, 0, -9 -9" transform="rotate(90,167.5,221.5)"/><path d="M 163 253v 9h 4.5a 4.5 4.5, 0, 0, 0, 0 -9" transform="rotate(-90,167.5,257.5)"/><path d="M 163 262v 9h 4.5a 4.5 4.5, 0, 0, 0, 0 -9" transform="rotate(90,167.5,266.5)"/><path d="M 172 1v 9h 9a 9 9, 0, 0, 0, -9 -9" transform="rotate(-90,176.5,5.5)"/><rect x="172" y="10" width="9" height="9" transform="rotate(0,176.5,14.5)"/><path d="M 172 28v 9h 4.5a 4.5 4.5, 0, 0, 0, 0 -9" transform="rotate(180,176.5,32.5)"/><path d="M 172 46v 9h 4.5a 4.5 4.5, 0, 0, 0, 0 -9" transform="rotate(0,176.5,50.5)"/><rect x="172" y="64" width="9" height="9" transform="rotate(0,176.5,68.5)"/><path d="M 172 91v 9h 9a 9 9, 0, 0, 0, -9 -9" transform="rotate(0,176.5,95.5)"/><path d="M 172 100v 9h 9a 9 9, 0, 0, 0, -9 -9" transform="rotate(180,176.5,104.5)"/><path d="M 172 190v 9h 4.5a 4.5 4.5, 0, 0, 0, 0 -9" transform="rotate(180,176.5,194.5)"/><path d="M 172 226v 9h 4.5a 4.5 4.5, 0, 0, 0, 0 -9" transform="rotate(180,176.5,230.5)"/><path d="M 172 244v 9h 4.5a 4.5 4.5, 0, 0, 0, 0 -9" transform="rotate(180,176.5,248.5)"/><path d="M 172 280v 9h 4.5a 4.5 4.5, 0, 0, 0, 0 -9" transform="rotate(180,176.5,284.5)"/><rect x="181" y="1" width="9" height="9" transform="rotate(0,185.5,5.5)"/><rect x="181" y="10" width="9" height="9" transform="rotate(0,185.5,14.5)"/><rect x="181" y="28" width="9" height="9" transform="rotate(0,185.5,32.5)"/><path d="M 181 55v 9h 4.5a 4.5 4.5, 0, 0, 0, 0 -9" transform="rotate(-90,185.5,59.5)"/><rect x="181" y="64" width="9" height="9" transform="rotate(0,185.5,68.5)"/><rect x="181" y="73" width="9" height="9" transform="rotate(0,185.5,77.5)"/><path d="M 181 82v 9h 4.5a 4.5 4.5, 0, 0, 0, 0 -9" transform="rotate(90,185.5,86.5)"/><rect x="181" y="100" width="9" height="9" transform="rotate(0,185.5,104.5)"/><path d="M 181 190v 9h 9a 9 9, 0, 0, 0, -9 -9" transform="rotate(0,185.5,194.5)"/><path d="M 181 199v 9h 4.5a 4.5 4.5, 0, 0, 0, 0 -9" transform="rotate(90,185.5,203.5)"/><path d="M 181 217v 9h 4.5a 4.5 4.5, 0, 0, 0, 0 -9" transform="rotate(-90,185.5,221.5)"/><rect x="181" y="226" width="9" height="9" transform="rotate(0,185.5,230.5)"/><rect x="181" y="235" width="9" height="9" transform="rotate(0,185.5,239.5)"/><rect x="181" y="244" width="9" height="9" transform="rotate(0,185.5,248.5)"/><rect x="181" y="253" width="9" height="9" transform="rotate(0,185.5,257.5)"/><path d="M 181 262v 9h 9a 9 9, 0, 0, 0, -9 -9" transform="rotate(180,185.5,266.5)"/><rect x="181" y="280" width="9" height="9" transform="rotate(0,185.5,284.5)"/><path d="M 181 289v 9h 4.5a 4.5 4.5, 0, 0, 0, 0 -9" transform="rotate(90,185.5,293.5)"/><path d="M 190 1v 9h 9a 9 9, 0, 0, 0, -9 -9" transform="rotate(0,194.5,5.5)"/><rect x="190" y="10" width="9" height="9" transform="rotate(0,194.5,14.5)"/><rect x="190" y="19" width="9" height="9" transform="rotate(0,194.5,23.5)"/><path d="M 190 28v 9h 9a 9 9, 0, 0, 0, -9 -9" transform="rotate(90,194.5,32.5)"/><path d="M 190 64v 9h 9a 9 9, 0, 0, 0, -9 -9" transform="rotate(0,194.5,68.5)"/><rect x="190" y="73" width="9" height="9" transform="rotate(0,194.5,77.5)"/><rect x="190" y="100" width="9" height="9" transform="rotate(0,194.5,104.5)"/><rect x="190" y="109" width="9" height="9" transform="rotate(0,194.5,113.5)"/><path d="M 190 118v 9h 9a 9 9, 0, 0, 0, -9 -9" transform="rotate(180,194.5,122.5)"/><path d="M 190 145v 9h 9a 9 9, 0, 0, 0, -9 -9" transform="rotate(-90,194.5,149.5)"/><path d="M 190 154v 9h 9a 9 9, 0, 0, 0, -9 -9" transform="rotate(180,194.5,158.5)"/><circle cx="194.5" cy="185.5" r="4.5" transform="rotate(0,194.5,185.5)"/><path d="M 190 235v 9h 9a 9 9, 0, 0, 0, -9 -9" transform="rotate(0,194.5,239.5)"/><path d="M 190 244v 9h 9a 9 9, 0, 0, 0, -9 -9" transform="rotate(90,194.5,248.5)"/><path d="M 190 262v 9h 9a 9 9, 0, 0, 0, -9 -9" transform="rotate(0,194.5,266.5)"/><rect x="190" y="271" width="9" height="9" transform="rotate(0,194.5,275.5)"/><path d="M 190 280v 9h 9a 9 9, 0, 0, 0, -9 -9" transform="rotate(90,194.5,284.5)"/><path d="M 199 46v 9h 9a 9 9, 0, 0, 0, -9 -9" transform="rotate(-90,203.5,50.5)"/><path d="M 199 55v 9h 4.5a 4.5 4.5, 0, 0, 0, 0 -9" transform="rotate(90,203.5,59.5)"/><rect x="199" y="73" width="9" height="9" transform="rotate(0,203.5,77.5)"/><rect x="199" y="100" width="9" height="9" transform="rotate(0,203.5,104.5)"/><rect x="199" y="118" width="9" height="9" transform="rotate(0,203.5,122.5)"/><rect x="199" y="145" width="9" height="9" transform="rotate(0,203.5,149.5)"/><rect x="199" y="154" width="9" height="9" transform="rotate(0,203.5,158.5)"/><path d="M 199 163v 9h 9a 9 9, 0, 0, 0, -9 -9" transform="rotate(180,203.5,167.5)"/><path d="M 199 190v 9h 9a 9 9, 0, 0, 0, -9 -9" transform="rotate(-90,203.5,194.5)"/><path d="M 199 199v 9h 4.5a 4.5 4.5, 0, 0, 0, 0 -9" transform="rotate(90,203.5,203.5)"/><circle cx="203.5" cy="257.5" r="4.5" transform="rotate(0,203.5,257.5)"/><rect x="208" y="46" width="9" height="9" transform="rotate(0,212.5,50.5)"/><path d="M 208 64v 9h 4.5a 4.5 4.5, 0, 0, 0, 0 -9" transform="rotate(-90,212.5,68.5)"/><path d="M 208 73v 9h 9a 9 9, 0, 0, 0, -9 -9" transform="rotate(90,212.5,77.5)"/><rect x="208" y="100" width="9" height="9" transform="rotate(0,212.5,104.5)"/><path d="M 208 118v 9h 9a 9 9, 0, 0, 0, -9 -9" transform="rotate(0,212.5,122.5)"/><rect x="208" y="127" width="9" height="9" transform="rotate(0,212.5,131.5)"/><rect x="208" y="136" width="9" height="9" transform="rotate(0,212.5,140.5)"/><rect x="208" y="145" width="9" height="9" transform="rotate(0,212.5,149.5)"/><path d="M 208 163v 9h 4.5a 4.5 4.5, 0, 0, 0, 0 -9" transform="rotate(0,212.5,167.5)"/><path d="M 208 190v 9h 4.5a 4.5 4.5, 0, 0, 0, 0 -9" transform="rotate(0,212.5,194.5)"/><path d="M 208 217v 9h 4.5a 4.5 4.5, 0, 0, 0, 0 -9" transform="rotate(180,212.5,221.5)"/><circle cx="212.5" cy="266.5" r="4.5" transform="rotate(0,212.5,266.5)"/><circle cx="212.5" cy="284.5" r="4.5" transform="rotate(0,212.5,284.5)"/><path d="M 217 1v 9h 4.5a 4.5 4.5, 0, 0, 0, 0 -9" transform="rotate(-90,221.5,5.5)"/><path d="M 217 10v 9h 4.5a 4.5 4.5, 0, 0, 0, 0 -9" transform="rotate(90,221.5,14.5)"/><path d="M 217 28v 9h 4.5a 4.5 4.5, 0, 0, 0, 0 -9" transform="rotate(-90,221.5,32.5)"/><rect x="217" y="37" width="9" height="9" transform="rotate(0,221.5,41.5)"/><rect x="217" y="46" width="9" height="9" transform="rotate(0,221.5,50.5)"/><path d="M 217 55v 9h 4.5a 4.5 4.5, 0, 0, 0, 0 -9" transform="rotate(90,221.5,59.5)"/><path d="M 217 82v 9h 9a 9 9, 0, 0, 0, -9 -9" transform="rotate(-90,221.5,86.5)"/><rect x="217" y="91" width="9" height="9" transform="rotate(0,221.5,95.5)"/><rect x="217" y="100" width="9" height="9" transform="rotate(0,221.5,104.5)"/><path d="M 217 109v 9h 9a 9 9, 0, 0, 0, -9 -9" transform="rotate(180,221.5,113.5)"/><path d="M 217 127v 9h 9a 9 9, 0, 0, 0, -9 -9" transform="rotate(0,221.5,131.5)"/><rect x="217" y="136" width="9" height="9" transform="rotate(0,221.5,140.5)"/><path d="M 217 145v 9h 9a 9 9, 0, 0, 0, -9 -9" transform="rotate(90,221.5,149.5)"/><circle cx="221.5" cy="176.5" r="4.5" transform="rotate(0,221.5,176.5)"/><path d="M 217 199v 9h 4.5a 4.5 4.5, 0, 0, 0, 0 -9" transform="rotate(-90,221.5,203.5)"/><rect x="217" y="208" width="9" height="9" transform="rotate(0,221.5,212.5)"/><rect x="217" y="217" width="9" height="9" transform="rotate(0,221.5,221.5)"/><rect x="217" y="226" width="9" height="9" transform="rotate(0,221.5,230.5)"/><rect x="217" y="235" width="9" height="9" transform="rotate(0,221.5,239.5)"/><rect x="217" y="244" width="9" height="9" transform="rotate(0,221.5,248.5)"/><path d="M 217 253v 9h 9a 9 9, 0, 0, 0, -9 -9" transform="rotate(180,221.5,257.5)"/><path d="M 226 73v 9h 9a 9 9, 0, 0, 0, -9 -9" transform="rotate(-90,230.5,77.5)"/><path d="M 226 82v 9h 9a 9 9, 0, 0, 0, -9 -9" transform="rotate(90,230.5,86.5)"/><rect x="226" y="100" width="9" height="9" transform="rotate(0,230.5,104.5)"/><rect x="226" y="109" width="9" height="9" transform="rotate(0,230.5,113.5)"/><path d="M 226 118v 9h 9a 9 9, 0, 0, 0, -9 -9" transform="rotate(180,230.5,122.5)"/><circle cx="230.5" cy="167.5" r="4.5" transform="rotate(0,230.5,167.5)"/><path d="M 226 181v 9h 4.5a 4.5 4.5, 0, 0, 0, 0 -9" transform="rotate(180,230.5,185.5)"/><rect x="226" y="217" width="9" height="9" transform="rotate(0,230.5,221.5)"/><rect x="226" y="253" width="9" height="9" transform="rotate(0,230.5,257.5)"/><rect x="226" y="262" width="9" height="9" transform="rotate(0,230.5,266.5)"/><rect x="226" y="271" width="9" height="9" transform="rotate(0,230.5,275.5)"/><path d="M 226 280v 9h 9a 9 9, 0, 0, 0, -9 -9" transform="rotate(180,230.5,284.5)"/><rect x="235" y="73" width="9" height="9" transform="rotate(0,239.5,77.5)"/><rect x="235" y="100" width="9" height="9" transform="rotate(0,239.5,104.5)"/><path d="M 235 118v 9h 9a 9 9, 0, 0, 0, -9 -9" transform="rotate(0,239.5,122.5)"/><rect x="235" y="127" width="9" height="9" transform="rotate(0,239.5,131.5)"/><path d="M 235 136v 9h 4.5a 4.5 4.5, 0, 0, 0, 0 -9" transform="rotate(90,239.5,140.5)"/><path d="M 235 172v 9h 4.5a 4.5 4.5, 0, 0, 0, 0 -9" transform="rotate(-90,239.5,176.5)"/><rect x="235" y="181" width="9" height="9" transform="rotate(0,239.5,185.5)"/><rect x="235" y="190" width="9" height="9" transform="rotate(0,239.5,194.5)"/><path d="M 235 199v 9h 4.5a 4.5 4.5, 0, 0, 0, 0 -9" transform="rotate(90,239.5,203.5)"/><rect x="235" y="217" width="9" height="9" transform="rotate(0,239.5,221.5)"/><circle cx="239.5" cy="239.5" r="4.5" transform="rotate(0,239.5,239.5)"/><rect x="235" y="253" width="9" height="9" transform="rotate(0,239.5,257.5)"/><rect x="235" y="280" width="9" height="9" transform="rotate(0,239.5,284.5)"/><rect x="244" y="73" width="9" height="9" transform="rotate(0,248.5,77.5)"/><path d="M 244 100v 9h 9a 9 9, 0, 0, 0, -9 -9" transform="rotate(0,248.5,104.5)"/><path d="M 244 109v 9h 4.5a 4.5 4.5, 0, 0, 0, 0 -9" transform="rotate(90,248.5,113.5)"/><rect x="244" y="181" width="9" height="9" transform="rotate(0,248.5,185.5)"/><path d="M 244 190v 9h 9a 9 9, 0, 0, 0, -9 -9" transform="rotate(90,248.5,194.5)"/><rect x="244" y="217" width="9" height="9" transform="rotate(0,248.5,221.5)"/><rect x="244" y="253" width="9" height="9" transform="rotate(0,248.5,257.5)"/><path d="M 244 280v 9h 9a 9 9, 0, 0, 0, -9 -9" transform="rotate(0,248.5,284.5)"/><path d="M 244 289v 9h 4.5a 4.5 4.5, 0, 0, 0, 0 -9" transform="rotate(90,248.5,293.5)"/><path d="M 253 73v 9h 4.5a 4.5 4.5, 0, 0, 0, 0 -9" transform="rotate(0,257.5,77.5)"/><path d="M 253 91v 9h 4.5a 4.5 4.5, 0, 0, 0, 0 -9" transform="rotate(180,257.5,95.5)"/><circle cx="257.5" cy="131.5" r="4.5" transform="rotate(0,257.5,131.5)"/><path d="M 253 154v 9h 4.5a 4.5 4.5, 0, 0, 0, 0 -9" transform="rotate(180,257.5,158.5)"/><path d="M 253 172v 9h 4.5a 4.5 4.5, 0, 0, 0, 0 -9" transform="rotate(-90,257.5,176.5)"/><rect x="253" y="181" width="9" height="9" transform="rotate(0,257.5,185.5)"/><rect x="253" y="217" width="9" height="9" transform="rotate(0,257.5,221.5)"/><rect x="253" y="226" width="9" height="9" transform="rotate(0,257.5,230.5)"/><rect x="253" y="235" width="9" height="9" transform="rotate(0,257.5,239.5)"/><rect x="253" y="244" width="9" height="9" transform="rotate(0,257.5,248.5)"/><rect x="253" y="253" width="9" height="9" transform="rotate(0,257.5,257.5)"/><path d="M 253 271v 9h 4.5a 4.5 4.5, 0, 0, 0, 0 -9" transform="rotate(180,257.5,275.5)"/><rect x="262" y="91" width="9" height="9" transform="rotate(0,266.5,95.5)"/><path d="M 262 100v 9h 9a 9 9, 0, 0, 0, -9 -9" transform="rotate(180,266.5,104.5)"/><circle cx="266.5" cy="122.5" r="4.5" transform="rotate(0,266.5,122.5)"/><path d="M 262 145v 9h 9a 9 9, 0, 0, 0, -9 -9" transform="rotate(-90,266.5,149.5)"/><rect x="262" y="154" width="9" height="9" transform="rotate(0,266.5,158.5)"/><rect x="262" y="181" width="9" height="9" transform="rotate(0,266.5,185.5)"/><rect x="262" y="190" width="9" height="9" transform="rotate(0,266.5,194.5)"/><rect x="262" y="199" width="9" height="9" transform="rotate(0,266.5,203.5)"/><rect x="262" y="208" width="9" height="9" transform="rotate(0,266.5,212.5)"/><path d="M 262 217v 9h 9a 9 9, 0, 0, 0, -9 -9" transform="rotate(90,266.5,221.5)"/><rect x="262" y="235" width="9" height="9" transform="rotate(0,266.5,239.5)"/><rect x="262" y="244" width="9" height="9" transform="rotate(0,266.5,248.5)"/><rect x="262" y="253" width="9" height="9" transform="rotate(0,266.5,257.5)"/><path d="M 262 271v 9h 4.5a 4.5 4.5, 0, 0, 0, 0 -9" transform="rotate(0,266.5,275.5)"/><circle cx="266.5" cy="293.5" r="4.5" transform="rotate(0,266.5,293.5)"/><path d="M 271 91v 9h 9a 9 9, 0, 0, 0, -9 -9" transform="rotate(0,275.5,95.5)"/><rect x="271" y="100" width="9" height="9" transform="rotate(0,275.5,104.5)"/><path d="M 271 145v 9h 9a 9 9, 0, 0, 0, -9 -9" transform="rotate(0,275.5,149.5)"/><path d="M 271 154v 9h 9a 9 9, 0, 0, 0, -9 -9" transform="rotate(90,275.5,158.5)"/><path d="M 271 172v 9h 9a 9 9, 0, 0, 0, -9 -9" transform="rotate(-90,275.5,176.5)"/><path d="M 271 181v 9h 9a 9 9, 0, 0, 0, -9 -9" transform="rotate(90,275.5,185.5)"/><path d="M 271 226v 9h 4.5a 4.5 4.5, 0, 0, 0, 0 -9" transform="rotate(-90,275.5,230.5)"/><path d="M 271 235v 9h 9a 9 9, 0, 0, 0, -9 -9" transform="rotate(90,275.5,239.5)"/><rect x="271" y="253" width="9" height="9" transform="rotate(0,275.5,257.5)"/><circle cx="284.5" cy="86.5" r="4.5" transform="rotate(0,284.5,86.5)"/><path d="M 280 100v 9h 9a 9 9, 0, 0, 0, -9 -9" transform="rotate(0,284.5,104.5)"/><rect x="280" y="109" width="9" height="9" transform="rotate(0,284.5,113.5)"/><rect x="280" y="118" width="9" height="9" transform="rotate(0,284.5,122.5)"/><path d="M 280 127v 9h 9a 9 9, 0, 0, 0, -9 -9" transform="rotate(180,284.5,131.5)"/><path d="M 280 163v 9h 4.5a 4.5 4.5, 0, 0, 0, 0 -9" transform="rotate(-90,284.5,167.5)"/><rect x="280" y="172" width="9" height="9" transform="rotate(0,284.5,176.5)"/><path d="M 280 199v 9h 9a 9 9, 0, 0, 0, -9 -9" transform="rotate(-90,284.5,203.5)"/><rect x="280" y="208" width="9" height="9" transform="rotate(0,284.5,212.5)"/><path d="M 280 217v 9h 9a 9 9, 0, 0, 0, -9 -9" transform="rotate(180,284.5,221.5)"/><path d="M 280 244v 9h 9a 9 9, 0, 0, 0, -9 -9" transform="rotate(-90,284.5,248.5)"/><rect x="280" y="253" width="9" height="9" transform="rotate(0,284.5,257.5)"/><path d="M 280 262v 9h 9a 9 9, 0, 0, 0, -9 -9" transform="rotate(180,284.5,266.5)"/><circle cx="293.5" cy="95.5" r="4.5" transform="rotate(0,293.5,95.5)"/><path d="M 289 109v 9h 4.5a 4.5 4.5, 0, 0, 0, 0 -9" transform="rotate(0,293.5,113.5)"/><path d="M 289 127v 9h 9a 9 9, 0, 0, 0, -9 -9" transform="rotate(0,293.5,131.5)"/><path d="M 289 136v 9h 4.5a 4.5 4.5, 0, 0, 0, 0 -9" transform="rotate(90,293.5,140.5)"/><path d="M 289 172v 9h 9a 9 9, 0, 0, 0, -9 -9" transform="rotate(0,293.5,176.5)"/><path d="M 289 181v 9h 4.5a 4.5 4.5, 0, 0, 0, 0 -9" transform="rotate(90,293.5,185.5)"/><path d="M 289 199v 9h 4.5a 4.5 4.5, 0, 0, 0, 0 -9" transform="rotate(0,293.5,203.5)"/><path d="M 289 217v 9h 9a 9 9, 0, 0, 0, -9 -9" transform="rotate(0,293.5,221.5)"/><path d="M 289 226v 9h 4.5a 4.5 4.5, 0, 0, 0, 0 -9" transform="rotate(90,293.5,230.5)"/><path d="M 289 244v 9h 4.5a 4.5 4.5, 0, 0, 0, 0 -9" transform="rotate(0,293.5,248.5)"/><path d="M 289 262v 9h 9a 9 9, 0, 0, 0, -9 -9" transform="rotate(0,293.5,266.5)"/><path d="M 289 271v 9h 4.5a 4.5 4.5, 0, 0, 0, 0 -9" transform="rotate(90,293.5,275.5)"/><circle cx="293.5" cy="293.5" r="4.5" transform="rotate(0,293.5,293.5)"/></g><g class="corners-square-color-0-0"><path clip-rule="evenodd" d="M 1 23.5v 18a 22.5 22.5, 0, 0, 0, 22.5 22.5h 18a 22.5 22.5, 0, 0, 0, 22.5 -22.5v -18a 22.5 22.5, 0, 0, 0, -22.5 -22.5h -18a 22.5 22.5, 0, 0, 0, -22.5 22.5M 23.5 10h 18a 13.5 13.5, 0, 0, 1, 13.5 13.5v 18a 13.5 13.5, 0, 0, 1, -13.5 13.5h -18a 13.5 13.5, 0, 0, 1, -13.5 -13.5v -18a 13.5 13.5, 0, 0, 1, 13.5 -13.5" transform="rotate(0,32.5,32.5)"/></g><g class="corners-dot-color-0-0"><circle cx="32.5" cy="32.5" r="13.5" transform="rotate(0,32.5,32.5)"/></g><g class="corners-square-color-1-0"><path clip-rule="evenodd" d="M 235 23.5v 18a 22.5 22.5, 0, 0, 0, 22.5 22.5h 18a 22.5 22.5, 0, 0, 0, 22.5 -22.5v -18a 22.5 22.5, 0, 0, 0, -22.5 -22.5h -18a 22.5 22.5, 0, 0, 0, -22.5 22.5M 257.5 10h 18a 13.5 13.5, 0, 0, 1, 13.5 13.5v 18a 13.5 13.5, 0, 0, 1, -13.5 13.5h -18a 13.5 13.5, 0, 0, 1, -13.5 -13.5v -18a 13.5 13.5, 0, 0, 1, 13.5 -13.5" transform="rotate(90,266.5,32.5)"/></g><g class="corners-dot-color-1-0"><circle cx="266.5" cy="32.5" r="13.5" transform="rotate(90,266.5,32.5)"/></g><g class="corners-square-color-0-1"><path clip-rule="evenodd" d="M 1 257.5v 18a 22.5 22.5, 0, 0, 0, 22.5 22.5h 18a 22.5 22.5, 0, 0, 0, 22.5 -22.5v -18a 22.5 22.5, 0, 0, 0, -22.5 -22.5h -18a 22.5 22.5, 0, 0, 0, -22.5 22.5M 23.5 244h 18a 13.5 13.5, 0, 0, 1, 13.5 13.5v 18a 13.5 13.5, 0, 0, 1, -13.5 13.5h -18a 13.5 13.5, 0, 0, 1, -13.5 -13.5v -18a 13.5 13.5, 0, 0, 1, 13.5 -13.5" transform="rotate(-90,32.5,266.5)"/></g><g class="corners-dot-color-0-1"><circle cx="32.5" cy="266.5" r="13.5" transform="rotate(-90,32.5,266.5)"/></g><svg id="instagramLogotype" xmlns="http://www.w3.org/2000/svg" viewBox="0 0 51 50" x="111" y="112" width="77px" height="75px"><circle cx="25.5" cy="25" r="25" fill="red"/><rect width="50" height="50" x="0.5" fill="url(#ainst)" rx="15"/><path fill="#fff" d="M26.002 7c-4.753 0-5.35.02-7.216.106-1.863.085-3.135.38-4.248.813a8.57 8.57 0 0 0-3.1 2.018 8.591 8.591 0 0 0-2.02 3.1c-.433 1.113-.729 2.385-.813 4.247C8.522 19.15 8.5 19.747 8.5 24.5s.021 5.348.106 7.214c.085 1.863.38 3.135.813 4.248a8.575 8.575 0 0 0 2.018 3.1 8.57 8.57 0 0 0 3.1 2.02c1.113.432 2.385.727 4.247.813C20.651 41.98 21.247 42 26 42s5.347-.02 7.214-.105c1.863-.086 3.136-.38 4.25-.813a8.562 8.562 0 0 0 3.097-2.02 8.59 8.59 0 0 0 2.02-3.1c.43-1.113.726-2.385.813-4.247.084-1.867.106-2.462.106-7.215s-.022-5.349-.106-7.216c-.087-1.863-.383-3.134-.813-4.247a8.588 8.588 0 0 0-2.02-3.1 8.552 8.552 0 0 0-3.099-2.018c-1.115-.433-2.388-.728-4.25-.813C31.344 7.02 30.75 7 25.995 7h.006Zm-1.57 3.154h1.57c4.672 0 5.226.016 7.071.1 1.706.078 2.633.363 3.25.603a5.412 5.412 0 0 1 2.01 1.309 5.431 5.431 0 0 1 1.31 2.012c.24.616.525 1.543.603 3.249.084 1.845.102 2.399.102 7.07 0 4.67-.018 5.224-.102 7.069-.078 1.706-.363 2.632-.603 3.248a5.41 5.41 0 0 1-1.31 2.01 5.412 5.412 0 0 1-2.01 1.31c-.617.24-1.544.524-3.25.602-1.845.084-2.399.102-7.071.102-4.673 0-5.227-.018-7.072-.102-1.706-.078-2.632-.364-3.25-.603a5.42 5.42 0 0 1-2.012-1.309 5.424 5.424 0 0 1-1.31-2.011c-.24-.617-.525-1.543-.602-3.249-.084-1.845-.1-2.399-.1-7.072 0-4.674.016-5.225.1-7.07.078-1.706.363-2.632.602-3.249.318-.816.697-1.4 1.31-2.012a5.433 5.433 0 0 1 2.013-1.31c.616-.24 1.543-.525 3.25-.603 1.613-.073 2.24-.095 5.5-.099v.005Zm10.911 2.905a2.1 2.1 0 1 0 0 4.201 2.1 2.1 0 0 0 0-4.201Zm-9.341 2.454a8.986 8.986 0 1 0 0 17.972 8.985 8.985 0 0 0 8.985-8.985 8.987 8.987 0 0 0-8.986-8.987Zm0 3.154a5.833 5.833 0 1 1 0 11.667 5.833 5.833 0 0 1 0-11.667Z"/><defs><linearGradient id="ainst" x1="9.875" x2="36.437" y1="0" y2="50" gradientUnits="userSpaceOnUse"><stop stop-color="#405DE6"/><stop offset="0.151" stop-color="#5B51D8"/><stop offset="0.323" stop-color="#833AB4"/><stop offset="0.495" stop-color="#C13584"/><stop offset="0.646" stop-color="#E1306C"/><stop offset="0.802" stop-color="#F77737"/><stop offset="1" stop-color="#FFDC80"/></linearGradient></defs></svg></svg></g></svg></svg>