<svg id="svgQrWrapper" viewBox="0 0 300 300" xmlns="http://www.w3.org/2000/svg" xmlns:xlink="http://www.w3.org/1999/xlink" style="width: 100%; height: 100%; background-color: rgb(255, 255, 255);"><svg><g transform="translate(9, 9)scale(0.95)" fill="none"><svg width="300" height="300"><style>.background-color{ fill: #fff; }.dot-color{ fill: #000000; }.corners-square-color-0-0{ fill: #000000; }.corners-dot-color-0-0{ fill: #000000; }.corners-square-color-1-0{ fill: #000000; }.corners-dot-color-1-0{ fill: #000000; }.corners-square-color-0-1{ fill: #000000; }.corners-dot-color-0-1{ fill: #000000; }</style><defs/><g class="dot-color"><path d="M 1 91v 4.5a 4.5 4.5, 0, 0, 0, 4.5 4.5h 4.5v -4.5a 4.5 4.5, 0, 0, 0, -4.5 -4.5" transform="rotate(90,5.5,95.5)"/><path d="M 1 109v 4.5a 4.5 4.5, 0, 0, 0, 4.5 4.5h 4.5v -4.5a 4.5 4.5, 0, 0, 0, -4.5 -4.5" transform="rotate(90,5.5,113.5)"/><path d="M 1 145v 9h 9v -4.5a 4.5 4.5, 0, 0, 0, -4.5 -4.5" transform="rotate(-90,5.5,149.5)"/><path d="M 1 181v 9h 9v -4.5a 4.5 4.5, 0, 0, 0, -4.5 -4.5" transform="rotate(-90,5.5,185.5)"/><rect x="1" y="190" width="9" height="9" transform="rotate(0,5.5,194.5)"/><path d="M 1 208v 9h 9v -4.5a 4.5 4.5, 0, 0, 0, -4.5 -4.5" transform="rotate(-90,5.5,212.5)"/><path d="M 1 217v 9h 9v -4.5a 4.5 4.5, 0, 0, 0, -4.5 -4.5" transform="rotate(90,5.5,221.5)"/><path d="M 10 82v 4.5a 4.5 4.5, 0, 0, 0, 4.5 4.5h 4.5v -4.5a 4.5 4.5, 0, 0, 0, -4.5 -4.5" transform="rotate(90,14.5,86.5)"/><path d="M 10 100v 9h 9v -4.5a 4.5 4.5, 0, 0, 0, -4.5 -4.5" transform="rotate(-90,14.5,104.5)"/><rect x="10" y="145" width="9" height="9" transform="rotate(0,14.5,149.5)"/><path d="M 10 163v 9h 9v -4.5a 4.5 4.5, 0, 0, 0, -4.5 -4.5" transform="rotate(-90,14.5,167.5)"/><rect x="10" y="172" width="9" height="9" transform="rotate(0,14.5,176.5)"/><rect x="10" y="181" width="9" height="9" transform="rotate(0,14.5,185.5)"/><path d="M 10 190v 9h 9v -4.5a 4.5 4.5, 0, 0, 0, -4.5 -4.5" transform="rotate(90,14.5,194.5)"/><rect x="10" y="208" width="9" height="9" transform="rotate(0,14.5,212.5)"/><path d="M 19 91v 9h 9v -4.5a 4.5 4.5, 0, 0, 0, -4.5 -4.5" transform="rotate(-90,23.5,95.5)"/><path d="M 19 100v 9h 9v -4.5a 4.5 4.5, 0, 0, 0, -4.5 -4.5" transform="rotate(90,23.5,104.5)"/><path d="M 19 118v 9h 9v -4.5a 4.5 4.5, 0, 0, 0, -4.5 -4.5" transform="rotate(-90,23.5,122.5)"/><rect x="19" y="145" width="9" height="9" transform="rotate(0,23.5,149.5)"/><rect x="19" y="163" width="9" height="9" transform="rotate(0,23.5,167.5)"/><rect x="19" y="172" width="9" height="9" transform="rotate(0,23.5,176.5)"/><path d="M 19 181v 9h 9v -4.5a 4.5 4.5, 0, 0, 0, -4.5 -4.5" transform="rotate(90,23.5,185.5)"/><rect x="19" y="208" width="9" height="9" transform="rotate(0,23.5,212.5)"/><path d="M 28 91v 9h 9v -4.5a 4.5 4.5, 0, 0, 0, -4.5 -4.5" transform="rotate(90,32.5,95.5)"/><rect x="28" y="118" width="9" height="9" transform="rotate(0,32.5,122.5)"/><path d="M 28 136v 9h 9v -4.5a 4.5 4.5, 0, 0, 0, -4.5 -4.5" transform="rotate(-90,32.5,140.5)"/><path d="M 28 145v 9h 9v -4.5a 4.5 4.5, 0, 0, 0, -4.5 -4.5" transform="rotate(90,32.5,149.5)"/><path d="M 28 199v 9h 9v -4.5a 4.5 4.5, 0, 0, 0, -4.5 -4.5" transform="rotate(-90,32.5,203.5)"/><rect x="28" y="208" width="9" height="9" transform="rotate(0,32.5,212.5)"/><path d="M 37 73v 4.5a 4.5 4.5, 0, 0, 0, 4.5 4.5h 4.5v -4.5a 4.5 4.5, 0, 0, 0, -4.5 -4.5" transform="rotate(90,41.5,77.5)"/><path d="M 37 109v 9h 9v -4.5a 4.5 4.5, 0, 0, 0, -4.5 -4.5" transform="rotate(-90,41.5,113.5)"/><path d="M 37 118v 9h 9v -4.5a 4.5 4.5, 0, 0, 0, -4.5 -4.5" transform="rotate(90,41.5,122.5)"/><path d="M 37 163v 9h 9v -4.5a 4.5 4.5, 0, 0, 0, -4.5 -4.5" transform="rotate(-90,41.5,167.5)"/><rect x="37" y="172" width="9" height="9" transform="rotate(0,41.5,176.5)"/><rect x="37" y="181" width="9" height="9" transform="rotate(0,41.5,185.5)"/><path d="M 37 190v 9h 9v -4.5a 4.5 4.5, 0, 0, 0, -4.5 -4.5" transform="rotate(90,41.5,194.5)"/><path d="M 37 208v 9h 9v -4.5a 4.5 4.5, 0, 0, 0, -4.5 -4.5" transform="rotate(90,41.5,212.5)"/><path d="M 46 82v 4.5a 4.5 4.5, 0, 0, 0, 4.5 4.5h 4.5v -4.5a 4.5 4.5, 0, 0, 0, -4.5 -4.5" transform="rotate(90,50.5,86.5)"/><rect x="46" y="109" width="9" height="9" transform="rotate(0,50.5,113.5)"/><path d="M 46 136v 4.5a 4.5 4.5, 0, 0, 0, 4.5 4.5h 4.5v -4.5a 4.5 4.5, 0, 0, 0, -4.5 -4.5" transform="rotate(90,50.5,140.5)"/><rect x="46" y="163" width="9" height="9" transform="rotate(0,50.5,167.5)"/><path d="M 46 199v 9h 9v -4.5a 4.5 4.5, 0, 0, 0, -4.5 -4.5" transform="rotate(-90,50.5,203.5)"/><path d="M 46 217v 9h 9v -4.5a 4.5 4.5, 0, 0, 0, -4.5 -4.5" transform="rotate(-90,50.5,221.5)"/><path d="M 55 73v 9h 9v -4.5a 4.5 4.5, 0, 0, 0, -4.5 -4.5" transform="rotate(-90,59.5,77.5)"/><path d="M 55 91v 9h 9v -4.5a 4.5 4.5, 0, 0, 0, -4.5 -4.5" transform="rotate(-90,59.5,95.5)"/><rect x="55" y="109" width="9" height="9" transform="rotate(0,59.5,113.5)"/><path d="M 55 127v 4.5a 4.5 4.5, 0, 0, 0, 4.5 4.5h 4.5v -4.5a 4.5 4.5, 0, 0, 0, -4.5 -4.5" transform="rotate(90,59.5,131.5)"/><path d="M 55 145v 4.5a 4.5 4.5, 0, 0, 0, 4.5 4.5h 4.5v -4.5a 4.5 4.5, 0, 0, 0, -4.5 -4.5" transform="rotate(90,59.5,149.5)"/><rect x="55" y="163" width="9" height="9" transform="rotate(0,59.5,167.5)"/><path d="M 55 181v 4.5a 4.5 4.5, 0, 0, 0, 4.5 4.5h 4.5v -4.5a 4.5 4.5, 0, 0, 0, -4.5 -4.5" transform="rotate(90,59.5,185.5)"/><rect x="55" y="199" width="9" height="9" transform="rotate(0,59.5,203.5)"/><path d="M 55 217v 9h 9v -4.5a 4.5 4.5, 0, 0, 0, -4.5 -4.5" transform="rotate(90,59.5,221.5)"/><rect x="64" y="73" width="9" height="9" transform="rotate(0,68.5,77.5)"/><rect x="64" y="91" width="9" height="9" transform="rotate(0,68.5,95.5)"/><rect x="64" y="100" width="9" height="9" transform="rotate(0,68.5,104.5)"/><rect x="64" y="109" width="9" height="9" transform="rotate(0,68.5,113.5)"/><rect x="64" y="118" width="9" height="9" transform="rotate(0,68.5,122.5)"/><path d="M 64 154v 9h 9v -4.5a 4.5 4.5, 0, 0, 0, -4.5 -4.5" transform="rotate(-90,68.5,158.5)"/><rect x="64" y="163" width="9" height="9" transform="rotate(0,68.5,167.5)"/><path d="M 64 172v 9h 9v -4.5a 4.5 4.5, 0, 0, 0, -4.5 -4.5" transform="rotate(90,68.5,176.5)"/><rect x="64" y="199" width="9" height="9" transform="rotate(0,68.5,203.5)"/><path d="M 64 208v 9h 9v -4.5a 4.5 4.5, 0, 0, 0, -4.5 -4.5" transform="rotate(90,68.5,212.5)"/><path d="M 73 19v 9h 9v -4.5a 4.5 4.5, 0, 0, 0, -4.5 -4.5" transform="rotate(-90,77.5,23.5)"/><rect x="73" y="28" width="9" height="9" transform="rotate(0,77.5,32.5)"/><path d="M 73 55v 9h 9v -4.5a 4.5 4.5, 0, 0, 0, -4.5 -4.5" transform="rotate(-90,77.5,59.5)"/><rect x="73" y="64" width="9" height="9" transform="rotate(0,77.5,68.5)"/><rect x="73" y="73" width="9" height="9" transform="rotate(0,77.5,77.5)"/><path d="M 73 82v 9h 9v -4.5a 4.5 4.5, 0, 0, 0, -4.5 -4.5" transform="rotate(90,77.5,86.5)"/><rect x="73" y="100" width="9" height="9" transform="rotate(0,77.5,104.5)"/><rect x="73" y="109" width="9" height="9" transform="rotate(0,77.5,113.5)"/><rect x="73" y="118" width="9" height="9" transform="rotate(0,77.5,122.5)"/><rect x="73" y="127" width="9" height="9" transform="rotate(0,77.5,131.5)"/><rect x="73" y="136" width="9" height="9" transform="rotate(0,77.5,140.5)"/><rect x="73" y="154" width="9" height="9" transform="rotate(0,77.5,158.5)"/><path d="M 73 181v 9h 9v -4.5a 4.5 4.5, 0, 0, 0, -4.5 -4.5" transform="rotate(-90,77.5,185.5)"/><path d="M 73 190v 9h 9v -4.5a 4.5 4.5, 0, 0, 0, -4.5 -4.5" transform="rotate(90,77.5,194.5)"/><path d="M 73 226v 9h 9v -4.5a 4.5 4.5, 0, 0, 0, -4.5 -4.5" transform="rotate(-90,77.5,230.5)"/><rect x="73" y="235" width="9" height="9" transform="rotate(0,77.5,239.5)"/><path d="M 73 253v 4.5a 4.5 4.5, 0, 0, 0, 4.5 4.5h 4.5v -4.5a 4.5 4.5, 0, 0, 0, -4.5 -4.5" transform="rotate(90,77.5,257.5)"/><rect x="82" y="19" width="9" height="9" transform="rotate(0,86.5,23.5)"/><path d="M 82 28v 9h 9v -4.5a 4.5 4.5, 0, 0, 0, -4.5 -4.5" transform="rotate(90,86.5,32.5)"/><path d="M 82 46v 9h 9v -4.5a 4.5 4.5, 0, 0, 0, -4.5 -4.5" transform="rotate(-90,86.5,50.5)"/><rect x="82" y="109" width="9" height="9" transform="rotate(0,86.5,113.5)"/><rect x="82" y="118" width="9" height="9" transform="rotate(0,86.5,122.5)"/><rect x="82" y="136" width="9" height="9" transform="rotate(0,86.5,140.5)"/><rect x="82" y="145" width="9" height="9" transform="rotate(0,86.5,149.5)"/><rect x="82" y="154" width="9" height="9" transform="rotate(0,86.5,158.5)"/><rect x="82" y="163" width="9" height="9" transform="rotate(0,86.5,167.5)"/><path d="M 82 172v 9h 9v -4.5a 4.5 4.5, 0, 0, 0, -4.5 -4.5" transform="rotate(90,86.5,176.5)"/><path d="M 82 199v 9h 9v -4.5a 4.5 4.5, 0, 0, 0, -4.5 -4.5" transform="rotate(-90,86.5,203.5)"/><rect x="82" y="226" width="9" height="9" transform="rotate(0,86.5,230.5)"/><rect x="82" y="235" width="9" height="9" transform="rotate(0,86.5,239.5)"/><path d="M 82 262v 4.5a 4.5 4.5, 0, 0, 0, 4.5 4.5h 4.5v -4.5a 4.5 4.5, 0, 0, 0, -4.5 -4.5" transform="rotate(90,86.5,266.5)"/><path d="M 82 289v 9h 9v -4.5a 4.5 4.5, 0, 0, 0, -4.5 -4.5" transform="rotate(-90,86.5,293.5)"/><path d="M 91 1v 9h 9v -4.5a 4.5 4.5, 0, 0, 0, -4.5 -4.5" transform="rotate(-90,95.5,5.5)"/><rect x="91" y="10" width="9" height="9" transform="rotate(0,95.5,14.5)"/><path d="M 91 19v 9h 9v -4.5a 4.5 4.5, 0, 0, 0, -4.5 -4.5" transform="rotate(90,95.5,23.5)"/><rect x="91" y="46" width="9" height="9" transform="rotate(0,95.5,50.5)"/><rect x="91" y="55" width="9" height="9" transform="rotate(0,95.5,59.5)"/><path d="M 91 64v 9h 9v -4.5a 4.5 4.5, 0, 0, 0, -4.5 -4.5" transform="rotate(90,95.5,68.5)"/><path d="M 91 82v 9h 9v -4.5a 4.5 4.5, 0, 0, 0, -4.5 -4.5" transform="rotate(-90,95.5,86.5)"/><path d="M 91 100v 9h 9v -4.5a 4.5 4.5, 0, 0, 0, -4.5 -4.5" transform="rotate(-90,95.5,104.5)"/><rect x="91" y="118" width="9" height="9" transform="rotate(0,95.5,122.5)"/><rect x="91" y="136" width="9" height="9" transform="rotate(0,95.5,140.5)"/><path d="M 91 190v 9h 9v -4.5a 4.5 4.5, 0, 0, 0, -4.5 -4.5" transform="rotate(-90,95.5,194.5)"/><rect x="91" y="199" width="9" height="9" transform="rotate(0,95.5,203.5)"/><path d="M 91 208v 9h 9v -4.5a 4.5 4.5, 0, 0, 0, -4.5 -4.5" transform="rotate(90,95.5,212.5)"/><path d="M 91 235v 9h 9v -4.5a 4.5 4.5, 0, 0, 0, -4.5 -4.5" transform="rotate(90,95.5,239.5)"/><path d="M 91 271v 9h 9v -4.5a 4.5 4.5, 0, 0, 0, -4.5 -4.5" transform="rotate(-90,95.5,275.5)"/><rect x="91" y="280" width="9" height="9" transform="rotate(0,95.5,284.5)"/><path d="M 91 289v 9h 9v -4.5a 4.5 4.5, 0, 0, 0, -4.5 -4.5" transform="rotate(90,95.5,293.5)"/><path d="M 100 46v 9h 9v -4.5a 4.5 4.5, 0, 0, 0, -4.5 -4.5" transform="rotate(90,104.5,50.5)"/><rect x="100" y="82" width="9" height="9" transform="rotate(0,104.5,86.5)"/><rect x="100" y="91" width="9" height="9" transform="rotate(0,104.5,95.5)"/><rect x="100" y="100" width="9" height="9" transform="rotate(0,104.5,104.5)"/><rect x="100" y="118" width="9" height="9" transform="rotate(0,104.5,122.5)"/><rect x="100" y="127" width="9" height="9" transform="rotate(0,104.5,131.5)"/><rect x="100" y="136" width="9" height="9" transform="rotate(0,104.5,140.5)"/><rect x="100" y="145" width="9" height="9" transform="rotate(0,104.5,149.5)"/><rect x="100" y="154" width="9" height="9" transform="rotate(0,104.5,158.5)"/><path d="M 100 163v 9h 9v -4.5a 4.5 4.5, 0, 0, 0, -4.5 -4.5" transform="rotate(90,104.5,167.5)"/><path d="M 100 181v 9h 9v -4.5a 4.5 4.5, 0, 0, 0, -4.5 -4.5" transform="rotate(-90,104.5,185.5)"/><rect x="100" y="190" width="9" height="9" transform="rotate(0,104.5,194.5)"/><rect x="100" y="199" width="9" height="9" transform="rotate(0,104.5,203.5)"/><path d="M 100 244v 9h 9v -4.5a 4.5 4.5, 0, 0, 0, -4.5 -4.5" transform="rotate(-90,104.5,248.5)"/><rect x="100" y="253" width="9" height="9" transform="rotate(0,104.5,257.5)"/><rect x="100" y="262" width="9" height="9" transform="rotate(0,104.5,266.5)"/><path d="M 109 1v 9h 9v -4.5a 4.5 4.5, 0, 0, 0, -4.5 -4.5" transform="rotate(-90,113.5,5.5)"/><path d="M 109 10v 9h 9v -4.5a 4.5 4.5, 0, 0, 0, -4.5 -4.5" transform="rotate(90,113.5,14.5)"/><path d="M 109 55v 9h 9v -4.5a 4.5 4.5, 0, 0, 0, -4.5 -4.5" transform="rotate(-90,113.5,59.5)"/><rect x="109" y="64" width="9" height="9" transform="rotate(0,113.5,68.5)"/><rect x="109" y="100" width="9" height="9" transform="rotate(0,113.5,104.5)"/><rect x="109" y="190" width="9" height="9" transform="rotate(0,113.5,194.5)"/><path d="M 109 199v 9h 9v -4.5a 4.5 4.5, 0, 0, 0, -4.5 -4.5" transform="rotate(90,113.5,203.5)"/><path d="M 109 217v 9h 9v -4.5a 4.5 4.5, 0, 0, 0, -4.5 -4.5" transform="rotate(-90,113.5,221.5)"/><rect x="109" y="226" width="9" height="9" transform="rotate(0,113.5,230.5)"/><rect x="109" y="244" width="9" height="9" transform="rotate(0,113.5,248.5)"/><rect x="109" y="262" width="9" height="9" transform="rotate(0,113.5,266.5)"/><rect x="109" y="271" width="9" height="9" transform="rotate(0,113.5,275.5)"/><rect x="109" y="280" width="9" height="9" transform="rotate(0,113.5,284.5)"/><path d="M 109 289v 9h 9v -4.5a 4.5 4.5, 0, 0, 0, -4.5 -4.5" transform="rotate(90,113.5,293.5)"/><path d="M 118 19v 9h 9v -4.5a 4.5 4.5, 0, 0, 0, -4.5 -4.5" transform="rotate(-90,122.5,23.5)"/><path d="M 118 37v 9h 9v -4.5a 4.5 4.5, 0, 0, 0, -4.5 -4.5" transform="rotate(-90,122.5,41.5)"/><path d="M 118 46v 9h 9v -4.5a 4.5 4.5, 0, 0, 0, -4.5 -4.5" transform="rotate(90,122.5,50.5)"/><rect x="118" y="64" width="9" height="9" transform="rotate(0,122.5,68.5)"/><path d="M 118 91v 9h 9v -4.5a 4.5 4.5, 0, 0, 0, -4.5 -4.5" transform="rotate(-90,122.5,95.5)"/><path d="M 118 100v 9h 9v -4.5a 4.5 4.5, 0, 0, 0, -4.5 -4.5" transform="rotate(90,122.5,104.5)"/><rect x="118" y="190" width="9" height="9" transform="rotate(0,122.5,194.5)"/><rect x="118" y="217" width="9" height="9" transform="rotate(0,122.5,221.5)"/><path d="M 118 226v 9h 9v -4.5a 4.5 4.5, 0, 0, 0, -4.5 -4.5" transform="rotate(90,122.5,230.5)"/><rect x="118" y="244" width="9" height="9" transform="rotate(0,122.5,248.5)"/><path d="M 118 253v 9h 9v -4.5a 4.5 4.5, 0, 0, 0, -4.5 -4.5" transform="rotate(90,122.5,257.5)"/><rect x="118" y="271" width="9" height="9" transform="rotate(0,122.5,275.5)"/><path d="M 127 1v 4.5a 4.5 4.5, 0, 0, 0, 4.5 4.5h 4.5v -4.5a 4.5 4.5, 0, 0, 0, -4.5 -4.5" transform="rotate(90,131.5,5.5)"/><path d="M 127 19v 9h 9v -4.5a 4.5 4.5, 0, 0, 0, -4.5 -4.5" transform="rotate(90,131.5,23.5)"/><path d="M 127 55v 9h 9v -4.5a 4.5 4.5, 0, 0, 0, -4.5 -4.5" transform="rotate(-90,131.5,59.5)"/><path d="M 127 64v 9h 9v -4.5a 4.5 4.5, 0, 0, 0, -4.5 -4.5" transform="rotate(90,131.5,68.5)"/><rect x="127" y="91" width="9" height="9" transform="rotate(0,131.5,95.5)"/><rect x="127" y="190" width="9" height="9" transform="rotate(0,131.5,194.5)"/><path d="M 127 235v 9h 9v -4.5a 4.5 4.5, 0, 0, 0, -4.5 -4.5" transform="rotate(-90,131.5,239.5)"/><path d="M 127 271v 9h 9v -4.5a 4.5 4.5, 0, 0, 0, -4.5 -4.5" transform="rotate(90,131.5,275.5)"/><path d="M 136 46v 4.5a 4.5 4.5, 0, 0, 0, 4.5 4.5h 4.5v -4.5a 4.5 4.5, 0, 0, 0, -4.5 -4.5" transform="rotate(90,140.5,50.5)"/><path d="M 136 73v 9h 9v -4.5a 4.5 4.5, 0, 0, 0, -4.5 -4.5" transform="rotate(-90,140.5,77.5)"/><rect x="136" y="82" width="9" height="9" transform="rotate(0,140.5,86.5)"/><path d="M 136 91v 9h 9v -4.5a 4.5 4.5, 0, 0, 0, -4.5 -4.5" transform="rotate(90,140.5,95.5)"/><rect x="136" y="190" width="9" height="9" transform="rotate(0,140.5,194.5)"/><rect x="136" y="199" width="9" height="9" transform="rotate(0,140.5,203.5)"/><path d="M 136 208v 9h 9v -4.5a 4.5 4.5, 0, 0, 0, -4.5 -4.5" transform="rotate(90,140.5,212.5)"/><path d="M 136 226v 9h 9v -4.5a 4.5 4.5, 0, 0, 0, -4.5 -4.5" transform="rotate(-90,140.5,230.5)"/><rect x="136" y="235" width="9" height="9" transform="rotate(0,140.5,239.5)"/><path d="M 136 253v 9h 9v -4.5a 4.5 4.5, 0, 0, 0, -4.5 -4.5" transform="rotate(-90,140.5,257.5)"/><rect x="136" y="262" width="9" height="9" transform="rotate(0,140.5,266.5)"/><path d="M 136 289v 4.5a 4.5 4.5, 0, 0, 0, 4.5 4.5h 4.5v -4.5a 4.5 4.5, 0, 0, 0, -4.5 -4.5" transform="rotate(90,140.5,293.5)"/><path d="M 145 10v 9h 9v -4.5a 4.5 4.5, 0, 0, 0, -4.5 -4.5" transform="rotate(-90,149.5,14.5)"/><path d="M 145 19v 9h 9v -4.5a 4.5 4.5, 0, 0, 0, -4.5 -4.5" transform="rotate(90,149.5,23.5)"/><path d="M 145 55v 4.5a 4.5 4.5, 0, 0, 0, 4.5 4.5h 4.5v -4.5a 4.5 4.5, 0, 0, 0, -4.5 -4.5" transform="rotate(90,149.5,59.5)"/><path d="M 145 73v 9h 9v -4.5a 4.5 4.5, 0, 0, 0, -4.5 -4.5" transform="rotate(90,149.5,77.5)"/><rect x="145" y="190" width="9" height="9" transform="rotate(0,149.5,194.5)"/><path d="M 145 217v 9h 9v -4.5a 4.5 4.5, 0, 0, 0, -4.5 -4.5" transform="rotate(-90,149.5,221.5)"/><rect x="145" y="226" width="9" height="9" transform="rotate(0,149.5,230.5)"/><rect x="145" y="235" width="9" height="9" transform="rotate(0,149.5,239.5)"/><rect x="145" y="253" width="9" height="9" transform="rotate(0,149.5,257.5)"/><path d="M 145 262v 9h 9v -4.5a 4.5 4.5, 0, 0, 0, -4.5 -4.5" transform="rotate(90,149.5,266.5)"/><path d="M 154 1v 9h 9v -4.5a 4.5 4.5, 0, 0, 0, -4.5 -4.5" transform="rotate(-90,158.5,5.5)"/><path d="M 154 10v 9h 9v -4.5a 4.5 4.5, 0, 0, 0, -4.5 -4.5" transform="rotate(90,158.5,14.5)"/><path d="M 154 28v 4.5a 4.5 4.5, 0, 0, 0, 4.5 4.5h 4.5v -4.5a 4.5 4.5, 0, 0, 0, -4.5 -4.5" transform="rotate(90,158.5,32.5)"/><path d="M 154 46v 4.5a 4.5 4.5, 0, 0, 0, 4.5 4.5h 4.5v -4.5a 4.5 4.5, 0, 0, 0, -4.5 -4.5" transform="rotate(90,158.5,50.5)"/><rect x="154" y="190" width="9" height="9" transform="rotate(0,158.5,194.5)"/><rect x="154" y="199" width="9" height="9" transform="rotate(0,158.5,203.5)"/><path d="M 154 208v 9h 9v -4.5a 4.5 4.5, 0, 0, 0, -4.5 -4.5" transform="rotate(90,158.5,212.5)"/><rect x="154" y="235" width="9" height="9" transform="rotate(0,158.5,239.5)"/><rect x="154" y="244" width="9" height="9" transform="rotate(0,158.5,248.5)"/><path d="M 154 253v 9h 9v -4.5a 4.5 4.5, 0, 0, 0, -4.5 -4.5" transform="rotate(90,158.5,257.5)"/><path d="M 154 271v 9h 9v -4.5a 4.5 4.5, 0, 0, 0, -4.5 -4.5" transform="rotate(-90,158.5,275.5)"/><path d="M 154 280v 9h 9v -4.5a 4.5 4.5, 0, 0, 0, -4.5 -4.5" transform="rotate(90,158.5,284.5)"/><path d="M 163 55v 4.5a 4.5 4.5, 0, 0, 0, 4.5 4.5h 4.5v -4.5a 4.5 4.5, 0, 0, 0, -4.5 -4.5" transform="rotate(90,167.5,59.5)"/><path d="M 163 82v 9h 9v -4.5a 4.5 4.5, 0, 0, 0, -4.5 -4.5" transform="rotate(-90,167.5,86.5)"/><path d="M 163 100v 9h 9v -4.5a 4.5 4.5, 0, 0, 0, -4.5 -4.5" transform="rotate(-90,167.5,104.5)"/><rect x="163" y="199" width="9" height="9" transform="rotate(0,167.5,203.5)"/><rect x="163" y="244" width="9" height="9" transform="rotate(0,167.5,248.5)"/><path d="M 163 271v 9h 9v -4.5a 4.5 4.5, 0, 0, 0, -4.5 -4.5" transform="rotate(90,167.5,275.5)"/><path d="M 172 19v 9h 9v -4.5a 4.5 4.5, 0, 0, 0, -4.5 -4.5" transform="rotate(-90,176.5,23.5)"/><path d="M 172 37v 9h 9v -4.5a 4.5 4.5, 0, 0, 0, -4.5 -4.5" transform="rotate(-90,176.5,41.5)"/><rect x="172" y="46" width="9" height="9" transform="rotate(0,176.5,50.5)"/><rect x="172" y="82" width="9" height="9" transform="rotate(0,176.5,86.5)"/><rect x="172" y="100" width="9" height="9" transform="rotate(0,176.5,104.5)"/><path d="M 172 199v 9h 9v -4.5a 4.5 4.5, 0, 0, 0, -4.5 -4.5" transform="rotate(90,176.5,203.5)"/><path d="M 172 226v 9h 9v -4.5a 4.5 4.5, 0, 0, 0, -4.5 -4.5" transform="rotate(-90,176.5,230.5)"/><rect x="172" y="235" width="9" height="9" transform="rotate(0,176.5,239.5)"/><rect x="172" y="244" width="9" height="9" transform="rotate(0,176.5,248.5)"/><path d="M 172 280v 9h 9v -4.5a 4.5 4.5, 0, 0, 0, -4.5 -4.5" transform="rotate(-90,176.5,284.5)"/><rect x="172" y="289" width="9" height="9" transform="rotate(0,176.5,293.5)"/><path d="M 181 10v 9h 9v -4.5a 4.5 4.5, 0, 0, 0, -4.5 -4.5" transform="rotate(-90,185.5,14.5)"/><rect x="181" y="19" width="9" height="9" transform="rotate(0,185.5,23.5)"/><path d="M 181 28v 9h 9v -4.5a 4.5 4.5, 0, 0, 0, -4.5 -4.5" transform="rotate(90,185.5,32.5)"/><rect x="181" y="46" width="9" height="9" transform="rotate(0,185.5,50.5)"/><path d="M 181 55v 9h 9v -4.5a 4.5 4.5, 0, 0, 0, -4.5 -4.5" transform="rotate(90,185.5,59.5)"/><rect x="181" y="82" width="9" height="9" transform="rotate(0,185.5,86.5)"/><rect x="181" y="91" width="9" height="9" transform="rotate(0,185.5,95.5)"/><path d="M 181 100v 9h 9v -4.5a 4.5 4.5, 0, 0, 0, -4.5 -4.5" transform="rotate(90,185.5,104.5)"/><path d="M 181 190v 4.5a 4.5 4.5, 0, 0, 0, 4.5 4.5h 4.5v -4.5a 4.5 4.5, 0, 0, 0, -4.5 -4.5" transform="rotate(90,185.5,194.5)"/><rect x="181" y="226" width="9" height="9" transform="rotate(0,185.5,230.5)"/><path d="M 181 244v 9h 9v -4.5a 4.5 4.5, 0, 0, 0, -4.5 -4.5" transform="rotate(90,185.5,248.5)"/><path d="M 181 262v 9h 9v -4.5a 4.5 4.5, 0, 0, 0, -4.5 -4.5" transform="rotate(-90,185.5,266.5)"/><rect x="181" y="271" width="9" height="9" transform="rotate(0,185.5,275.5)"/><rect x="181" y="280" width="9" height="9" transform="rotate(0,185.5,284.5)"/><rect x="181" y="289" width="9" height="9" transform="rotate(0,185.5,293.5)"/><path d="M 190 1v 4.5a 4.5 4.5, 0, 0, 0, 4.5 4.5h 4.5v -4.5a 4.5 4.5, 0, 0, 0, -4.5 -4.5" transform="rotate(90,194.5,5.5)"/><rect x="190" y="46" width="9" height="9" transform="rotate(0,194.5,50.5)"/><path d="M 190 109v 9h 9v -4.5a 4.5 4.5, 0, 0, 0, -4.5 -4.5" transform="rotate(-90,194.5,113.5)"/><rect x="190" y="118" width="9" height="9" transform="rotate(0,194.5,122.5)"/><path d="M 190 127v 9h 9v -4.5a 4.5 4.5, 0, 0, 0, -4.5 -4.5" transform="rotate(90,194.5,131.5)"/><path d="M 190 154v 9h 9v -4.5a 4.5 4.5, 0, 0, 0, -4.5 -4.5" transform="rotate(-90,194.5,158.5)"/><path d="M 190 181v 9h 9v -4.5a 4.5 4.5, 0, 0, 0, -4.5 -4.5" transform="rotate(-90,194.5,185.5)"/><path d="M 190 226v 9h 9v -4.5a 4.5 4.5, 0, 0, 0, -4.5 -4.5" transform="rotate(90,194.5,230.5)"/><rect x="190" y="262" width="9" height="9" transform="rotate(0,194.5,266.5)"/><path d="M 190 271v 9h 9v -4.5a 4.5 4.5, 0, 0, 0, -4.5 -4.5" transform="rotate(90,194.5,275.5)"/><rect x="190" y="289" width="9" height="9" transform="rotate(0,194.5,293.5)"/><path d="M 199 19v 9h 9v -4.5a 4.5 4.5, 0, 0, 0, -4.5 -4.5" transform="rotate(-90,203.5,23.5)"/><rect x="199" y="28" width="9" height="9" transform="rotate(0,203.5,32.5)"/><rect x="199" y="37" width="9" height="9" transform="rotate(0,203.5,41.5)"/><rect x="199" y="46" width="9" height="9" transform="rotate(0,203.5,50.5)"/><path d="M 199 55v 9h 9v -4.5a 4.5 4.5, 0, 0, 0, -4.5 -4.5" transform="rotate(90,203.5,59.5)"/><path d="M 199 82v 9h 9v -4.5a 4.5 4.5, 0, 0, 0, -4.5 -4.5" transform="rotate(-90,203.5,86.5)"/><rect x="199" y="91" width="9" height="9" transform="rotate(0,203.5,95.5)"/><rect x="199" y="109" width="9" height="9" transform="rotate(0,203.5,113.5)"/><rect x="199" y="118" width="9" height="9" transform="rotate(0,203.5,122.5)"/><path d="M 199 154v 9h 9v -4.5a 4.5 4.5, 0, 0, 0, -4.5 -4.5" transform="rotate(90,203.5,158.5)"/><path d="M 199 172v 9h 9v -4.5a 4.5 4.5, 0, 0, 0, -4.5 -4.5" transform="rotate(-90,203.5,176.5)"/><path d="M 199 181v 9h 9v -4.5a 4.5 4.5, 0, 0, 0, -4.5 -4.5" transform="rotate(90,203.5,185.5)"/><path d="M 199 235v 9h 9v -4.5a 4.5 4.5, 0, 0, 0, -4.5 -4.5" transform="rotate(-90,203.5,239.5)"/><rect x="199" y="244" width="9" height="9" transform="rotate(0,203.5,248.5)"/><path d="M 199 289v 9h 9v -4.5a 4.5 4.5, 0, 0, 0, -4.5 -4.5" transform="rotate(90,203.5,293.5)"/><path d="M 208 10v 4.5a 4.5 4.5, 0, 0, 0, 4.5 4.5h 4.5v -4.5a 4.5 4.5, 0, 0, 0, -4.5 -4.5" transform="rotate(90,212.5,14.5)"/><path d="M 208 28v 9h 9v -4.5a 4.5 4.5, 0, 0, 0, -4.5 -4.5" transform="rotate(90,212.5,32.5)"/><path d="M 208 73v 9h 9v -4.5a 4.5 4.5, 0, 0, 0, -4.5 -4.5" transform="rotate(-90,212.5,77.5)"/><path d="M 208 91v 9h 9v -4.5a 4.5 4.5, 0, 0, 0, -4.5 -4.5" transform="rotate(90,212.5,95.5)"/><rect x="208" y="118" width="9" height="9" transform="rotate(0,212.5,122.5)"/><rect x="208" y="127" width="9" height="9" transform="rotate(0,212.5,131.5)"/><path d="M 208 163v 9h 9v -4.5a 4.5 4.5, 0, 0, 0, -4.5 -4.5" transform="rotate(-90,212.5,167.5)"/><path d="M 208 208v 9h 9v -4.5a 4.5 4.5, 0, 0, 0, -4.5 -4.5" transform="rotate(-90,212.5,212.5)"/><rect x="208" y="217" width="9" height="9" transform="rotate(0,212.5,221.5)"/><rect x="208" y="226" width="9" height="9" transform="rotate(0,212.5,230.5)"/><rect x="208" y="244" width="9" height="9" transform="rotate(0,212.5,248.5)"/><path d="M 217 1v 4.5a 4.5 4.5, 0, 0, 0, 4.5 4.5h 4.5v -4.5a 4.5 4.5, 0, 0, 0, -4.5 -4.5" transform="rotate(90,221.5,5.5)"/><path d="M 217 19v 4.5a 4.5 4.5, 0, 0, 0, 4.5 4.5h 4.5v -4.5a 4.5 4.5, 0, 0, 0, -4.5 -4.5" transform="rotate(90,221.5,23.5)"/><path d="M 217 37v 9h 9v -4.5a 4.5 4.5, 0, 0, 0, -4.5 -4.5" transform="rotate(-90,221.5,41.5)"/><rect x="217" y="46" width="9" height="9" transform="rotate(0,221.5,50.5)"/><rect x="217" y="55" width="9" height="9" transform="rotate(0,221.5,59.5)"/><rect x="217" y="64" width="9" height="9" transform="rotate(0,221.5,68.5)"/><rect x="217" y="73" width="9" height="9" transform="rotate(0,221.5,77.5)"/><path d="M 217 100v 9h 9v -4.5a 4.5 4.5, 0, 0, 0, -4.5 -4.5" transform="rotate(-90,221.5,104.5)"/><rect x="217" y="109" width="9" height="9" transform="rotate(0,221.5,113.5)"/><rect x="217" y="127" width="9" height="9" transform="rotate(0,221.5,131.5)"/><path d="M 217 136v 9h 9v -4.5a 4.5 4.5, 0, 0, 0, -4.5 -4.5" transform="rotate(90,221.5,140.5)"/><path d="M 217 163v 9h 9v -4.5a 4.5 4.5, 0, 0, 0, -4.5 -4.5" transform="rotate(90,221.5,167.5)"/><path d="M 217 181v 9h 9v -4.5a 4.5 4.5, 0, 0, 0, -4.5 -4.5" transform="rotate(-90,221.5,185.5)"/><rect x="217" y="190" width="9" height="9" transform="rotate(0,221.5,194.5)"/><rect x="217" y="199" width="9" height="9" transform="rotate(0,221.5,203.5)"/><rect x="217" y="208" width="9" height="9" transform="rotate(0,221.5,212.5)"/><rect x="217" y="217" width="9" height="9" transform="rotate(0,221.5,221.5)"/><rect x="217" y="226" width="9" height="9" transform="rotate(0,221.5,230.5)"/><rect x="217" y="235" width="9" height="9" transform="rotate(0,221.5,239.5)"/><rect x="217" y="244" width="9" height="9" transform="rotate(0,221.5,248.5)"/><rect x="217" y="253" width="9" height="9" transform="rotate(0,221.5,257.5)"/><path d="M 217 280v 9h 9v -4.5a 4.5 4.5, 0, 0, 0, -4.5 -4.5" transform="rotate(-90,221.5,284.5)"/><path d="M 217 289v 9h 9v -4.5a 4.5 4.5, 0, 0, 0, -4.5 -4.5" transform="rotate(90,221.5,293.5)"/><rect x="226" y="73" width="9" height="9" transform="rotate(0,230.5,77.5)"/><rect x="226" y="82" width="9" height="9" transform="rotate(0,230.5,86.5)"/><path d="M 226 91v 9h 9v -4.5a 4.5 4.5, 0, 0, 0, -4.5 -4.5" transform="rotate(90,230.5,95.5)"/><path d="M 226 109v 9h 9v -4.5a 4.5 4.5, 0, 0, 0, -4.5 -4.5" transform="rotate(90,230.5,113.5)"/><path d="M 226 127v 9h 9v -4.5a 4.5 4.5, 0, 0, 0, -4.5 -4.5" transform="rotate(90,230.5,131.5)"/><path d="M 226 145v 4.5a 4.5 4.5, 0, 0, 0, 4.5 4.5h 4.5v -4.5a 4.5 4.5, 0, 0, 0, -4.5 -4.5" transform="rotate(90,230.5,149.5)"/><path d="M 226 172v 9h 9v -4.5a 4.5 4.5, 0, 0, 0, -4.5 -4.5" transform="rotate(-90,230.5,176.5)"/><path d="M 226 181v 9h 9v -4.5a 4.5 4.5, 0, 0, 0, -4.5 -4.5" transform="rotate(90,230.5,185.5)"/><rect x="226" y="217" width="9" height="9" transform="rotate(0,230.5,221.5)"/><rect x="226" y="253" width="9" height="9" transform="rotate(0,230.5,257.5)"/><rect x="226" y="262" width="9" height="9" transform="rotate(0,230.5,266.5)"/><rect x="235" y="73" width="9" height="9" transform="rotate(0,239.5,77.5)"/><rect x="235" y="82" width="9" height="9" transform="rotate(0,239.5,86.5)"/><path d="M 235 100v 4.5a 4.5 4.5, 0, 0, 0, 4.5 4.5h 4.5v -4.5a 4.5 4.5, 0, 0, 0, -4.5 -4.5" transform="rotate(90,239.5,104.5)"/><path d="M 235 118v 4.5a 4.5 4.5, 0, 0, 0, 4.5 4.5h 4.5v -4.5a 4.5 4.5, 0, 0, 0, -4.5 -4.5" transform="rotate(90,239.5,122.5)"/><path d="M 235 136v 9h 9v -4.5a 4.5 4.5, 0, 0, 0, -4.5 -4.5" transform="rotate(-90,239.5,140.5)"/><path d="M 235 154v 9h 9v -4.5a 4.5 4.5, 0, 0, 0, -4.5 -4.5" transform="rotate(-90,239.5,158.5)"/><path d="M 235 163v 9h 9v -4.5a 4.5 4.5, 0, 0, 0, -4.5 -4.5" transform="rotate(90,239.5,167.5)"/><path d="M 235 199v 9h 9v -4.5a 4.5 4.5, 0, 0, 0, -4.5 -4.5" transform="rotate(-90,239.5,203.5)"/><rect x="235" y="208" width="9" height="9" transform="rotate(0,239.5,212.5)"/><rect x="235" y="217" width="9" height="9" transform="rotate(0,239.5,221.5)"/><path d="M 235 235v 4.5a 4.5 4.5, 0, 0, 0, 4.5 4.5h 4.5v -4.5a 4.5 4.5, 0, 0, 0, -4.5 -4.5" transform="rotate(90,239.5,239.5)"/><rect x="235" y="253" width="9" height="9" transform="rotate(0,239.5,257.5)"/><rect x="235" y="262" width="9" height="9" transform="rotate(0,239.5,266.5)"/><rect x="244" y="82" width="9" height="9" transform="rotate(0,248.5,86.5)"/><path d="M 244 91v 9h 9v -4.5a 4.5 4.5, 0, 0, 0, -4.5 -4.5" transform="rotate(90,248.5,95.5)"/><path d="M 244 109v 9h 9v -4.5a 4.5 4.5, 0, 0, 0, -4.5 -4.5" transform="rotate(-90,248.5,113.5)"/><rect x="244" y="136" width="9" height="9" transform="rotate(0,248.5,140.5)"/><path d="M 244 172v 9h 9v -4.5a 4.5 4.5, 0, 0, 0, -4.5 -4.5" transform="rotate(-90,248.5,176.5)"/><rect x="244" y="181" width="9" height="9" transform="rotate(0,248.5,185.5)"/><rect x="244" y="190" width="9" height="9" transform="rotate(0,248.5,194.5)"/><path d="M 244 199v 9h 9v -4.5a 4.5 4.5, 0, 0, 0, -4.5 -4.5" transform="rotate(90,248.5,203.5)"/><rect x="244" y="217" width="9" height="9" transform="rotate(0,248.5,221.5)"/><rect x="244" y="253" width="9" height="9" transform="rotate(0,248.5,257.5)"/><rect x="244" y="262" width="9" height="9" transform="rotate(0,248.5,266.5)"/><rect x="244" y="271" width="9" height="9" transform="rotate(0,248.5,275.5)"/><rect x="244" y="280" width="9" height="9" transform="rotate(0,248.5,284.5)"/><path d="M 244 289v 9h 9v -4.5a 4.5 4.5, 0, 0, 0, -4.5 -4.5" transform="rotate(90,248.5,293.5)"/><rect x="253" y="109" width="9" height="9" transform="rotate(0,257.5,113.5)"/><path d="M 253 127v 9h 9v -4.5a 4.5 4.5, 0, 0, 0, -4.5 -4.5" transform="rotate(-90,257.5,131.5)"/><path d="M 253 136v 9h 9v -4.5a 4.5 4.5, 0, 0, 0, -4.5 -4.5" transform="rotate(90,257.5,140.5)"/><rect x="253" y="172" width="9" height="9" transform="rotate(0,257.5,176.5)"/><path d="M 253 181v 9h 9v -4.5a 4.5 4.5, 0, 0, 0, -4.5 -4.5" transform="rotate(90,257.5,185.5)"/><path d="M 253 208v 9h 9v -4.5a 4.5 4.5, 0, 0, 0, -4.5 -4.5" transform="rotate(-90,257.5,212.5)"/><rect x="253" y="217" width="9" height="9" transform="rotate(0,257.5,221.5)"/><rect x="253" y="226" width="9" height="9" transform="rotate(0,257.5,230.5)"/><rect x="253" y="235" width="9" height="9" transform="rotate(0,257.5,239.5)"/><rect x="253" y="244" width="9" height="9" transform="rotate(0,257.5,248.5)"/><rect x="253" y="253" width="9" height="9" transform="rotate(0,257.5,257.5)"/><path d="M 253 262v 9h 9v -4.5a 4.5 4.5, 0, 0, 0, -4.5 -4.5" transform="rotate(90,257.5,266.5)"/><path d="M 253 280v 9h 9v -4.5a 4.5 4.5, 0, 0, 0, -4.5 -4.5" transform="rotate(90,257.5,284.5)"/><path d="M 262 73v 9h 9v -4.5a 4.5 4.5, 0, 0, 0, -4.5 -4.5" transform="rotate(-90,266.5,77.5)"/><path d="M 262 91v 9h 9v -4.5a 4.5 4.5, 0, 0, 0, -4.5 -4.5" transform="rotate(-90,266.5,95.5)"/><rect x="262" y="100" width="9" height="9" transform="rotate(0,266.5,104.5)"/><rect x="262" y="109" width="9" height="9" transform="rotate(0,266.5,113.5)"/><path d="M 262 118v 9h 9v -4.5a 4.5 4.5, 0, 0, 0, -4.5 -4.5" transform="rotate(90,266.5,122.5)"/><path d="M 262 154v 9h 9v -4.5a 4.5 4.5, 0, 0, 0, -4.5 -4.5" transform="rotate(-90,266.5,158.5)"/><rect x="262" y="163" width="9" height="9" transform="rotate(0,266.5,167.5)"/><path d="M 262 190v 4.5a 4.5 4.5, 0, 0, 0, 4.5 4.5h 4.5v -4.5a 4.5 4.5, 0, 0, 0, -4.5 -4.5" transform="rotate(90,266.5,194.5)"/><path d="M 262 208v 9h 9v -4.5a 4.5 4.5, 0, 0, 0, -4.5 -4.5" transform="rotate(90,266.5,212.5)"/><path d="M 262 244v 9h 9v -4.5a 4.5 4.5, 0, 0, 0, -4.5 -4.5" transform="rotate(90,266.5,248.5)"/><path d="M 271 73v 9h 9v -4.5a 4.5 4.5, 0, 0, 0, -4.5 -4.5" transform="rotate(90,275.5,77.5)"/><rect x="271" y="109" width="9" height="9" transform="rotate(0,275.5,113.5)"/><rect x="271" y="163" width="9" height="9" transform="rotate(0,275.5,167.5)"/><rect x="271" y="172" width="9" height="9" transform="rotate(0,275.5,176.5)"/><rect x="271" y="181" width="9" height="9" transform="rotate(0,275.5,185.5)"/><path d="M 271 199v 4.5a 4.5 4.5, 0, 0, 0, 4.5 4.5h 4.5v -4.5a 4.5 4.5, 0, 0, 0, -4.5 -4.5" transform="rotate(90,275.5,203.5)"/><path d="M 271 226v 9h 9v -4.5a 4.5 4.5, 0, 0, 0, -4.5 -4.5" transform="rotate(-90,275.5,230.5)"/><rect x="271" y="235" width="9" height="9" transform="rotate(0,275.5,239.5)"/><path d="M 271 262v 9h 9v -4.5a 4.5 4.5, 0, 0, 0, -4.5 -4.5" transform="rotate(-90,275.5,266.5)"/><path d="M 271 271v 9h 9v -4.5a 4.5 4.5, 0, 0, 0, -4.5 -4.5" transform="rotate(90,275.5,275.5)"/><path d="M 280 91v 9h 9v -4.5a 4.5 4.5, 0, 0, 0, -4.5 -4.5" transform="rotate(-90,284.5,95.5)"/><rect x="280" y="100" width="9" height="9" transform="rotate(0,284.5,104.5)"/><rect x="280" y="109" width="9" height="9" transform="rotate(0,284.5,113.5)"/><path d="M 280 118v 9h 9v -4.5a 4.5 4.5, 0, 0, 0, -4.5 -4.5" transform="rotate(90,284.5,122.5)"/><path d="M 280 136v 9h 9v -4.5a 4.5 4.5, 0, 0, 0, -4.5 -4.5" transform="rotate(-90,284.5,140.5)"/><rect x="280" y="145" width="9" height="9" transform="rotate(0,284.5,149.5)"/><rect x="280" y="163" width="9" height="9" transform="rotate(0,284.5,167.5)"/><rect x="280" y="172" width="9" height="9" transform="rotate(0,284.5,176.5)"/><rect x="280" y="181" width="9" height="9" transform="rotate(0,284.5,185.5)"/><path d="M 280 190v 9h 9v -4.5a 4.5 4.5, 0, 0, 0, -4.5 -4.5" transform="rotate(90,284.5,194.5)"/><path d="M 280 208v 9h 9v -4.5a 4.5 4.5, 0, 0, 0, -4.5 -4.5" transform="rotate(-90,284.5,212.5)"/><path d="M 280 217v 9h 9v -4.5a 4.5 4.5, 0, 0, 0, -4.5 -4.5" transform="rotate(90,284.5,221.5)"/><rect x="280" y="235" width="9" height="9" transform="rotate(0,284.5,239.5)"/><rect x="280" y="262" width="9" height="9" transform="rotate(0,284.5,266.5)"/><path d="M 280 289v 4.5a 4.5 4.5, 0, 0, 0, 4.5 4.5h 4.5v -4.5a 4.5 4.5, 0, 0, 0, -4.5 -4.5" transform="rotate(90,284.5,293.5)"/><rect x="289" y="136" width="9" height="9" transform="rotate(0,293.5,140.5)"/><path d="M 289 145v 9h 9v -4.5a 4.5 4.5, 0, 0, 0, -4.5 -4.5" transform="rotate(90,293.5,149.5)"/><rect x="289" y="163" width="9" height="9" transform="rotate(0,293.5,167.5)"/><path d="M 289 172v 9h 9v -4.5a 4.5 4.5, 0, 0, 0, -4.5 -4.5" transform="rotate(90,293.5,176.5)"/><path d="M 289 226v 9h 9v -4.5a 4.5 4.5, 0, 0, 0, -4.5 -4.5" transform="rotate(-90,293.5,230.5)"/><rect x="289" y="235" width="9" height="9" transform="rotate(0,293.5,239.5)"/><rect x="289" y="244" width="9" height="9" transform="rotate(0,293.5,248.5)"/><rect x="289" y="253" width="9" height="9" transform="rotate(0,293.5,257.5)"/><path d="M 289 262v 9h 9v -4.5a 4.5 4.5, 0, 0, 0, -4.5 -4.5" transform="rotate(90,293.5,266.5)"/></g><g class="corners-square-color-0-0"><path clip-rule="evenodd" d="M 1 23.5v 18a 22.5 22.5, 0, 0, 0, 22.5 22.5h 18a 22.5 22.5, 0, 0, 0, 22.5 -22.5v -18a 22.5 22.5, 0, 0, 0, -22.5 -22.5h -18a 22.5 22.5, 0, 0, 0, -22.5 22.5M 23.5 10h 18a 13.5 13.5, 0, 0, 1, 13.5 13.5v 18a 13.5 13.5, 0, 0, 1, -13.5 13.5h -18a 13.5 13.5, 0, 0, 1, -13.5 -13.5v -18a 13.5 13.5, 0, 0, 1, 13.5 -13.5" transform="rotate(0,32.5,32.5)"/></g><g class="corners-dot-color-0-0"><circle cx="32.5" cy="32.5" r="13.5" transform="rotate(0,32.5,32.5)"/></g><g class="corners-square-color-1-0"><path clip-rule="evenodd" d="M 235 23.5v 18a 22.5 22.5, 0, 0, 0, 22.5 22.5h 18a 22.5 22.5, 0, 0, 0, 22.5 -22.5v -18a 22.5 22.5, 0, 0, 0, -22.5 -22.5h -18a 22.5 22.5, 0, 0, 0, -22.5 22.5M 257.5 10h 18a 13.5 13.5, 0, 0, 1, 13.5 13.5v 18a 13.5 13.5, 0, 0, 1, -13.5 13.5h -18a 13.5 13.5, 0, 0, 1, -13.5 -13.5v -18a 13.5 13.5, 0, 0, 1, 13.5 -13.5" transform="rotate(90,266.5,32.5)"/></g><g class="corners-dot-color-1-0"><circle cx="266.5" cy="32.5" r="13.5" transform="rotate(90,266.5,32.5)"/></g><g class="corners-square-color-0-1"><path clip-rule="evenodd" d="M 1 257.5v 18a 22.5 22.5, 0, 0, 0, 22.5 22.5h 18a 22.5 22.5, 0, 0, 0, 22.5 -22.5v -18a 22.5 22.5, 0, 0, 0, -22.5 -22.5h -18a 22.5 22.5, 0, 0, 0, -22.5 22.5M 23.5 244h 18a 13.5 13.5, 0, 0, 1, 13.5 13.5v 18a 13.5 13.5, 0, 0, 1, -13.5 13.5h -18a 13.5 13.5, 0, 0, 1, -13.5 -13.5v -18a 13.5 13.5, 0, 0, 1, 13.5 -13.5" transform="rotate(-90,32.5,266.5)"/></g><g class="corners-dot-color-0-1"><circle cx="32.5" cy="266.5" r="13.5" transform="rotate(-90,32.5,266.5)"/></g><svg id="faceBookLogotype" xmlns="http://www.w3.org/2000/svg" viewBox="0 0 51 51" x="111" y="111" width="77px" height="77px"><path fill="#425893" d="M50.501 25.154C50.501 11.262 39.307 0 25.5 0 11.692 0 .498 11.262.498 25.154c0 12.555 9.143 22.96 21.095 24.848V32.425h-6.348v-7.271h6.348v-5.542c0-6.304 3.733-9.786 9.444-9.786 2.735 0 5.596.491 5.596.491v6.19H33.48c-3.105 0-4.074 1.94-4.074 3.928v4.719h6.934l-1.109 7.27h-5.825v17.578c11.952-1.887 21.095-12.293 21.095-24.848Z"/></svg></svg></g></svg></svg>