<svg xmlns="http://www.w3.org/2000/svg" xmlns:xlink="http://www.w3.org/1999/xlink" id="svgQrWrapper" viewBox="0 0 300 300" style="width:100%;height:100%;background-color:#fff"><svg><g fill="none" transform="translate(9, 9)scale(0.95)"><svg width="300" height="300"><style>.corners-dot-color-0-0,.corners-dot-color-0-1,.corners-dot-color-1-0,.corners-square-color-0-0,.corners-square-color-0-1,.corners-square-color-1-0,.dot-color{fill:#000}</style><g class="dot-color"><circle cx="5.5" cy="77.5" r="4.5" transform="rotate(0,5.5,77.5)"/><path d="M 1 100v 9h 4.5a 4.5 4.5, 0, 0, 0, 0 -9" transform="rotate(-90,5.5,104.5)"/><rect width="9" height="9" x="1" y="109" transform="rotate(0,5.5,113.5)"/><rect width="9" height="9" x="1" y="118" transform="rotate(0,5.5,122.5)"/><path d="M 1 127v 9h 9v -4.5a 4.5 4.5, 0, 0, 0, -4.5 -4.5" transform="rotate(180,5.5,131.5)"/><path d="M 1 154v 9h 4.5a 4.5 4.5, 0, 0, 0, 0 -9" transform="rotate(180,5.5,158.5)"/><path d="M 1 172v 9h 4.5a 4.5 4.5, 0, 0, 0, 0 -9" transform="rotate(180,5.5,176.5)"/><path d="M 1 190v 9h 9v -4.5a 4.5 4.5, 0, 0, 0, -4.5 -4.5" transform="rotate(-90,5.5,194.5)"/><path d="M 1 199v 9h 4.5a 4.5 4.5, 0, 0, 0, 0 -9" transform="rotate(90,5.5,203.5)"/><path d="M 1 217v 9h 4.5a 4.5 4.5, 0, 0, 0, 0 -9" transform="rotate(180,5.5,221.5)"/><path d="M 10 82v 9h 4.5a 4.5 4.5, 0, 0, 0, 0 -9" transform="rotate(180,14.5,86.5)"/><rect width="9" height="9" x="10" y="109" transform="rotate(0,14.5,113.5)"/><path d="M 10 127v 9h 4.5a 4.5 4.5, 0, 0, 0, 0 -9" transform="rotate(0,14.5,131.5)"/><path d="M 10 145v 9h 4.5a 4.5 4.5, 0, 0, 0, 0 -9" transform="rotate(-90,14.5,149.5)"/><path d="M 10 154v 9h 9v -4.5a 4.5 4.5, 0, 0, 0, -4.5 -4.5" transform="rotate(90,14.5,158.5)"/><path d="M 10 172v 9h 4.5a 4.5 4.5, 0, 0, 0, 0 -9" transform="rotate(0,14.5,176.5)"/><rect width="9" height="9" x="10" y="190" transform="rotate(0,14.5,194.5)"/><rect width="9" height="9" x="10" y="217" transform="rotate(0,14.5,221.5)"/><path d="M 19 73v 9h 4.5a 4.5 4.5, 0, 0, 0, 0 -9" transform="rotate(-90,23.5,77.5)"/><rect width="9" height="9" x="19" y="82" transform="rotate(0,23.5,86.5)"/><path d="M 19 100v 9h 4.5a 4.5 4.5, 0, 0, 0, 0 -9" transform="rotate(-90,23.5,104.5)"/><rect width="9" height="9" x="19" y="109" transform="rotate(0,23.5,113.5)"/><circle cx="23.5" cy="140.5" r="4.5" transform="rotate(0,23.5,140.5)"/><path d="M 19 181v 9h 9v -4.5a 4.5 4.5, 0, 0, 0, -4.5 -4.5" transform="rotate(-90,23.5,185.5)"/><rect width="9" height="9" x="19" y="190" transform="rotate(0,23.5,194.5)"/><rect width="9" height="9" x="19" y="199" transform="rotate(0,23.5,203.5)"/><rect width="9" height="9" x="19" y="208" transform="rotate(0,23.5,212.5)"/><path d="M 19 217v 9h 9v -4.5a 4.5 4.5, 0, 0, 0, -4.5 -4.5" transform="rotate(90,23.5,221.5)"/><rect width="9" height="9" x="28" y="82" transform="rotate(0,32.5,86.5)"/><path d="M 28 109v 9h 9v -4.5a 4.5 4.5, 0, 0, 0, -4.5 -4.5" transform="rotate(0,32.5,113.5)"/><rect width="9" height="9" x="28" y="118" transform="rotate(0,32.5,122.5)"/><path d="M 28 127v 9h 9v -4.5a 4.5 4.5, 0, 0, 0, -4.5 -4.5" transform="rotate(180,32.5,131.5)"/><path d="M 28 181v 9h 9v -4.5a 4.5 4.5, 0, 0, 0, -4.5 -4.5" transform="rotate(0,32.5,185.5)"/><rect width="9" height="9" x="28" y="190" transform="rotate(0,32.5,194.5)"/><path d="M 28 208v 9h 4.5a 4.5 4.5, 0, 0, 0, 0 -9" transform="rotate(0,32.5,212.5)"/><path d="M 37 73v 9h 4.5a 4.5 4.5, 0, 0, 0, 0 -9" transform="rotate(-90,41.5,77.5)"/><path d="M 37 82v 9h 9v -4.5a 4.5 4.5, 0, 0, 0, -4.5 -4.5" transform="rotate(90,41.5,86.5)"/><path d="M 37 127v 9h 4.5a 4.5 4.5, 0, 0, 0, 0 -9" transform="rotate(0,41.5,131.5)"/><path d="M 37 145v 9h 9v -4.5a 4.5 4.5, 0, 0, 0, -4.5 -4.5" transform="rotate(-90,41.5,149.5)"/><path d="M 37 154v 9h 9v -4.5a 4.5 4.5, 0, 0, 0, -4.5 -4.5" transform="rotate(180,41.5,158.5)"/><path d="M 37 172v 9h 4.5a 4.5 4.5, 0, 0, 0, 0 -9" transform="rotate(180,41.5,176.5)"/><path d="M 37 190v 9h 4.5a 4.5 4.5, 0, 0, 0, 0 -9" transform="rotate(0,41.5,194.5)"/><circle cx="41.5" cy="221.5" r="4.5" transform="rotate(0,41.5,221.5)"/><path d="M 46 91v 9h 4.5a 4.5 4.5, 0, 0, 0, 0 -9" transform="rotate(180,50.5,95.5)"/><path d="M 46 109v 9h 9v -4.5a 4.5 4.5, 0, 0, 0, -4.5 -4.5" transform="rotate(-90,50.5,113.5)"/><path d="M 46 118v 9h 4.5a 4.5 4.5, 0, 0, 0, 0 -9" transform="rotate(90,50.5,122.5)"/><path d="M 46 136v 9h 4.5a 4.5 4.5, 0, 0, 0, 0 -9" transform="rotate(-90,50.5,140.5)"/><rect width="9" height="9" x="46" y="145" transform="rotate(0,50.5,149.5)"/><rect width="9" height="9" x="46" y="154" transform="rotate(0,50.5,158.5)"/><rect width="9" height="9" x="46" y="163" transform="rotate(0,50.5,167.5)"/><path d="M 46 172v 9h 9v -4.5a 4.5 4.5, 0, 0, 0, -4.5 -4.5" transform="rotate(90,50.5,176.5)"/><path d="M 55 73v 9h 4.5a 4.5 4.5, 0, 0, 0, 0 -9" transform="rotate(180,59.5,77.5)"/><path d="M 55 91v 9h 4.5a 4.5 4.5, 0, 0, 0, 0 -9" transform="rotate(0,59.5,95.5)"/><path d="M 55 109v 9h 4.5a 4.5 4.5, 0, 0, 0, 0 -9" transform="rotate(0,59.5,113.5)"/><circle cx="59.5" cy="131.5" r="4.5" transform="rotate(0,59.5,131.5)"/><path d="M 55 145v 9h 4.5a 4.5 4.5, 0, 0, 0, 0 -9" transform="rotate(0,59.5,149.5)"/><rect width="9" height="9" x="55" y="163" transform="rotate(0,59.5,167.5)"/><circle cx="59.5" cy="185.5" r="4.5" transform="rotate(0,59.5,185.5)"/><path d="M 55 199v 9h 4.5a 4.5 4.5, 0, 0, 0, 0 -9" transform="rotate(180,59.5,203.5)"/><path d="M 55 217v 9h 4.5a 4.5 4.5, 0, 0, 0, 0 -9" transform="rotate(180,59.5,221.5)"/><path d="M 64 73v 9h 9v -4.5a 4.5 4.5, 0, 0, 0, -4.5 -4.5" transform="rotate(0,68.5,77.5)"/><path d="M 64 82v 9h 9v -4.5a 4.5 4.5, 0, 0, 0, -4.5 -4.5" transform="rotate(180,68.5,86.5)"/><path d="M 64 100v 9h 4.5a 4.5 4.5, 0, 0, 0, 0 -9" transform="rotate(180,68.5,104.5)"/><circle cx="68.5" cy="122.5" r="4.5" transform="rotate(0,68.5,122.5)"/><rect width="9" height="9" x="64" y="163" transform="rotate(0,68.5,167.5)"/><path d="M 64 172v 9h 4.5a 4.5 4.5, 0, 0, 0, 0 -9" transform="rotate(90,68.5,176.5)"/><rect width="9" height="9" x="64" y="199" transform="rotate(0,68.5,203.5)"/><path d="M 64 217v 9h 4.5a 4.5 4.5, 0, 0, 0, 0 -9" transform="rotate(0,68.5,221.5)"/><path d="M 73 46v 9h 9v -4.5a 4.5 4.5, 0, 0, 0, -4.5 -4.5" transform="rotate(-90,77.5,50.5)"/><path d="M 73 55v 9h 4.5a 4.5 4.5, 0, 0, 0, 0 -9" transform="rotate(90,77.5,59.5)"/><rect width="9" height="9" x="73" y="82" transform="rotate(0,77.5,86.5)"/><rect width="9" height="9" x="73" y="100" transform="rotate(0,77.5,104.5)"/><path d="M 73 154v 9h 9v -4.5a 4.5 4.5, 0, 0, 0, -4.5 -4.5" transform="rotate(-90,77.5,158.5)"/><rect width="9" height="9" x="73" y="163" transform="rotate(0,77.5,167.5)"/><circle cx="77.5" cy="185.5" r="4.5" transform="rotate(0,77.5,185.5)"/><path d="M 73 199v 9h 4.5a 4.5 4.5, 0, 0, 0, 0 -9" transform="rotate(0,77.5,203.5)"/><circle cx="77.5" cy="239.5" r="4.5" transform="rotate(0,77.5,239.5)"/><path d="M 73 253v 9h 4.5a 4.5 4.5, 0, 0, 0, 0 -9" transform="rotate(180,77.5,257.5)"/><circle cx="77.5" cy="275.5" r="4.5" transform="rotate(0,77.5,275.5)"/><circle cx="77.5" cy="293.5" r="4.5" transform="rotate(0,77.5,293.5)"/><path d="M 82 37v 9h 4.5a 4.5 4.5, 0, 0, 0, 0 -9" transform="rotate(-90,86.5,41.5)"/><path d="M 82 46v 9h 9v -4.5a 4.5 4.5, 0, 0, 0, -4.5 -4.5" transform="rotate(90,86.5,50.5)"/><path d="M 82 73v 9h 9v -4.5a 4.5 4.5, 0, 0, 0, -4.5 -4.5" transform="rotate(-90,86.5,77.5)"/><rect width="9" height="9" x="82" y="82" transform="rotate(0,86.5,86.5)"/><rect width="9" height="9" x="82" y="91" transform="rotate(0,86.5,95.5)"/><rect width="9" height="9" x="82" y="100" transform="rotate(0,86.5,104.5)"/><rect width="9" height="9" x="82" y="109" transform="rotate(0,86.5,113.5)"/><path d="M 82 118v 9h 4.5a 4.5 4.5, 0, 0, 0, 0 -9" transform="rotate(90,86.5,122.5)"/><path d="M 82 136v 9h 4.5a 4.5 4.5, 0, 0, 0, 0 -9" transform="rotate(-90,86.5,140.5)"/><rect width="9" height="9" x="82" y="145" transform="rotate(0,86.5,149.5)"/><rect width="9" height="9" x="82" y="154" transform="rotate(0,86.5,158.5)"/><rect width="9" height="9" x="82" y="163" transform="rotate(0,86.5,167.5)"/><path d="M 82 172v 9h 9v -4.5a 4.5 4.5, 0, 0, 0, -4.5 -4.5" transform="rotate(180,86.5,176.5)"/><circle cx="86.5" cy="194.5" r="4.5" transform="rotate(0,86.5,194.5)"/><circle cx="86.5" cy="212.5" r="4.5" transform="rotate(0,86.5,212.5)"/><circle cx="86.5" cy="230.5" r="4.5" transform="rotate(0,86.5,230.5)"/><path d="M 82 244v 9h 9v -4.5a 4.5 4.5, 0, 0, 0, -4.5 -4.5" transform="rotate(-90,86.5,248.5)"/><rect width="9" height="9" x="82" y="253" transform="rotate(0,86.5,257.5)"/><path d="M 82 262v 9h 9v -4.5a 4.5 4.5, 0, 0, 0, -4.5 -4.5" transform="rotate(180,86.5,266.5)"/><path d="M 91 10v 9h 4.5a 4.5 4.5, 0, 0, 0, 0 -9" transform="rotate(180,95.5,14.5)"/><circle cx="95.5" cy="32.5" r="4.5" transform="rotate(0,95.5,32.5)"/><path d="M 91 55v 9h 4.5a 4.5 4.5, 0, 0, 0, 0 -9" transform="rotate(-90,95.5,59.5)"/><rect width="9" height="9" x="91" y="64" transform="rotate(0,95.5,68.5)"/><path d="M 91 73v 9h 9v -4.5a 4.5 4.5, 0, 0, 0, -4.5 -4.5" transform="rotate(90,95.5,77.5)"/><rect width="9" height="9" x="91" y="100" transform="rotate(0,95.5,104.5)"/><path d="M 91 127v 9h 4.5a 4.5 4.5, 0, 0, 0, 0 -9" transform="rotate(180,95.5,131.5)"/><path d="M 91 154v 9h 9v -4.5a 4.5 4.5, 0, 0, 0, -4.5 -4.5" transform="rotate(0,95.5,158.5)"/><rect width="9" height="9" x="91" y="163" transform="rotate(0,95.5,167.5)"/><path d="M 91 172v 9h 9v -4.5a 4.5 4.5, 0, 0, 0, -4.5 -4.5" transform="rotate(90,95.5,176.5)"/><circle cx="95.5" cy="203.5" r="4.5" transform="rotate(0,95.5,203.5)"/><rect width="9" height="9" x="91" y="244" transform="rotate(0,95.5,248.5)"/><rect width="9" height="9" x="91" y="262" transform="rotate(0,95.5,266.5)"/><path d="M 91 280v 9h 4.5a 4.5 4.5, 0, 0, 0, 0 -9" transform="rotate(180,95.5,284.5)"/><path d="M 100 1v 9h 9v -4.5a 4.5 4.5, 0, 0, 0, -4.5 -4.5" transform="rotate(-90,104.5,5.5)"/><path d="M 100 10v 9h 9v -4.5a 4.5 4.5, 0, 0, 0, -4.5 -4.5" transform="rotate(90,104.5,14.5)"/><path d="M 100 37v 9h 9v -4.5a 4.5 4.5, 0, 0, 0, -4.5 -4.5" transform="rotate(-90,104.5,41.5)"/><path d="M 100 46v 9h 9v -4.5a 4.5 4.5, 0, 0, 0, -4.5 -4.5" transform="rotate(180,104.5,50.5)"/><path d="M 100 64v 9h 4.5a 4.5 4.5, 0, 0, 0, 0 -9" transform="rotate(0,104.5,68.5)"/><path d="M 100 82v 9h 4.5a 4.5 4.5, 0, 0, 0, 0 -9" transform="rotate(180,104.5,86.5)"/><rect width="9" height="9" x="100" y="100" transform="rotate(0,104.5,104.5)"/><path d="M 100 118v 9h 4.5a 4.5 4.5, 0, 0, 0, 0 -9" transform="rotate(-90,104.5,122.5)"/><path d="M 100 127v 9h 9v -4.5a 4.5 4.5, 0, 0, 0, -4.5 -4.5" transform="rotate(90,104.5,131.5)"/><circle cx="104.5" cy="149.5" r="4.5" transform="rotate(0,104.5,149.5)"/><path d="M 100 190v 9h 4.5a 4.5 4.5, 0, 0, 0, 0 -9" transform="rotate(180,104.5,194.5)"/><path d="M 100 217v 9h 9v -4.5a 4.5 4.5, 0, 0, 0, -4.5 -4.5" transform="rotate(-90,104.5,221.5)"/><path d="M 100 226v 9h 4.5a 4.5 4.5, 0, 0, 0, 0 -9" transform="rotate(90,104.5,230.5)"/><rect width="9" height="9" x="100" y="244" transform="rotate(0,104.5,248.5)"/><path d="M 100 262v 9h 9v -4.5a 4.5 4.5, 0, 0, 0, -4.5 -4.5" transform="rotate(0,104.5,266.5)"/><rect width="9" height="9" x="100" y="271" transform="rotate(0,104.5,275.5)"/><path d="M 100 280v 9h 9v -4.5a 4.5 4.5, 0, 0, 0, -4.5 -4.5" transform="rotate(90,104.5,284.5)"/><rect width="9" height="9" x="109" y="1" transform="rotate(0,113.5,5.5)"/><path d="M 109 19v 9h 9v -4.5a 4.5 4.5, 0, 0, 0, -4.5 -4.5" transform="rotate(-90,113.5,23.5)"/><rect width="9" height="9" x="109" y="28" transform="rotate(0,113.5,32.5)"/><rect width="9" height="9" x="109" y="37" transform="rotate(0,113.5,41.5)"/><rect width="9" height="9" x="109" y="46" transform="rotate(0,113.5,50.5)"/><path d="M 109 55v 9h 4.5a 4.5 4.5, 0, 0, 0, 0 -9" transform="rotate(90,113.5,59.5)"/><path d="M 109 82v 9h 4.5a 4.5 4.5, 0, 0, 0, 0 -9" transform="rotate(0,113.5,86.5)"/><path d="M 109 100v 9h 4.5a 4.5 4.5, 0, 0, 0, 0 -9" transform="rotate(0,113.5,104.5)"/><rect width="9" height="9" x="109" y="190" transform="rotate(0,113.5,194.5)"/><path d="M 109 217v 9h 4.5a 4.5 4.5, 0, 0, 0, 0 -9" transform="rotate(0,113.5,221.5)"/><path d="M 109 235v 9h 9v -4.5a 4.5 4.5, 0, 0, 0, -4.5 -4.5" transform="rotate(-90,113.5,239.5)"/><rect width="9" height="9" x="109" y="244" transform="rotate(0,113.5,248.5)"/><path d="M 109 253v 9h 9v -4.5a 4.5 4.5, 0, 0, 0, -4.5 -4.5" transform="rotate(180,113.5,257.5)"/><path d="M 109 271v 9h 4.5a 4.5 4.5, 0, 0, 0, 0 -9" transform="rotate(0,113.5,275.5)"/><rect width="9" height="9" x="118" y="1" transform="rotate(0,122.5,5.5)"/><path d="M 118 19v 9h 9v -4.5a 4.5 4.5, 0, 0, 0, -4.5 -4.5" transform="rotate(0,122.5,23.5)"/><rect width="9" height="9" x="118" y="28" transform="rotate(0,122.5,32.5)"/><rect width="9" height="9" x="118" y="37" transform="rotate(0,122.5,41.5)"/><circle cx="122.5" cy="68.5" r="4.5" transform="rotate(0,122.5,68.5)"/><path d="M 118 190v 9h 4.5a 4.5 4.5, 0, 0, 0, 0 -9" transform="rotate(0,122.5,194.5)"/><circle cx="122.5" cy="212.5" r="4.5" transform="rotate(0,122.5,212.5)"/><path d="M 118 226v 9h 4.5a 4.5 4.5, 0, 0, 0, 0 -9" transform="rotate(-90,122.5,230.5)"/><rect width="9" height="9" x="118" y="235" transform="rotate(0,122.5,239.5)"/><rect width="9" height="9" x="118" y="244" transform="rotate(0,122.5,248.5)"/><rect width="9" height="9" x="118" y="253" transform="rotate(0,122.5,257.5)"/><path d="M 118 262v 9h 4.5a 4.5 4.5, 0, 0, 0, 0 -9" transform="rotate(90,122.5,266.5)"/><circle cx="122.5" cy="293.5" r="4.5" transform="rotate(0,122.5,293.5)"/><path d="M 127 1v 9h 4.5a 4.5 4.5, 0, 0, 0, 0 -9" transform="rotate(0,131.5,5.5)"/><path d="M 127 28v 9h 9v -4.5a 4.5 4.5, 0, 0, 0, -4.5 -4.5" transform="rotate(0,131.5,32.5)"/><rect width="9" height="9" x="127" y="37" transform="rotate(0,131.5,41.5)"/><rect width="9" height="9" x="127" y="46" transform="rotate(0,131.5,50.5)"/><path d="M 127 55v 9h 4.5a 4.5 4.5, 0, 0, 0, 0 -9" transform="rotate(90,131.5,59.5)"/><circle cx="131.5" cy="86.5" r="4.5" transform="rotate(0,131.5,86.5)"/><circle cx="131.5" cy="203.5" r="4.5" transform="rotate(0,131.5,203.5)"/><circle cx="131.5" cy="221.5" r="4.5" transform="rotate(0,131.5,221.5)"/><rect width="9" height="9" x="127" y="235" transform="rotate(0,131.5,239.5)"/><rect width="9" height="9" x="127" y="244" transform="rotate(0,131.5,248.5)"/><path d="M 127 253v 9h 9v -4.5a 4.5 4.5, 0, 0, 0, -4.5 -4.5" transform="rotate(90,131.5,257.5)"/><circle cx="131.5" cy="284.5" r="4.5" transform="rotate(0,131.5,284.5)"/><path d="M 136 46v 9h 4.5a 4.5 4.5, 0, 0, 0, 0 -9" transform="rotate(0,140.5,50.5)"/><path d="M 136 64v 9h 9v -4.5a 4.5 4.5, 0, 0, 0, -4.5 -4.5" transform="rotate(-90,140.5,68.5)"/><path d="M 136 73v 9h 4.5a 4.5 4.5, 0, 0, 0, 0 -9" transform="rotate(90,140.5,77.5)"/><path d="M 136 208v 9h 4.5a 4.5 4.5, 0, 0, 0, 0 -9" transform="rotate(180,140.5,212.5)"/><path d="M 136 235v 9h 9v -4.5a 4.5 4.5, 0, 0, 0, -4.5 -4.5" transform="rotate(0,140.5,239.5)"/><path d="M 136 244v 9h 9v -4.5a 4.5 4.5, 0, 0, 0, -4.5 -4.5" transform="rotate(90,140.5,248.5)"/><circle cx="140.5" cy="266.5" r="4.5" transform="rotate(0,140.5,266.5)"/><path d="M 145 1v 9h 4.5a 4.5 4.5, 0, 0, 0, 0 -9" transform="rotate(180,149.5,5.5)"/><path d="M 145 19v 9h 4.5a 4.5 4.5, 0, 0, 0, 0 -9" transform="rotate(180,149.5,23.5)"/><path d="M 145 55v 9h 4.5a 4.5 4.5, 0, 0, 0, 0 -9" transform="rotate(-90,149.5,59.5)"/><path d="M 145 64v 9h 9v -4.5a 4.5 4.5, 0, 0, 0, -4.5 -4.5" transform="rotate(90,149.5,68.5)"/><circle cx="149.5" cy="86.5" r="4.5" transform="rotate(0,149.5,86.5)"/><circle cx="149.5" cy="104.5" r="4.5" transform="rotate(0,149.5,104.5)"/><rect width="9" height="9" x="145" y="208" transform="rotate(0,149.5,212.5)"/><circle cx="149.5" cy="230.5" r="4.5" transform="rotate(0,149.5,230.5)"/><circle cx="149.5" cy="275.5" r="4.5" transform="rotate(0,149.5,275.5)"/><circle cx="149.5" cy="293.5" r="4.5" transform="rotate(0,149.5,293.5)"/><path d="M 154 1v 9h 9v -4.5a 4.5 4.5, 0, 0, 0, -4.5 -4.5" transform="rotate(0,158.5,5.5)"/><rect width="9" height="9" x="154" y="10" transform="rotate(0,158.5,14.5)"/><rect width="9" height="9" x="154" y="19" transform="rotate(0,158.5,23.5)"/><circle cx="158.5" cy="50.5" r="4.5" transform="rotate(0,158.5,50.5)"/><circle cx="158.5" cy="77.5" r="4.5" transform="rotate(0,158.5,77.5)"/><path d="M 154 91v 9h 4.5a 4.5 4.5, 0, 0, 0, 0 -9" transform="rotate(180,158.5,95.5)"/><circle cx="158.5" cy="194.5" r="4.5" transform="rotate(0,158.5,194.5)"/><rect width="9" height="9" x="154" y="208" transform="rotate(0,158.5,212.5)"/><path d="M 154 217v 9h 4.5a 4.5 4.5, 0, 0, 0, 0 -9" transform="rotate(90,158.5,221.5)"/><circle cx="158.5" cy="248.5" r="4.5" transform="rotate(0,158.5,248.5)"/><rect width="9" height="9" x="163" y="19" transform="rotate(0,167.5,23.5)"/><path d="M 163 28v 9h 4.5a 4.5 4.5, 0, 0, 0, 0 -9" transform="rotate(90,167.5,32.5)"/><path d="M 163 55v 9h 4.5a 4.5 4.5, 0, 0, 0, 0 -9" transform="rotate(-90,167.5,59.5)"/><path d="M 163 64v 9h 9v -4.5a 4.5 4.5, 0, 0, 0, -4.5 -4.5" transform="rotate(180,167.5,68.5)"/><path d="M 163 82v 9h 9v -4.5a 4.5 4.5, 0, 0, 0, -4.5 -4.5" transform="rotate(-90,167.5,86.5)"/><path d="M 163 91v 9h 9v -4.5a 4.5 4.5, 0, 0, 0, -4.5 -4.5" transform="rotate(90,167.5,95.5)"/><rect width="9" height="9" x="163" y="208" transform="rotate(0,167.5,212.5)"/><path d="M 163 226v 9h 9v -4.5a 4.5 4.5, 0, 0, 0, -4.5 -4.5" transform="rotate(-90,167.5,230.5)"/><path d="M 163 235v 9h 4.5a 4.5 4.5, 0, 0, 0, 0 -9" transform="rotate(90,167.5,239.5)"/><path d="M 163 262v 9h 9v -4.5a 4.5 4.5, 0, 0, 0, -4.5 -4.5" transform="rotate(-90,167.5,266.5)"/><rect width="9" height="9" x="163" y="271" transform="rotate(0,167.5,275.5)"/><rect width="9" height="9" x="163" y="280" transform="rotate(0,167.5,284.5)"/><path d="M 163 289v 9h 9v -4.5a 4.5 4.5, 0, 0, 0, -4.5 -4.5" transform="rotate(180,167.5,293.5)"/><circle cx="176.5" cy="5.5" r="4.5" transform="rotate(0,176.5,5.5)"/><rect width="9" height="9" x="172" y="19" transform="rotate(0,176.5,23.5)"/><circle cx="176.5" cy="41.5" r="4.5" transform="rotate(0,176.5,41.5)"/><path d="M 172 64v 9h 4.5a 4.5 4.5, 0, 0, 0, 0 -9" transform="rotate(0,176.5,68.5)"/><path d="M 172 82v 9h 4.5a 4.5 4.5, 0, 0, 0, 0 -9" transform="rotate(0,176.5,86.5)"/><path d="M 172 199v 9h 9v -4.5a 4.5 4.5, 0, 0, 0, -4.5 -4.5" transform="rotate(-90,176.5,203.5)"/><rect width="9" height="9" x="172" y="208" transform="rotate(0,176.5,212.5)"/><rect width="9" height="9" x="172" y="217" transform="rotate(0,176.5,221.5)"/><path d="M 172 226v 9h 9v -4.5a 4.5 4.5, 0, 0, 0, -4.5 -4.5" transform="rotate(90,176.5,230.5)"/><circle cx="176.5" cy="248.5" r="4.5" transform="rotate(0,176.5,248.5)"/><rect width="9" height="9" x="172" y="262" transform="rotate(0,176.5,266.5)"/><rect width="9" height="9" x="172" y="271" transform="rotate(0,176.5,275.5)"/><rect width="9" height="9" x="172" y="280" transform="rotate(0,176.5,284.5)"/><path d="M 172 289v 9h 9v -4.5a 4.5 4.5, 0, 0, 0, -4.5 -4.5" transform="rotate(90,176.5,293.5)"/><path d="M 181 10v 9h 4.5a 4.5 4.5, 0, 0, 0, 0 -9" transform="rotate(-90,185.5,14.5)"/><rect width="9" height="9" x="181" y="19" transform="rotate(0,185.5,23.5)"/><circle cx="185.5" cy="59.5" r="4.5" transform="rotate(0,185.5,59.5)"/><circle cx="185.5" cy="104.5" r="4.5" transform="rotate(0,185.5,104.5)"/><rect width="9" height="9" x="181" y="199" transform="rotate(0,185.5,203.5)"/><path d="M 181 217v 9h 4.5a 4.5 4.5, 0, 0, 0, 0 -9" transform="rotate(0,185.5,221.5)"/><path d="M 181 253v 9h 9v -4.5a 4.5 4.5, 0, 0, 0, -4.5 -4.5" transform="rotate(-90,185.5,257.5)"/><rect width="9" height="9" x="181" y="262" transform="rotate(0,185.5,266.5)"/><path d="M 190 1v 9h 4.5a 4.5 4.5, 0, 0, 0, 0 -9" transform="rotate(180,194.5,5.5)"/><path d="M 190 19v 9h 9v -4.5a 4.5 4.5, 0, 0, 0, -4.5 -4.5" transform="rotate(0,194.5,23.5)"/><rect width="9" height="9" x="190" y="28" transform="rotate(0,194.5,32.5)"/><path d="M 190 37v 9h 9v -4.5a 4.5 4.5, 0, 0, 0, -4.5 -4.5" transform="rotate(180,194.5,41.5)"/><path d="M 190 73v 9h 4.5a 4.5 4.5, 0, 0, 0, 0 -9" transform="rotate(180,194.5,77.5)"/><path d="M 190 91v 9h 4.5a 4.5 4.5, 0, 0, 0, 0 -9" transform="rotate(180,194.5,95.5)"/><path d="M 190 136v 9h 4.5a 4.5 4.5, 0, 0, 0, 0 -9" transform="rotate(180,194.5,140.5)"/><circle cx="194.5" cy="176.5" r="4.5" transform="rotate(0,194.5,176.5)"/><rect width="9" height="9" x="190" y="199" transform="rotate(0,194.5,203.5)"/><path d="M 190 226v 9h 4.5a 4.5 4.5, 0, 0, 0, 0 -9" transform="rotate(-90,194.5,230.5)"/><rect width="9" height="9" x="190" y="235" transform="rotate(0,194.5,239.5)"/><rect width="9" height="9" x="190" y="244" transform="rotate(0,194.5,248.5)"/><rect width="9" height="9" x="190" y="253" transform="rotate(0,194.5,257.5)"/><rect width="9" height="9" x="190" y="262" transform="rotate(0,194.5,266.5)"/><path d="M 190 271v 9h 9v -4.5a 4.5 4.5, 0, 0, 0, -4.5 -4.5" transform="rotate(180,194.5,275.5)"/><rect width="9" height="9" x="199" y="1" transform="rotate(0,203.5,5.5)"/><rect width="9" height="9" x="199" y="37" transform="rotate(0,203.5,41.5)"/><circle cx="203.5" cy="59.5" r="4.5" transform="rotate(0,203.5,59.5)"/><rect width="9" height="9" x="199" y="73" transform="rotate(0,203.5,77.5)"/><rect width="9" height="9" x="199" y="82" transform="rotate(0,203.5,86.5)"/><rect width="9" height="9" x="199" y="91" transform="rotate(0,203.5,95.5)"/><rect width="9" height="9" x="199" y="100" transform="rotate(0,203.5,104.5)"/><rect width="9" height="9" x="199" y="109" transform="rotate(0,203.5,113.5)"/><rect width="9" height="9" x="199" y="118" transform="rotate(0,203.5,122.5)"/><rect width="9" height="9" x="199" y="127" transform="rotate(0,203.5,131.5)"/><rect width="9" height="9" x="199" y="136" transform="rotate(0,203.5,140.5)"/><rect width="9" height="9" x="199" y="145" transform="rotate(0,203.5,149.5)"/><path d="M 199 154v 9h 9v -4.5a 4.5 4.5, 0, 0, 0, -4.5 -4.5" transform="rotate(180,203.5,158.5)"/><rect width="9" height="9" x="199" y="199" transform="rotate(0,203.5,203.5)"/><rect width="9" height="9" x="199" y="208" transform="rotate(0,203.5,212.5)"/><path d="M 199 217v 9h 4.5a 4.5 4.5, 0, 0, 0, 0 -9" transform="rotate(90,203.5,221.5)"/><path d="M 199 262v 9h 9v -4.5a 4.5 4.5, 0, 0, 0, -4.5 -4.5" transform="rotate(0,203.5,266.5)"/><rect width="9" height="9" x="199" y="271" transform="rotate(0,203.5,275.5)"/><rect width="9" height="9" x="208" y="1" transform="rotate(0,212.5,5.5)"/><path d="M 208 28v 9h 4.5a 4.5 4.5, 0, 0, 0, 0 -9" transform="rotate(-90,212.5,32.5)"/><path d="M 208 37v 9h 9v -4.5a 4.5 4.5, 0, 0, 0, -4.5 -4.5" transform="rotate(90,212.5,41.5)"/><path d="M 208 64v 9h 4.5a 4.5 4.5, 0, 0, 0, 0 -9" transform="rotate(-90,212.5,68.5)"/><path d="M 208 73v 9h 9v -4.5a 4.5 4.5, 0, 0, 0, -4.5 -4.5" transform="rotate(90,212.5,77.5)"/><path d="M 208 91v 9h 4.5a 4.5 4.5, 0, 0, 0, 0 -9" transform="rotate(0,212.5,95.5)"/><rect width="9" height="9" x="208" y="118" transform="rotate(0,212.5,122.5)"/><rect width="9" height="9" x="208" y="127" transform="rotate(0,212.5,131.5)"/><rect width="9" height="9" x="208" y="136" transform="rotate(0,212.5,140.5)"/><rect width="9" height="9" x="208" y="145" transform="rotate(0,212.5,149.5)"/><path d="M 208 154v 9h 9v -4.5a 4.5 4.5, 0, 0, 0, -4.5 -4.5" transform="rotate(90,212.5,158.5)"/><path d="M 208 199v 9h 9v -4.5a 4.5 4.5, 0, 0, 0, -4.5 -4.5" transform="rotate(0,212.5,203.5)"/><path d="M 208 208v 9h 9v -4.5a 4.5 4.5, 0, 0, 0, -4.5 -4.5" transform="rotate(90,212.5,212.5)"/><path d="M 208 244v 9h 9v -4.5a 4.5 4.5, 0, 0, 0, -4.5 -4.5" transform="rotate(-90,212.5,248.5)"/><path d="M 208 253v 9h 9v -4.5a 4.5 4.5, 0, 0, 0, -4.5 -4.5" transform="rotate(180,212.5,257.5)"/><path d="M 208 271v 9h 9v -4.5a 4.5 4.5, 0, 0, 0, -4.5 -4.5" transform="rotate(0,212.5,275.5)"/><path d="M 208 280v 9h 4.5a 4.5 4.5, 0, 0, 0, 0 -9" transform="rotate(90,212.5,284.5)"/><path d="M 217 1v 9h 9v -4.5a 4.5 4.5, 0, 0, 0, -4.5 -4.5" transform="rotate(0,221.5,5.5)"/><path d="M 217 10v 9h 4.5a 4.5 4.5, 0, 0, 0, 0 -9" transform="rotate(90,221.5,14.5)"/><circle cx="221.5" cy="59.5" r="4.5" transform="rotate(0,221.5,59.5)"/><path d="M 217 82v 9h 4.5a 4.5 4.5, 0, 0, 0, 0 -9" transform="rotate(180,221.5,86.5)"/><circle cx="221.5" cy="104.5" r="4.5" transform="rotate(0,221.5,104.5)"/><rect width="9" height="9" x="217" y="118" transform="rotate(0,221.5,122.5)"/><rect width="9" height="9" x="217" y="127" transform="rotate(0,221.5,131.5)"/><path d="M 217 136v 9h 9v -4.5a 4.5 4.5, 0, 0, 0, -4.5 -4.5" transform="rotate(90,221.5,140.5)"/><path d="M 217 181v 9h 4.5a 4.5 4.5, 0, 0, 0, 0 -9" transform="rotate(180,221.5,185.5)"/><path d="M 217 217v 9h 9v -4.5a 4.5 4.5, 0, 0, 0, -4.5 -4.5" transform="rotate(-90,221.5,221.5)"/><rect width="9" height="9" x="217" y="226" transform="rotate(0,221.5,230.5)"/><rect width="9" height="9" x="217" y="235" transform="rotate(0,221.5,239.5)"/><rect width="9" height="9" x="217" y="244" transform="rotate(0,221.5,248.5)"/><rect width="9" height="9" x="217" y="253" transform="rotate(0,221.5,257.5)"/><path d="M 217 262v 9h 4.5a 4.5 4.5, 0, 0, 0, 0 -9" transform="rotate(90,221.5,266.5)"/><path d="M 226 73v 9h 4.5a 4.5 4.5, 0, 0, 0, 0 -9" transform="rotate(-90,230.5,77.5)"/><path d="M 226 82v 9h 9v -4.5a 4.5 4.5, 0, 0, 0, -4.5 -4.5" transform="rotate(90,230.5,86.5)"/><rect width="9" height="9" x="226" y="118" transform="rotate(0,230.5,122.5)"/><path d="M 226 172v 9h 4.5a 4.5 4.5, 0, 0, 0, 0 -9" transform="rotate(-90,230.5,176.5)"/><path d="M 226 181v 9h 9v -4.5a 4.5 4.5, 0, 0, 0, -4.5 -4.5" transform="rotate(90,230.5,185.5)"/><path d="M 226 199v 9h 4.5a 4.5 4.5, 0, 0, 0, 0 -9" transform="rotate(-90,230.5,203.5)"/><rect width="9" height="9" x="226" y="208" transform="rotate(0,230.5,212.5)"/><rect width="9" height="9" x="226" y="217" transform="rotate(0,230.5,221.5)"/><rect width="9" height="9" x="226" y="253" transform="rotate(0,230.5,257.5)"/><path d="M 226 271v 9h 4.5a 4.5 4.5, 0, 0, 0, 0 -9" transform="rotate(180,230.5,275.5)"/><circle cx="230.5" cy="293.5" r="4.5" transform="rotate(0,230.5,293.5)"/><path d="M 235 118v 9h 4.5a 4.5 4.5, 0, 0, 0, 0 -9" transform="rotate(0,239.5,122.5)"/><circle cx="239.5" cy="149.5" r="4.5" transform="rotate(0,239.5,149.5)"/><circle cx="239.5" cy="167.5" r="4.5" transform="rotate(0,239.5,167.5)"/><circle cx="239.5" cy="194.5" r="4.5" transform="rotate(0,239.5,194.5)"/><rect width="9" height="9" x="235" y="217" transform="rotate(0,239.5,221.5)"/><circle cx="239.5" cy="239.5" r="4.5" transform="rotate(0,239.5,239.5)"/><rect width="9" height="9" x="235" y="253" transform="rotate(0,239.5,257.5)"/><rect width="9" height="9" x="235" y="262" transform="rotate(0,239.5,266.5)"/><rect width="9" height="9" x="235" y="271" transform="rotate(0,239.5,275.5)"/><path d="M 235 280v 9h 9v -4.5a 4.5 4.5, 0, 0, 0, -4.5 -4.5" transform="rotate(180,239.5,284.5)"/><path d="M 244 73v 9h 4.5a 4.5 4.5, 0, 0, 0, 0 -9" transform="rotate(-90,248.5,77.5)"/><path d="M 244 82v 9h 9v -4.5a 4.5 4.5, 0, 0, 0, -4.5 -4.5" transform="rotate(180,248.5,86.5)"/><circle cx="248.5" cy="104.5" r="4.5" transform="rotate(0,248.5,104.5)"/><circle cx="248.5" cy="158.5" r="4.5" transform="rotate(0,248.5,158.5)"/><path d="M 244 208v 9h 4.5a 4.5 4.5, 0, 0, 0, 0 -9" transform="rotate(-90,248.5,212.5)"/><rect width="9" height="9" x="244" y="217" transform="rotate(0,248.5,221.5)"/><rect width="9" height="9" x="244" y="253" transform="rotate(0,248.5,257.5)"/><rect width="9" height="9" x="244" y="262" transform="rotate(0,248.5,266.5)"/><rect width="9" height="9" x="244" y="271" transform="rotate(0,248.5,275.5)"/><rect width="9" height="9" x="244" y="280" transform="rotate(0,248.5,284.5)"/><path d="M 253 82v 9h 4.5a 4.5 4.5, 0, 0, 0, 0 -9" transform="rotate(0,257.5,86.5)"/><circle cx="257.5" cy="122.5" r="4.5" transform="rotate(0,257.5,122.5)"/><circle cx="257.5" cy="140.5" r="4.5" transform="rotate(0,257.5,140.5)"/><path d="M 253 163v 9h 9v -4.5a 4.5 4.5, 0, 0, 0, -4.5 -4.5" transform="rotate(-90,257.5,167.5)"/><path d="M 253 172v 9h 9v -4.5a 4.5 4.5, 0, 0, 0, -4.5 -4.5" transform="rotate(180,257.5,176.5)"/><path d="M 253 190v 9h 4.5a 4.5 4.5, 0, 0, 0, 0 -9" transform="rotate(180,257.5,194.5)"/><rect width="9" height="9" x="253" y="217" transform="rotate(0,257.5,221.5)"/><rect width="9" height="9" x="253" y="226" transform="rotate(0,257.5,230.5)"/><rect width="9" height="9" x="253" y="235" transform="rotate(0,257.5,239.5)"/><rect width="9" height="9" x="253" y="244" transform="rotate(0,257.5,248.5)"/><rect width="9" height="9" x="253" y="253" transform="rotate(0,257.5,257.5)"/><path d="M 253 262v 9h 9v -4.5a 4.5 4.5, 0, 0, 0, -4.5 -4.5" transform="rotate(90,257.5,266.5)"/><rect width="9" height="9" x="253" y="280" transform="rotate(0,257.5,284.5)"/><path d="M 253 289v 9h 4.5a 4.5 4.5, 0, 0, 0, 0 -9" transform="rotate(90,257.5,293.5)"/><path d="M 262 91v 9h 9v -4.5a 4.5 4.5, 0, 0, 0, -4.5 -4.5" transform="rotate(-90,266.5,95.5)"/><path d="M 262 100v 9h 9v -4.5a 4.5 4.5, 0, 0, 0, -4.5 -4.5" transform="rotate(180,266.5,104.5)"/><path d="M 262 145v 9h 9v -4.5a 4.5 4.5, 0, 0, 0, -4.5 -4.5" transform="rotate(-90,266.5,149.5)"/><rect width="9" height="9" x="262" y="154" transform="rotate(0,266.5,158.5)"/><rect width="9" height="9" x="262" y="163" transform="rotate(0,266.5,167.5)"/><path d="M 262 172v 9h 9v -4.5a 4.5 4.5, 0, 0, 0, -4.5 -4.5" transform="rotate(90,266.5,176.5)"/><path d="M 262 190v 9h 9v -4.5a 4.5 4.5, 0, 0, 0, -4.5 -4.5" transform="rotate(0,266.5,194.5)"/><rect width="9" height="9" x="262" y="199" transform="rotate(0,266.5,203.5)"/><rect width="9" height="9" x="262" y="208" transform="rotate(0,266.5,212.5)"/><rect width="9" height="9" x="262" y="217" transform="rotate(0,266.5,221.5)"/><path d="M 262 226v 9h 9v -4.5a 4.5 4.5, 0, 0, 0, -4.5 -4.5" transform="rotate(90,266.5,230.5)"/><path d="M 262 244v 9h 9v -4.5a 4.5 4.5, 0, 0, 0, -4.5 -4.5" transform="rotate(0,266.5,248.5)"/><rect width="9" height="9" x="262" y="253" transform="rotate(0,266.5,257.5)"/><path d="M 262 271v 9h 9v -4.5a 4.5 4.5, 0, 0, 0, -4.5 -4.5" transform="rotate(-90,266.5,275.5)"/><rect width="9" height="9" x="262" y="280" transform="rotate(0,266.5,284.5)"/><rect width="9" height="9" x="271" y="91" transform="rotate(0,275.5,95.5)"/><rect width="9" height="9" x="271" y="100" transform="rotate(0,275.5,104.5)"/><rect width="9" height="9" x="271" y="109" transform="rotate(0,275.5,113.5)"/><rect width="9" height="9" x="271" y="118" transform="rotate(0,275.5,122.5)"/><path d="M 271 127v 9h 9v -4.5a 4.5 4.5, 0, 0, 0, -4.5 -4.5" transform="rotate(180,275.5,131.5)"/><rect width="9" height="9" x="271" y="145" transform="rotate(0,275.5,149.5)"/><rect width="9" height="9" x="271" y="154" transform="rotate(0,275.5,158.5)"/><path d="M 271 163v 9h 9v -4.5a 4.5 4.5, 0, 0, 0, -4.5 -4.5" transform="rotate(90,275.5,167.5)"/><path d="M 271 208v 9h 4.5a 4.5 4.5, 0, 0, 0, 0 -9" transform="rotate(0,275.5,212.5)"/><path d="M 271 253v 9h 4.5a 4.5 4.5, 0, 0, 0, 0 -9" transform="rotate(0,275.5,257.5)"/><rect width="9" height="9" x="271" y="271" transform="rotate(0,275.5,275.5)"/><rect width="9" height="9" x="271" y="280" transform="rotate(0,275.5,284.5)"/><path d="M 271 289v 9h 4.5a 4.5 4.5, 0, 0, 0, 0 -9" transform="rotate(90,275.5,293.5)"/><rect width="9" height="9" x="280" y="91" transform="rotate(0,284.5,95.5)"/><rect width="9" height="9" x="280" y="118" transform="rotate(0,284.5,122.5)"/><rect width="9" height="9" x="280" y="127" transform="rotate(0,284.5,131.5)"/><rect width="9" height="9" x="280" y="136" transform="rotate(0,284.5,140.5)"/><rect width="9" height="9" x="280" y="145" transform="rotate(0,284.5,149.5)"/><path d="M 280 154v 9h 9v -4.5a 4.5 4.5, 0, 0, 0, -4.5 -4.5" transform="rotate(90,284.5,158.5)"/><circle cx="284.5" cy="176.5" r="4.5" transform="rotate(0,284.5,176.5)"/><path d="M 280 190v 9h 4.5a 4.5 4.5, 0, 0, 0, 0 -9" transform="rotate(180,284.5,194.5)"/><rect width="9" height="9" x="280" y="271" transform="rotate(0,284.5,275.5)"/><path d="M 289 82v 9h 4.5a 4.5 4.5, 0, 0, 0, 0 -9" transform="rotate(-90,293.5,86.5)"/><path d="M 289 91v 9h 9v -4.5a 4.5 4.5, 0, 0, 0, -4.5 -4.5" transform="rotate(90,293.5,95.5)"/><path d="M 289 109v 9h 4.5a 4.5 4.5, 0, 0, 0, 0 -9" transform="rotate(-90,293.5,113.5)"/><path d="M 289 118v 9h 9v -4.5a 4.5 4.5, 0, 0, 0, -4.5 -4.5" transform="rotate(90,293.5,122.5)"/><path d="M 289 190v 9h 9v -4.5a 4.5 4.5, 0, 0, 0, -4.5 -4.5" transform="rotate(0,293.5,194.5)"/><path d="M 289 199v 9h 4.5a 4.5 4.5, 0, 0, 0, 0 -9" transform="rotate(90,293.5,203.5)"/><circle cx="293.5" cy="221.5" r="4.5" transform="rotate(0,293.5,221.5)"/><circle cx="293.5" cy="239.5" r="4.5" transform="rotate(0,293.5,239.5)"/><path d="M 289 262v 9h 4.5a 4.5 4.5, 0, 0, 0, 0 -9" transform="rotate(-90,293.5,266.5)"/><rect width="9" height="9" x="289" y="271" transform="rotate(0,293.5,275.5)"/><path d="M 289 280v 9h 4.5a 4.5 4.5, 0, 0, 0, 0 -9" transform="rotate(90,293.5,284.5)"/></g><g class="corners-square-color-0-0"><path d="M 1 23.5v 18a 22.5 22.5, 0, 0, 0, 22.5 22.5h 18a 22.5 22.5, 0, 0, 0, 22.5 -22.5v -18a 22.5 22.5, 0, 0, 0, -22.5 -22.5h -18a 22.5 22.5, 0, 0, 0, -22.5 22.5M 23.5 10h 18a 13.5 13.5, 0, 0, 1, 13.5 13.5v 18a 13.5 13.5, 0, 0, 1, -13.5 13.5h -18a 13.5 13.5, 0, 0, 1, -13.5 -13.5v -18a 13.5 13.5, 0, 0, 1, 13.5 -13.5" clip-rule="evenodd" transform="rotate(0,32.5,32.5)"/></g><g class="corners-dot-color-0-0"><circle cx="32.5" cy="32.5" r="13.5" transform="rotate(0,32.5,32.5)"/></g><g class="corners-square-color-1-0"><path d="M 235 23.5v 18a 22.5 22.5, 0, 0, 0, 22.5 22.5h 18a 22.5 22.5, 0, 0, 0, 22.5 -22.5v -18a 22.5 22.5, 0, 0, 0, -22.5 -22.5h -18a 22.5 22.5, 0, 0, 0, -22.5 22.5M 257.5 10h 18a 13.5 13.5, 0, 0, 1, 13.5 13.5v 18a 13.5 13.5, 0, 0, 1, -13.5 13.5h -18a 13.5 13.5, 0, 0, 1, -13.5 -13.5v -18a 13.5 13.5, 0, 0, 1, 13.5 -13.5" clip-rule="evenodd" transform="rotate(90,266.5,32.5)"/></g><g class="corners-dot-color-1-0"><circle cx="266.5" cy="32.5" r="13.5" transform="rotate(90,266.5,32.5)"/></g><g class="corners-square-color-0-1"><path d="M 1 257.5v 18a 22.5 22.5, 0, 0, 0, 22.5 22.5h 18a 22.5 22.5, 0, 0, 0, 22.5 -22.5v -18a 22.5 22.5, 0, 0, 0, -22.5 -22.5h -18a 22.5 22.5, 0, 0, 0, -22.5 22.5M 23.5 244h 18a 13.5 13.5, 0, 0, 1, 13.5 13.5v 18a 13.5 13.5, 0, 0, 1, -13.5 13.5h -18a 13.5 13.5, 0, 0, 1, -13.5 -13.5v -18a 13.5 13.5, 0, 0, 1, 13.5 -13.5" clip-rule="evenodd" transform="rotate(-90,32.5,266.5)"/></g><g class="corners-dot-color-0-1"><circle cx="32.5" cy="266.5" r="13.5" transform="rotate(-90,32.5,266.5)"/></g><svg xmlns="http://www.w3.org/2000/svg" id="twitterLogotype" width="77" height="75" x="111" y="112" fill="none" viewBox="0 0 51 50"><circle cx="25.5" cy="25" r="25" fill="#000"/><g clip-path="url(#twitter)"><path fill="#fff" d="M32.975 13.219h3.988l-8.71 9.98L38.5 36.782h-8.023l-6.284-8.238-7.19 8.238h-3.99l9.317-10.676-9.83-12.886h8.227l5.68 7.528 6.568-7.528Zm-1.398 21.17h2.21L19.526 15.486h-2.37l14.422 18.903Z"/></g><defs><clipPath id="twitter"><path fill="#fff" d="M12.5 12h26v26h-26z"/></clipPath></defs></svg></svg></g></svg></svg>