<svg xmlns="http://www.w3.org/2000/svg" xmlns:xlink="http://www.w3.org/1999/xlink" id="svgQrWrapper" viewBox="0 0 300 300" style="width:100%;height:100%;background-color:#fff"><svg><g fill="none" transform="translate(9, 9)scale(0.95)"><svg width="300" height="300"><style>.corners-dot-color-0-0,.corners-dot-color-0-1,.corners-dot-color-1-0,.corners-square-color-0-0,.corners-square-color-0-1,.corners-square-color-1-0,.dot-color{fill:#000}</style><g class="dot-color"><path d="M 1 73v 9h 4.5a 4.5 4.5, 0, 0, 0, 0 -9" transform="rotate(-90,5.5,77.5)"/><path d="M 1 82v 9h 4.5a 4.5 4.5, 0, 0, 0, 0 -9" transform="rotate(90,5.5,86.5)"/><circle cx="5.5" cy="113.5" r="4.5" transform="rotate(0,5.5,113.5)"/><path d="M 1 127v 9h 9a 9 9, 0, 0, 0, -9 -9" transform="rotate(-90,5.5,131.5)"/><path d="M 1 136v 9h 9a 9 9, 0, 0, 0, -9 -9" transform="rotate(180,5.5,140.5)"/><path d="M 1 199v 9h 4.5a 4.5 4.5, 0, 0, 0, 0 -9" transform="rotate(-90,5.5,203.5)"/><rect width="9" height="9" x="1" y="208" transform="rotate(0,5.5,212.5)"/><path d="M 1 217v 9h 4.5a 4.5 4.5, 0, 0, 0, 0 -9" transform="rotate(90,5.5,221.5)"/><path d="M 10 100v 9h 4.5a 4.5 4.5, 0, 0, 0, 0 -9" transform="rotate(180,14.5,104.5)"/><path d="M 10 118v 9h 4.5a 4.5 4.5, 0, 0, 0, 0 -9" transform="rotate(-90,14.5,122.5)"/><rect width="9" height="9" x="10" y="127" transform="rotate(0,14.5,131.5)"/><rect width="9" height="9" x="10" y="136" transform="rotate(0,14.5,140.5)"/><path d="M 10 145v 9h 9a 9 9, 0, 0, 0, -9 -9" transform="rotate(180,14.5,149.5)"/><circle cx="14.5" cy="167.5" r="4.5" transform="rotate(0,14.5,167.5)"/><rect width="9" height="9" x="10" y="208" transform="rotate(0,14.5,212.5)"/><path d="M 19 91v 9h 9a 9 9, 0, 0, 0, -9 -9" transform="rotate(-90,23.5,95.5)"/><rect width="9" height="9" x="19" y="100" transform="rotate(0,23.5,104.5)"/><path d="M 19 109v 9h 9a 9 9, 0, 0, 0, -9 -9" transform="rotate(180,23.5,113.5)"/><path d="M 19 127v 9h 4.5a 4.5 4.5, 0, 0, 0, 0 -9" transform="rotate(0,23.5,131.5)"/><path d="M 19 145v 9h 4.5a 4.5 4.5, 0, 0, 0, 0 -9" transform="rotate(0,23.5,149.5)"/><path d="M 19 208v 9h 9a 9 9, 0, 0, 0, -9 -9" transform="rotate(0,23.5,212.5)"/><path d="M 19 217v 9h 9a 9 9, 0, 0, 0, -9 -9" transform="rotate(180,23.5,221.5)"/><circle cx="32.5" cy="77.5" r="4.5" transform="rotate(0,32.5,77.5)"/><rect width="9" height="9" x="28" y="91" transform="rotate(0,32.5,95.5)"/><rect width="9" height="9" x="28" y="100" transform="rotate(0,32.5,104.5)"/><rect width="9" height="9" x="28" y="109" transform="rotate(0,32.5,113.5)"/><path d="M 28 136v 9h 4.5a 4.5 4.5, 0, 0, 0, 0 -9" transform="rotate(180,32.5,140.5)"/><path d="M 28 154v 9h 4.5a 4.5 4.5, 0, 0, 0, 0 -9" transform="rotate(-90,32.5,158.5)"/><rect width="9" height="9" x="28" y="163" transform="rotate(0,32.5,167.5)"/><rect width="9" height="9" x="28" y="172" transform="rotate(0,32.5,176.5)"/><path d="M 28 181v 9h 9a 9 9, 0, 0, 0, -9 -9" transform="rotate(180,32.5,185.5)"/><path d="M 28 199v 9h 4.5a 4.5 4.5, 0, 0, 0, 0 -9" transform="rotate(180,32.5,203.5)"/><rect width="9" height="9" x="28" y="217" transform="rotate(0,32.5,221.5)"/><path d="M 37 91v 9h 4.5a 4.5 4.5, 0, 0, 0, 0 -9" transform="rotate(0,41.5,95.5)"/><path d="M 37 109v 9h 9a 9 9, 0, 0, 0, -9 -9" transform="rotate(0,41.5,113.5)"/><path d="M 37 118v 9h 9a 9 9, 0, 0, 0, -9 -9" transform="rotate(180,41.5,122.5)"/><path d="M 37 136v 9h 4.5a 4.5 4.5, 0, 0, 0, 0 -9" transform="rotate(0,41.5,140.5)"/><path d="M 37 181v 9h 4.5a 4.5 4.5, 0, 0, 0, 0 -9" transform="rotate(0,41.5,185.5)"/><path d="M 37 199v 9h 4.5a 4.5 4.5, 0, 0, 0, 0 -9" transform="rotate(0,41.5,203.5)"/><rect width="9" height="9" x="37" y="217" transform="rotate(0,41.5,221.5)"/><circle cx="50.5" cy="86.5" r="4.5" transform="rotate(0,50.5,86.5)"/><path d="M 46 118v 9h 9a 9 9, 0, 0, 0, -9 -9" transform="rotate(0,50.5,122.5)"/><path d="M 46 127v 9h 9a 9 9, 0, 0, 0, -9 -9" transform="rotate(180,50.5,131.5)"/><circle cx="50.5" cy="176.5" r="4.5" transform="rotate(0,50.5,176.5)"/><circle cx="50.5" cy="194.5" r="4.5" transform="rotate(0,50.5,194.5)"/><path d="M 46 208v 9h 4.5a 4.5 4.5, 0, 0, 0, 0 -9" transform="rotate(-90,50.5,212.5)"/><rect width="9" height="9" x="46" y="217" transform="rotate(0,50.5,221.5)"/><circle cx="59.5" cy="77.5" r="4.5" transform="rotate(0,59.5,77.5)"/><circle cx="59.5" cy="95.5" r="4.5" transform="rotate(0,59.5,95.5)"/><path d="M 55 109v 9h 4.5a 4.5 4.5, 0, 0, 0, 0 -9" transform="rotate(180,59.5,113.5)"/><rect width="9" height="9" x="55" y="127" transform="rotate(0,59.5,131.5)"/><path d="M 55 145v 9h 4.5a 4.5 4.5, 0, 0, 0, 0 -9" transform="rotate(180,59.5,149.5)"/><path d="M 55 163v 9h 4.5a 4.5 4.5, 0, 0, 0, 0 -9" transform="rotate(180,59.5,167.5)"/><path d="M 55 181v 9h 4.5a 4.5 4.5, 0, 0, 0, 0 -9" transform="rotate(180,59.5,185.5)"/><path d="M 55 199v 9h 4.5a 4.5 4.5, 0, 0, 0, 0 -9" transform="rotate(180,59.5,203.5)"/><path d="M 55 217v 9h 4.5a 4.5 4.5, 0, 0, 0, 0 -9" transform="rotate(0,59.5,221.5)"/><path d="M 64 100v 9h 9a 9 9, 0, 0, 0, -9 -9" transform="rotate(-90,68.5,104.5)"/><path d="M 64 109v 9h 9a 9 9, 0, 0, 0, -9 -9" transform="rotate(90,68.5,113.5)"/><path d="M 64 127v 9h 4.5a 4.5 4.5, 0, 0, 0, 0 -9" transform="rotate(0,68.5,131.5)"/><rect width="9" height="9" x="64" y="145" transform="rotate(0,68.5,149.5)"/><rect width="9" height="9" x="64" y="154" transform="rotate(0,68.5,158.5)"/><rect width="9" height="9" x="64" y="163" transform="rotate(0,68.5,167.5)"/><path d="M 64 181v 9h 9a 9 9, 0, 0, 0, -9 -9" transform="rotate(0,68.5,185.5)"/><rect width="9" height="9" x="64" y="190" transform="rotate(0,68.5,194.5)"/><rect width="9" height="9" x="64" y="199" transform="rotate(0,68.5,203.5)"/><path d="M 64 208v 9h 4.5a 4.5 4.5, 0, 0, 0, 0 -9" transform="rotate(90,68.5,212.5)"/><path d="M 73 19v 9h 4.5a 4.5 4.5, 0, 0, 0, 0 -9" transform="rotate(180,77.5,23.5)"/><path d="M 73 37v 9h 4.5a 4.5 4.5, 0, 0, 0, 0 -9" transform="rotate(-90,77.5,41.5)"/><rect width="9" height="9" x="73" y="46" transform="rotate(0,77.5,50.5)"/><path d="M 73 55v 9h 4.5a 4.5 4.5, 0, 0, 0, 0 -9" transform="rotate(90,77.5,59.5)"/><path d="M 73 73v 9h 4.5a 4.5 4.5, 0, 0, 0, 0 -9" transform="rotate(-90,77.5,77.5)"/><path d="M 73 82v 9h 9a 9 9, 0, 0, 0, -9 -9" transform="rotate(180,77.5,86.5)"/><rect width="9" height="9" x="73" y="100" transform="rotate(0,77.5,104.5)"/><circle cx="77.5" cy="122.5" r="4.5" transform="rotate(0,77.5,122.5)"/><path d="M 73 145v 9h 9a 9 9, 0, 0, 0, -9 -9" transform="rotate(0,77.5,149.5)"/><rect width="9" height="9" x="73" y="154" transform="rotate(0,77.5,158.5)"/><rect width="9" height="9" x="73" y="163" transform="rotate(0,77.5,167.5)"/><path d="M 73 190v 9h 4.5a 4.5 4.5, 0, 0, 0, 0 -9" transform="rotate(0,77.5,194.5)"/><circle cx="77.5" cy="230.5" r="4.5" transform="rotate(0,77.5,230.5)"/><circle cx="77.5" cy="266.5" r="4.5" transform="rotate(0,77.5,266.5)"/><path d="M 73 289v 9h 4.5a 4.5 4.5, 0, 0, 0, 0 -9" transform="rotate(180,77.5,293.5)"/><path d="M 82 1v 9h 4.5a 4.5 4.5, 0, 0, 0, 0 -9" transform="rotate(-90,86.5,5.5)"/><rect width="9" height="9" x="82" y="10" transform="rotate(0,86.5,14.5)"/><rect width="9" height="9" x="82" y="19" transform="rotate(0,86.5,23.5)"/><path d="M 82 28v 9h 4.5a 4.5 4.5, 0, 0, 0, 0 -9" transform="rotate(90,86.5,32.5)"/><path d="M 82 64v 9h 4.5a 4.5 4.5, 0, 0, 0, 0 -9" transform="rotate(180,86.5,68.5)"/><path d="M 82 82v 9h 4.5a 4.5 4.5, 0, 0, 0, 0 -9" transform="rotate(0,86.5,86.5)"/><rect width="9" height="9" x="82" y="100" transform="rotate(0,86.5,104.5)"/><circle cx="86.5" cy="140.5" r="4.5" transform="rotate(0,86.5,140.5)"/><path d="M 82 163v 9h 4.5a 4.5 4.5, 0, 0, 0, 0 -9" transform="rotate(0,86.5,167.5)"/><path d="M 82 208v 9h 4.5a 4.5 4.5, 0, 0, 0, 0 -9" transform="rotate(-90,86.5,212.5)"/><path d="M 82 217v 9h 4.5a 4.5 4.5, 0, 0, 0, 0 -9" transform="rotate(90,86.5,221.5)"/><path d="M 82 235v 9h 4.5a 4.5 4.5, 0, 0, 0, 0 -9" transform="rotate(180,86.5,239.5)"/><path d="M 82 271v 9h 4.5a 4.5 4.5, 0, 0, 0, 0 -9" transform="rotate(-90,86.5,275.5)"/><rect width="9" height="9" x="82" y="280" transform="rotate(0,86.5,284.5)"/><rect width="9" height="9" x="82" y="289" transform="rotate(0,86.5,293.5)"/><path d="M 91 10v 9h 9a 9 9, 0, 0, 0, -9 -9" transform="rotate(0,95.5,14.5)"/><path d="M 91 19v 9h 9a 9 9, 0, 0, 0, -9 -9" transform="rotate(90,95.5,23.5)"/><path d="M 91 37v 9h 4.5a 4.5 4.5, 0, 0, 0, 0 -9" transform="rotate(180,95.5,41.5)"/><path d="M 91 55v 9h 4.5a 4.5 4.5, 0, 0, 0, 0 -9" transform="rotate(-90,95.5,59.5)"/><path d="M 91 64v 9h 9a 9 9, 0, 0, 0, -9 -9" transform="rotate(90,95.5,68.5)"/><path d="M 91 91v 9h 4.5a 4.5 4.5, 0, 0, 0, 0 -9" transform="rotate(-90,95.5,95.5)"/><rect width="9" height="9" x="91" y="100" transform="rotate(0,95.5,104.5)"/><rect width="9" height="9" x="91" y="109" transform="rotate(0,95.5,113.5)"/><path d="M 91 118v 9h 9a 9 9, 0, 0, 0, -9 -9" transform="rotate(180,95.5,122.5)"/><path d="M 91 145v 9h 4.5a 4.5 4.5, 0, 0, 0, 0 -9" transform="rotate(-90,95.5,149.5)"/><path d="M 91 154v 9h 4.5a 4.5 4.5, 0, 0, 0, 0 -9" transform="rotate(90,95.5,158.5)"/><path d="M 91 172v 9h 4.5a 4.5 4.5, 0, 0, 0, 0 -9" transform="rotate(-90,95.5,176.5)"/><rect width="9" height="9" x="91" y="181" transform="rotate(0,95.5,185.5)"/><path d="M 91 190v 9h 4.5a 4.5 4.5, 0, 0, 0, 0 -9" transform="rotate(90,95.5,194.5)"/><path d="M 91 235v 9h 4.5a 4.5 4.5, 0, 0, 0, 0 -9" transform="rotate(0,95.5,239.5)"/><path d="M 91 253v 9h 4.5a 4.5 4.5, 0, 0, 0, 0 -9" transform="rotate(-90,95.5,257.5)"/><path d="M 91 262v 9h 4.5a 4.5 4.5, 0, 0, 0, 0 -9" transform="rotate(90,95.5,266.5)"/><path d="M 91 280v 9h 9a 9 9, 0, 0, 0, -9 -9" transform="rotate(0,95.5,284.5)"/><path d="M 91 289v 9h 9a 9 9, 0, 0, 0, -9 -9" transform="rotate(90,95.5,293.5)"/><path d="M 100 28v 9h 4.5a 4.5 4.5, 0, 0, 0, 0 -9" transform="rotate(-90,104.5,32.5)"/><rect width="9" height="9" x="100" y="37" transform="rotate(0,104.5,41.5)"/><path d="M 100 109v 9h 9a 9 9, 0, 0, 0, -9 -9" transform="rotate(0,104.5,113.5)"/><path d="M 100 118v 9h 9a 9 9, 0, 0, 0, -9 -9" transform="rotate(90,104.5,122.5)"/><circle cx="104.5" cy="140.5" r="4.5" transform="rotate(0,104.5,140.5)"/><path d="M 100 181v 9h 4.5a 4.5 4.5, 0, 0, 0, 0 -9" transform="rotate(0,104.5,185.5)"/><circle cx="104.5" cy="212.5" r="4.5" transform="rotate(0,104.5,212.5)"/><path d="M 109 1v 9h 9a 9 9, 0, 0, 0, -9 -9" transform="rotate(-90,113.5,5.5)"/><rect width="9" height="9" x="109" y="10" transform="rotate(0,113.5,14.5)"/><path d="M 109 19v 9h 9a 9 9, 0, 0, 0, -9 -9" transform="rotate(180,113.5,23.5)"/><rect width="9" height="9" x="109" y="37" transform="rotate(0,113.5,41.5)"/><path d="M 109 55v 9h 4.5a 4.5 4.5, 0, 0, 0, 0 -9" transform="rotate(-90,113.5,59.5)"/><path d="M 109 64v 9h 9a 9 9, 0, 0, 0, -9 -9" transform="rotate(180,113.5,68.5)"/><path d="M 109 82v 9h 4.5a 4.5 4.5, 0, 0, 0, 0 -9" transform="rotate(180,113.5,86.5)"/><path d="M 109 217v 9h 9a 9 9, 0, 0, 0, -9 -9" transform="rotate(-90,113.5,221.5)"/><rect width="9" height="9" x="109" y="226" transform="rotate(0,113.5,230.5)"/><path d="M 109 235v 9h 9a 9 9, 0, 0, 0, -9 -9" transform="rotate(180,113.5,239.5)"/><path d="M 109 253v 9h 9a 9 9, 0, 0, 0, -9 -9" transform="rotate(-90,113.5,257.5)"/><path d="M 109 262v 9h 4.5a 4.5 4.5, 0, 0, 0, 0 -9" transform="rotate(90,113.5,266.5)"/><path d="M 109 280v 9h 4.5a 4.5 4.5, 0, 0, 0, 0 -9" transform="rotate(180,113.5,284.5)"/><rect width="9" height="9" x="118" y="1" transform="rotate(0,122.5,5.5)"/><rect width="9" height="9" x="118" y="10" transform="rotate(0,122.5,14.5)"/><rect width="9" height="9" x="118" y="19" transform="rotate(0,122.5,23.5)"/><path d="M 118 37v 9h 9a 9 9, 0, 0, 0, -9 -9" transform="rotate(0,122.5,41.5)"/><path d="M 118 46v 9h 4.5a 4.5 4.5, 0, 0, 0, 0 -9" transform="rotate(90,122.5,50.5)"/><rect width="9" height="9" x="118" y="64" transform="rotate(0,122.5,68.5)"/><rect width="9" height="9" x="118" y="73" transform="rotate(0,122.5,77.5)"/><rect width="9" height="9" x="118" y="82" transform="rotate(0,122.5,86.5)"/><rect width="9" height="9" x="118" y="91" transform="rotate(0,122.5,95.5)"/><path d="M 118 100v 9h 4.5a 4.5 4.5, 0, 0, 0, 0 -9" transform="rotate(90,122.5,104.5)"/><rect width="9" height="9" x="118" y="217" transform="rotate(0,122.5,221.5)"/><rect width="9" height="9" x="118" y="235" transform="rotate(0,122.5,239.5)"/><path d="M 118 253v 9h 4.5a 4.5 4.5, 0, 0, 0, 0 -9" transform="rotate(0,122.5,257.5)"/><path d="M 118 271v 9h 4.5a 4.5 4.5, 0, 0, 0, 0 -9" transform="rotate(-90,122.5,275.5)"/><rect width="9" height="9" x="118" y="280" transform="rotate(0,122.5,284.5)"/><path d="M 118 289v 9h 9a 9 9, 0, 0, 0, -9 -9" transform="rotate(180,122.5,293.5)"/><path d="M 127 1v 9h 4.5a 4.5 4.5, 0, 0, 0, 0 -9" transform="rotate(0,131.5,5.5)"/><rect width="9" height="9" x="127" y="19" transform="rotate(0,131.5,23.5)"/><path d="M 127 28v 9h 4.5a 4.5 4.5, 0, 0, 0, 0 -9" transform="rotate(90,131.5,32.5)"/><path d="M 127 55v 9h 4.5a 4.5 4.5, 0, 0, 0, 0 -9" transform="rotate(-90,131.5,59.5)"/><path d="M 127 64v 9h 9a 9 9, 0, 0, 0, -9 -9" transform="rotate(90,131.5,68.5)"/><rect width="9" height="9" x="127" y="91" transform="rotate(0,131.5,95.5)"/><path d="M 127 190v 9h 4.5a 4.5 4.5, 0, 0, 0, 0 -9" transform="rotate(180,131.5,194.5)"/><rect width="9" height="9" x="127" y="217" transform="rotate(0,131.5,221.5)"/><path d="M 127 235v 9h 4.5a 4.5 4.5, 0, 0, 0, 0 -9" transform="rotate(0,131.5,239.5)"/><rect width="9" height="9" x="127" y="280" transform="rotate(0,131.5,284.5)"/><rect width="9" height="9" x="127" y="289" transform="rotate(0,131.5,293.5)"/><path d="M 136 10v 9h 4.5a 4.5 4.5, 0, 0, 0, 0 -9" transform="rotate(-90,140.5,14.5)"/><rect width="9" height="9" x="136" y="19" transform="rotate(0,140.5,23.5)"/><path d="M 136 37v 9h 4.5a 4.5 4.5, 0, 0, 0, 0 -9" transform="rotate(-90,140.5,41.5)"/><path d="M 136 46v 9h 4.5a 4.5 4.5, 0, 0, 0, 0 -9" transform="rotate(90,140.5,50.5)"/><path d="M 136 73v 9h 4.5a 4.5 4.5, 0, 0, 0, 0 -9" transform="rotate(-90,140.5,77.5)"/><rect width="9" height="9" x="136" y="82" transform="rotate(0,140.5,86.5)"/><rect width="9" height="9" x="136" y="91" transform="rotate(0,140.5,95.5)"/><path d="M 136 100v 9h 9a 9 9, 0, 0, 0, -9 -9" transform="rotate(180,140.5,104.5)"/><rect width="9" height="9" x="136" y="190" transform="rotate(0,140.5,194.5)"/><path d="M 136 199v 9h 9a 9 9, 0, 0, 0, -9 -9" transform="rotate(180,140.5,203.5)"/><path d="M 136 217v 9h 4.5a 4.5 4.5, 0, 0, 0, 0 -9" transform="rotate(0,140.5,221.5)"/><circle cx="140.5" cy="257.5" r="4.5" transform="rotate(0,140.5,257.5)"/><path d="M 136 271v 9h 9a 9 9, 0, 0, 0, -9 -9" transform="rotate(-90,140.5,275.5)"/><rect width="9" height="9" x="136" y="280" transform="rotate(0,140.5,284.5)"/><path d="M 136 289v 9h 9a 9 9, 0, 0, 0, -9 -9" transform="rotate(90,140.5,293.5)"/><rect width="9" height="9" x="145" y="19" transform="rotate(0,149.5,23.5)"/><circle cx="149.5" cy="59.5" r="4.5" transform="rotate(0,149.5,59.5)"/><rect width="9" height="9" x="145" y="91" transform="rotate(0,149.5,95.5)"/><rect width="9" height="9" x="145" y="100" transform="rotate(0,149.5,104.5)"/><path d="M 145 190v 9h 9a 9 9, 0, 0, 0, -9 -9" transform="rotate(0,149.5,194.5)"/><rect width="9" height="9" x="145" y="199" transform="rotate(0,149.5,203.5)"/><path d="M 145 208v 9h 4.5a 4.5 4.5, 0, 0, 0, 0 -9" transform="rotate(90,149.5,212.5)"/><path d="M 145 226v 9h 9a 9 9, 0, 0, 0, -9 -9" transform="rotate(-90,149.5,230.5)"/><rect width="9" height="9" x="145" y="235" transform="rotate(0,149.5,239.5)"/><path d="M 145 244v 9h 9a 9 9, 0, 0, 0, -9 -9" transform="rotate(180,149.5,248.5)"/><rect width="9" height="9" x="145" y="271" transform="rotate(0,149.5,275.5)"/><path d="M 154 1v 9h 9a 9 9, 0, 0, 0, -9 -9" transform="rotate(-90,158.5,5.5)"/><rect width="9" height="9" x="154" y="10" transform="rotate(0,158.5,14.5)"/><rect width="9" height="9" x="154" y="19" transform="rotate(0,158.5,23.5)"/><path d="M 154 28v 9h 4.5a 4.5 4.5, 0, 0, 0, 0 -9" transform="rotate(90,158.5,32.5)"/><circle cx="158.5" cy="50.5" r="4.5" transform="rotate(0,158.5,50.5)"/><path d="M 154 64v 9h 4.5a 4.5 4.5, 0, 0, 0, 0 -9" transform="rotate(180,158.5,68.5)"/><path d="M 154 82v 9h 4.5a 4.5 4.5, 0, 0, 0, 0 -9" transform="rotate(-90,158.5,86.5)"/><rect width="9" height="9" x="154" y="91" transform="rotate(0,158.5,95.5)"/><rect width="9" height="9" x="154" y="100" transform="rotate(0,158.5,104.5)"/><path d="M 154 226v 9h 4.5a 4.5 4.5, 0, 0, 0, 0 -9" transform="rotate(0,158.5,230.5)"/><rect width="9" height="9" x="154" y="244" transform="rotate(0,158.5,248.5)"/><path d="M 154 262v 9h 4.5a 4.5 4.5, 0, 0, 0, 0 -9" transform="rotate(-90,158.5,266.5)"/><rect width="9" height="9" x="154" y="271" transform="rotate(0,158.5,275.5)"/><path d="M 154 280v 9h 4.5a 4.5 4.5, 0, 0, 0, 0 -9" transform="rotate(90,158.5,284.5)"/><rect width="9" height="9" x="163" y="1" transform="rotate(0,167.5,5.5)"/><rect width="9" height="9" x="163" y="10" transform="rotate(0,167.5,14.5)"/><rect width="9" height="9" x="163" y="19" transform="rotate(0,167.5,23.5)"/><circle cx="167.5" cy="41.5" r="4.5" transform="rotate(0,167.5,41.5)"/><path d="M 163 55v 9h 4.5a 4.5 4.5, 0, 0, 0, 0 -9" transform="rotate(-90,167.5,59.5)"/><rect width="9" height="9" x="163" y="64" transform="rotate(0,167.5,68.5)"/><path d="M 163 73v 9h 9a 9 9, 0, 0, 0, -9 -9" transform="rotate(180,167.5,77.5)"/><path d="M 163 91v 9h 9a 9 9, 0, 0, 0, -9 -9" transform="rotate(0,167.5,95.5)"/><rect width="9" height="9" x="163" y="100" transform="rotate(0,167.5,104.5)"/><path d="M 163 190v 9h 4.5a 4.5 4.5, 0, 0, 0, 0 -9" transform="rotate(180,167.5,194.5)"/><path d="M 163 235v 9h 4.5a 4.5 4.5, 0, 0, 0, 0 -9" transform="rotate(-90,167.5,239.5)"/><rect width="9" height="9" x="163" y="244" transform="rotate(0,167.5,248.5)"/><path d="M 163 271v 9h 4.5a 4.5 4.5, 0, 0, 0, 0 -9" transform="rotate(0,167.5,275.5)"/><circle cx="167.5" cy="293.5" r="4.5" transform="rotate(0,167.5,293.5)"/><rect width="9" height="9" x="172" y="1" transform="rotate(0,176.5,5.5)"/><rect width="9" height="9" x="172" y="19" transform="rotate(0,176.5,23.5)"/><path d="M 172 28v 9h 9a 9 9, 0, 0, 0, -9 -9" transform="rotate(180,176.5,32.5)"/><rect width="9" height="9" x="172" y="64" transform="rotate(0,176.5,68.5)"/><rect width="9" height="9" x="172" y="73" transform="rotate(0,176.5,77.5)"/><rect width="9" height="9" x="172" y="100" transform="rotate(0,176.5,104.5)"/><rect width="9" height="9" x="172" y="190" transform="rotate(0,176.5,194.5)"/><path d="M 172 199v 9h 4.5a 4.5 4.5, 0, 0, 0, 0 -9" transform="rotate(90,176.5,203.5)"/><rect width="9" height="9" x="172" y="244" transform="rotate(0,176.5,248.5)"/><path d="M 172 253v 9h 4.5a 4.5 4.5, 0, 0, 0, 0 -9" transform="rotate(90,176.5,257.5)"/><path d="M 181 1v 9h 9a 9 9, 0, 0, 0, -9 -9" transform="rotate(0,185.5,5.5)"/><rect width="9" height="9" x="181" y="10" transform="rotate(0,185.5,14.5)"/><rect width="9" height="9" x="181" y="19" transform="rotate(0,185.5,23.5)"/><path d="M 181 28v 9h 9a 9 9, 0, 0, 0, -9 -9" transform="rotate(90,185.5,32.5)"/><path d="M 181 55v 9h 4.5a 4.5 4.5, 0, 0, 0, 0 -9" transform="rotate(-90,185.5,59.5)"/><rect width="9" height="9" x="181" y="64" transform="rotate(0,185.5,68.5)"/><rect width="9" height="9" x="181" y="73" transform="rotate(0,185.5,77.5)"/><rect width="9" height="9" x="181" y="82" transform="rotate(0,185.5,86.5)"/><rect width="9" height="9" x="181" y="91" transform="rotate(0,185.5,95.5)"/><path d="M 181 100v 9h 9a 9 9, 0, 0, 0, -9 -9" transform="rotate(90,185.5,104.5)"/><rect width="9" height="9" x="181" y="190" transform="rotate(0,185.5,194.5)"/><path d="M 181 217v 9h 4.5a 4.5 4.5, 0, 0, 0, 0 -9" transform="rotate(180,185.5,221.5)"/><path d="M 181 235v 9h 4.5a 4.5 4.5, 0, 0, 0, 0 -9" transform="rotate(-90,185.5,239.5)"/><path d="M 181 244v 9h 9a 9 9, 0, 0, 0, -9 -9" transform="rotate(90,185.5,248.5)"/><circle cx="185.5" cy="266.5" r="4.5" transform="rotate(0,185.5,266.5)"/><path d="M 181 280v 9h 4.5a 4.5 4.5, 0, 0, 0, 0 -9" transform="rotate(180,185.5,284.5)"/><path d="M 190 10v 9h 4.5a 4.5 4.5, 0, 0, 0, 0 -9" transform="rotate(0,194.5,14.5)"/><circle cx="194.5" cy="50.5" r="4.5" transform="rotate(0,194.5,50.5)"/><path d="M 190 64v 9h 4.5a 4.5 4.5, 0, 0, 0, 0 -9" transform="rotate(0,194.5,68.5)"/><circle cx="194.5" cy="131.5" r="4.5" transform="rotate(0,194.5,131.5)"/><path d="M 190 163v 9h 4.5a 4.5 4.5, 0, 0, 0, 0 -9" transform="rotate(180,194.5,167.5)"/><rect width="9" height="9" x="190" y="190" transform="rotate(0,194.5,194.5)"/><path d="M 190 208v 9h 9a 9 9, 0, 0, 0, -9 -9" transform="rotate(-90,194.5,212.5)"/><rect width="9" height="9" x="190" y="217" transform="rotate(0,194.5,221.5)"/><path d="M 190 280v 9h 9a 9 9, 0, 0, 0, -9 -9" transform="rotate(0,194.5,284.5)"/><path d="M 190 289v 9h 9a 9 9, 0, 0, 0, -9 -9" transform="rotate(180,194.5,293.5)"/><circle cx="203.5" cy="5.5" r="4.5" transform="rotate(0,203.5,5.5)"/><path d="M 199 19v 9h 4.5a 4.5 4.5, 0, 0, 0, 0 -9" transform="rotate(-90,203.5,23.5)"/><path d="M 199 28v 9h 4.5a 4.5 4.5, 0, 0, 0, 0 -9" transform="rotate(90,203.5,32.5)"/><circle cx="203.5" cy="59.5" r="4.5" transform="rotate(0,203.5,59.5)"/><path d="M 199 82v 9h 9a 9 9, 0, 0, 0, -9 -9" transform="rotate(-90,203.5,86.5)"/><rect width="9" height="9" x="199" y="91" transform="rotate(0,203.5,95.5)"/><path d="M 199 100v 9h 9a 9 9, 0, 0, 0, -9 -9" transform="rotate(180,203.5,104.5)"/><path d="M 199 136v 9h 4.5a 4.5 4.5, 0, 0, 0, 0 -9" transform="rotate(-90,203.5,140.5)"/><rect width="9" height="9" x="199" y="145" transform="rotate(0,203.5,149.5)"/><rect width="9" height="9" x="199" y="154" transform="rotate(0,203.5,158.5)"/><rect width="9" height="9" x="199" y="163" transform="rotate(0,203.5,167.5)"/><path d="M 199 172v 9h 4.5a 4.5 4.5, 0, 0, 0, 0 -9" transform="rotate(90,203.5,176.5)"/><rect width="9" height="9" x="199" y="190" transform="rotate(0,203.5,194.5)"/><path d="M 199 208v 9h 9a 9 9, 0, 0, 0, -9 -9" transform="rotate(0,203.5,212.5)"/><rect width="9" height="9" x="199" y="217" transform="rotate(0,203.5,221.5)"/><path d="M 199 235v 9h 4.5a 4.5 4.5, 0, 0, 0, 0 -9" transform="rotate(-90,203.5,239.5)"/><rect width="9" height="9" x="199" y="244" transform="rotate(0,203.5,248.5)"/><rect width="9" height="9" x="199" y="253" transform="rotate(0,203.5,257.5)"/><rect width="9" height="9" x="199" y="262" transform="rotate(0,203.5,266.5)"/><path d="M 199 271v 9h 4.5a 4.5 4.5, 0, 0, 0, 0 -9" transform="rotate(90,203.5,275.5)"/><path d="M 199 289v 9h 4.5a 4.5 4.5, 0, 0, 0, 0 -9" transform="rotate(0,203.5,293.5)"/><circle cx="212.5" cy="14.5" r="4.5" transform="rotate(0,212.5,14.5)"/><path d="M 208 37v 9h 4.5a 4.5 4.5, 0, 0, 0, 0 -9" transform="rotate(-90,212.5,41.5)"/><path d="M 208 46v 9h 9a 9 9, 0, 0, 0, -9 -9" transform="rotate(180,212.5,50.5)"/><path d="M 208 73v 9h 4.5a 4.5 4.5, 0, 0, 0, 0 -9" transform="rotate(-90,212.5,77.5)"/><rect width="9" height="9" x="208" y="82" transform="rotate(0,212.5,86.5)"/><rect width="9" height="9" x="208" y="91" transform="rotate(0,212.5,95.5)"/><path d="M 208 100v 9h 9a 9 9, 0, 0, 0, -9 -9" transform="rotate(90,212.5,104.5)"/><path d="M 208 163v 9h 4.5a 4.5 4.5, 0, 0, 0, 0 -9" transform="rotate(0,212.5,167.5)"/><path d="M 208 190v 9h 9a 9 9, 0, 0, 0, -9 -9" transform="rotate(0,212.5,194.5)"/><path d="M 208 199v 9h 4.5a 4.5 4.5, 0, 0, 0, 0 -9" transform="rotate(90,212.5,203.5)"/><rect width="9" height="9" x="208" y="217" transform="rotate(0,212.5,221.5)"/><path d="M 208 226v 9h 9a 9 9, 0, 0, 0, -9 -9" transform="rotate(180,212.5,230.5)"/><rect width="9" height="9" x="208" y="253" transform="rotate(0,212.5,257.5)"/><path d="M 208 262v 9h 9a 9 9, 0, 0, 0, -9 -9" transform="rotate(90,212.5,266.5)"/><circle cx="221.5" cy="5.5" r="4.5" transform="rotate(0,221.5,5.5)"/><circle cx="221.5" cy="32.5" r="4.5" transform="rotate(0,221.5,32.5)"/><path d="M 217 46v 9h 9a 9 9, 0, 0, 0, -9 -9" transform="rotate(0,221.5,50.5)"/><rect width="9" height="9" x="217" y="55" transform="rotate(0,221.5,59.5)"/><path d="M 217 64v 9h 4.5a 4.5 4.5, 0, 0, 0, 0 -9" transform="rotate(90,221.5,68.5)"/><rect width="9" height="9" x="217" y="91" transform="rotate(0,221.5,95.5)"/><path d="M 217 127v 9h 9a 9 9, 0, 0, 0, -9 -9" transform="rotate(-90,221.5,131.5)"/><rect width="9" height="9" x="217" y="136" transform="rotate(0,221.5,140.5)"/><path d="M 217 145v 9h 4.5a 4.5 4.5, 0, 0, 0, 0 -9" transform="rotate(90,221.5,149.5)"/><path d="M 217 208v 9h 4.5a 4.5 4.5, 0, 0, 0, 0 -9" transform="rotate(-90,221.5,212.5)"/><rect width="9" height="9" x="217" y="217" transform="rotate(0,221.5,221.5)"/><rect width="9" height="9" x="217" y="226" transform="rotate(0,221.5,230.5)"/><rect width="9" height="9" x="217" y="235" transform="rotate(0,221.5,239.5)"/><rect width="9" height="9" x="217" y="244" transform="rotate(0,221.5,248.5)"/><rect width="9" height="9" x="217" y="253" transform="rotate(0,221.5,257.5)"/><path d="M 217 280v 9h 4.5a 4.5 4.5, 0, 0, 0, 0 -9" transform="rotate(180,221.5,284.5)"/><path d="M 226 73v 9h 4.5a 4.5 4.5, 0, 0, 0, 0 -9" transform="rotate(-90,230.5,77.5)"/><rect width="9" height="9" x="226" y="82" transform="rotate(0,230.5,86.5)"/><path d="M 226 91v 9h 9a 9 9, 0, 0, 0, -9 -9" transform="rotate(90,230.5,95.5)"/><path d="M 226 109v 9h 4.5a 4.5 4.5, 0, 0, 0, 0 -9" transform="rotate(180,230.5,113.5)"/><rect width="9" height="9" x="226" y="127" transform="rotate(0,230.5,131.5)"/><rect width="9" height="9" x="226" y="136" transform="rotate(0,230.5,140.5)"/><path d="M 226 181v 9h 4.5a 4.5 4.5, 0, 0, 0, 0 -9" transform="rotate(-90,230.5,185.5)"/><path d="M 226 190v 9h 4.5a 4.5 4.5, 0, 0, 0, 0 -9" transform="rotate(90,230.5,194.5)"/><rect width="9" height="9" x="226" y="217" transform="rotate(0,230.5,221.5)"/><rect width="9" height="9" x="226" y="253" transform="rotate(0,230.5,257.5)"/><rect width="9" height="9" x="226" y="280" transform="rotate(0,230.5,284.5)"/><path d="M 226 289v 9h 9a 9 9, 0, 0, 0, -9 -9" transform="rotate(180,230.5,293.5)"/><path d="M 235 82v 9h 4.5a 4.5 4.5, 0, 0, 0, 0 -9" transform="rotate(0,239.5,86.5)"/><rect width="9" height="9" x="235" y="109" transform="rotate(0,239.5,113.5)"/><rect width="9" height="9" x="235" y="118" transform="rotate(0,239.5,122.5)"/><rect width="9" height="9" x="235" y="127" transform="rotate(0,239.5,131.5)"/><rect width="9" height="9" x="235" y="136" transform="rotate(0,239.5,140.5)"/><path d="M 235 145v 9h 4.5a 4.5 4.5, 0, 0, 0, 0 -9" transform="rotate(90,239.5,149.5)"/><path d="M 235 163v 9h 9a 9 9, 0, 0, 0, -9 -9" transform="rotate(-90,239.5,167.5)"/><path d="M 235 172v 9h 9a 9 9, 0, 0, 0, -9 -9" transform="rotate(180,239.5,176.5)"/><path d="M 235 199v 9h 4.5a 4.5 4.5, 0, 0, 0, 0 -9" transform="rotate(180,239.5,203.5)"/><rect width="9" height="9" x="235" y="217" transform="rotate(0,239.5,221.5)"/><circle cx="239.5" cy="239.5" r="4.5" transform="rotate(0,239.5,239.5)"/><rect width="9" height="9" x="235" y="253" transform="rotate(0,239.5,257.5)"/><path d="M 235 262v 9h 4.5a 4.5 4.5, 0, 0, 0, 0 -9" transform="rotate(90,239.5,266.5)"/><path d="M 235 280v 9h 9a 9 9, 0, 0, 0, -9 -9" transform="rotate(0,239.5,284.5)"/><rect width="9" height="9" x="235" y="289" transform="rotate(0,239.5,293.5)"/><path d="M 244 73v 9h 4.5a 4.5 4.5, 0, 0, 0, 0 -9" transform="rotate(180,248.5,77.5)"/><path d="M 244 91v 9h 4.5a 4.5 4.5, 0, 0, 0, 0 -9" transform="rotate(180,248.5,95.5)"/><path d="M 244 109v 9h 4.5a 4.5 4.5, 0, 0, 0, 0 -9" transform="rotate(0,248.5,113.5)"/><path d="M 244 127v 9h 9a 9 9, 0, 0, 0, -9 -9" transform="rotate(0,248.5,131.5)"/><rect width="9" height="9" x="244" y="136" transform="rotate(0,248.5,140.5)"/><path d="M 244 163v 9h 9a 9 9, 0, 0, 0, -9 -9" transform="rotate(0,248.5,167.5)"/><rect width="9" height="9" x="244" y="172" transform="rotate(0,248.5,176.5)"/><rect width="9" height="9" x="244" y="181" transform="rotate(0,248.5,185.5)"/><rect width="9" height="9" x="244" y="190" transform="rotate(0,248.5,194.5)"/><rect width="9" height="9" x="244" y="199" transform="rotate(0,248.5,203.5)"/><rect width="9" height="9" x="244" y="217" transform="rotate(0,248.5,221.5)"/><rect width="9" height="9" x="244" y="253" transform="rotate(0,248.5,257.5)"/><path d="M 244 289v 9h 4.5a 4.5 4.5, 0, 0, 0, 0 -9" transform="rotate(0,248.5,293.5)"/><path d="M 253 73v 9h 4.5a 4.5 4.5, 0, 0, 0, 0 -9" transform="rotate(0,257.5,77.5)"/><path d="M 253 91v 9h 9a 9 9, 0, 0, 0, -9 -9" transform="rotate(0,257.5,95.5)"/><path d="M 253 100v 9h 4.5a 4.5 4.5, 0, 0, 0, 0 -9" transform="rotate(90,257.5,104.5)"/><path d="M 253 118v 9h 4.5a 4.5 4.5, 0, 0, 0, 0 -9" transform="rotate(180,257.5,122.5)"/><rect width="9" height="9" x="253" y="136" transform="rotate(0,257.5,140.5)"/><path d="M 253 145v 9h 9a 9 9, 0, 0, 0, -9 -9" transform="rotate(180,257.5,149.5)"/><path d="M 253 172v 9h 9a 9 9, 0, 0, 0, -9 -9" transform="rotate(0,257.5,176.5)"/><path d="M 253 181v 9h 9a 9 9, 0, 0, 0, -9 -9" transform="rotate(90,257.5,185.5)"/><rect width="9" height="9" x="253" y="199" transform="rotate(0,257.5,203.5)"/><path d="M 253 217v 9h 9a 9 9, 0, 0, 0, -9 -9" transform="rotate(0,257.5,221.5)"/><rect width="9" height="9" x="253" y="226" transform="rotate(0,257.5,230.5)"/><rect width="9" height="9" x="253" y="235" transform="rotate(0,257.5,239.5)"/><rect width="9" height="9" x="253" y="244" transform="rotate(0,257.5,248.5)"/><rect width="9" height="9" x="253" y="253" transform="rotate(0,257.5,257.5)"/><circle cx="257.5" cy="284.5" r="4.5" transform="rotate(0,257.5,284.5)"/><path d="M 262 82v 9h 4.5a 4.5 4.5, 0, 0, 0, 0 -9" transform="rotate(180,266.5,86.5)"/><path d="M 262 109v 9h 9a 9 9, 0, 0, 0, -9 -9" transform="rotate(-90,266.5,113.5)"/><rect width="9" height="9" x="262" y="118" transform="rotate(0,266.5,122.5)"/><rect width="9" height="9" x="262" y="127" transform="rotate(0,266.5,131.5)"/><rect width="9" height="9" x="262" y="136" transform="rotate(0,266.5,140.5)"/><rect width="9" height="9" x="262" y="145" transform="rotate(0,266.5,149.5)"/><path d="M 262 163v 9h 4.5a 4.5 4.5, 0, 0, 0, 0 -9" transform="rotate(180,266.5,167.5)"/><path d="M 262 199v 9h 4.5a 4.5 4.5, 0, 0, 0, 0 -9" transform="rotate(0,266.5,203.5)"/><rect width="9" height="9" x="262" y="253" transform="rotate(0,266.5,257.5)"/><path d="M 262 262v 9h 9a 9 9, 0, 0, 0, -9 -9" transform="rotate(180,266.5,266.5)"/><path d="M 271 73v 9h 4.5a 4.5 4.5, 0, 0, 0, 0 -9" transform="rotate(-90,275.5,77.5)"/><rect width="9" height="9" x="271" y="82" transform="rotate(0,275.5,86.5)"/><path d="M 271 91v 9h 9a 9 9, 0, 0, 0, -9 -9" transform="rotate(180,275.5,95.5)"/><rect width="9" height="9" x="271" y="109" transform="rotate(0,275.5,113.5)"/><rect width="9" height="9" x="271" y="127" transform="rotate(0,275.5,131.5)"/><rect width="9" height="9" x="271" y="136" transform="rotate(0,275.5,140.5)"/><rect width="9" height="9" x="271" y="145" transform="rotate(0,275.5,149.5)"/><rect width="9" height="9" x="271" y="163" transform="rotate(0,275.5,167.5)"/><path d="M 271 172v 9h 4.5a 4.5 4.5, 0, 0, 0, 0 -9" transform="rotate(90,275.5,176.5)"/><circle cx="275.5" cy="194.5" r="4.5" transform="rotate(0,275.5,194.5)"/><path d="M 271 208v 9h 4.5a 4.5 4.5, 0, 0, 0, 0 -9" transform="rotate(180,275.5,212.5)"/><path d="M 271 226v 9h 4.5a 4.5 4.5, 0, 0, 0, 0 -9" transform="rotate(180,275.5,230.5)"/><path d="M 271 244v 9h 9a 9 9, 0, 0, 0, -9 -9" transform="rotate(-90,275.5,248.5)"/><rect width="9" height="9" x="271" y="253" transform="rotate(0,275.5,257.5)"/><rect width="9" height="9" x="271" y="262" transform="rotate(0,275.5,266.5)"/><path d="M 271 271v 9h 4.5a 4.5 4.5, 0, 0, 0, 0 -9" transform="rotate(90,275.5,275.5)"/><circle cx="275.5" cy="293.5" r="4.5" transform="rotate(0,275.5,293.5)"/><path d="M 280 82v 9h 9a 9 9, 0, 0, 0, -9 -9" transform="rotate(0,284.5,86.5)"/><rect width="9" height="9" x="280" y="91" transform="rotate(0,284.5,95.5)"/><rect width="9" height="9" x="280" y="100" transform="rotate(0,284.5,104.5)"/><rect width="9" height="9" x="280" y="109" transform="rotate(0,284.5,113.5)"/><rect width="9" height="9" x="280" y="127" transform="rotate(0,284.5,131.5)"/><rect width="9" height="9" x="280" y="145" transform="rotate(0,284.5,149.5)"/><path d="M 280 163v 9h 4.5a 4.5 4.5, 0, 0, 0, 0 -9" transform="rotate(0,284.5,167.5)"/><path d="M 280 208v 9h 9a 9 9, 0, 0, 0, -9 -9" transform="rotate(0,284.5,212.5)"/><rect width="9" height="9" x="280" y="217" transform="rotate(0,284.5,221.5)"/><path d="M 280 226v 9h 9a 9 9, 0, 0, 0, -9 -9" transform="rotate(90,284.5,230.5)"/><rect width="9" height="9" x="280" y="244" transform="rotate(0,284.5,248.5)"/><rect width="9" height="9" x="280" y="262" transform="rotate(0,284.5,266.5)"/><path d="M 280 280v 9h 4.5a 4.5 4.5, 0, 0, 0, 0 -9" transform="rotate(180,284.5,284.5)"/><path d="M 289 109v 9h 9a 9 9, 0, 0, 0, -9 -9" transform="rotate(0,293.5,113.5)"/><rect width="9" height="9" x="289" y="118" transform="rotate(0,293.5,122.5)"/><rect width="9" height="9" x="289" y="127" transform="rotate(0,293.5,131.5)"/><rect width="9" height="9" x="289" y="136" transform="rotate(0,293.5,140.5)"/><path d="M 289 145v 9h 9a 9 9, 0, 0, 0, -9 -9" transform="rotate(90,293.5,149.5)"/><circle cx="293.5" cy="185.5" r="4.5" transform="rotate(0,293.5,185.5)"/><path d="M 289 217v 9h 4.5a 4.5 4.5, 0, 0, 0, 0 -9" transform="rotate(0,293.5,221.5)"/><path d="M 289 244v 9h 9a 9 9, 0, 0, 0, -9 -9" transform="rotate(0,293.5,248.5)"/><rect width="9" height="9" x="289" y="253" transform="rotate(0,293.5,257.5)"/><rect width="9" height="9" x="289" y="262" transform="rotate(0,293.5,266.5)"/><rect width="9" height="9" x="289" y="271" transform="rotate(0,293.5,275.5)"/><rect width="9" height="9" x="289" y="280" transform="rotate(0,293.5,284.5)"/><path d="M 289 289v 9h 4.5a 4.5 4.5, 0, 0, 0, 0 -9" transform="rotate(90,293.5,293.5)"/></g><g class="corners-square-color-0-0"><path d="M 1 23.5v 18a 22.5 22.5, 0, 0, 0, 22.5 22.5h 18a 22.5 22.5, 0, 0, 0, 22.5 -22.5v -18a 22.5 22.5, 0, 0, 0, -22.5 -22.5h -18a 22.5 22.5, 0, 0, 0, -22.5 22.5M 23.5 10h 18a 13.5 13.5, 0, 0, 1, 13.5 13.5v 18a 13.5 13.5, 0, 0, 1, -13.5 13.5h -18a 13.5 13.5, 0, 0, 1, -13.5 -13.5v -18a 13.5 13.5, 0, 0, 1, 13.5 -13.5" clip-rule="evenodd" transform="rotate(0,32.5,32.5)"/></g><g class="corners-dot-color-0-0"><circle cx="32.5" cy="32.5" r="13.5" transform="rotate(0,32.5,32.5)"/></g><g class="corners-square-color-1-0"><path d="M 235 23.5v 18a 22.5 22.5, 0, 0, 0, 22.5 22.5h 18a 22.5 22.5, 0, 0, 0, 22.5 -22.5v -18a 22.5 22.5, 0, 0, 0, -22.5 -22.5h -18a 22.5 22.5, 0, 0, 0, -22.5 22.5M 257.5 10h 18a 13.5 13.5, 0, 0, 1, 13.5 13.5v 18a 13.5 13.5, 0, 0, 1, -13.5 13.5h -18a 13.5 13.5, 0, 0, 1, -13.5 -13.5v -18a 13.5 13.5, 0, 0, 1, 13.5 -13.5" clip-rule="evenodd" transform="rotate(90,266.5,32.5)"/></g><g class="corners-dot-color-1-0"><circle cx="266.5" cy="32.5" r="13.5" transform="rotate(90,266.5,32.5)"/></g><g class="corners-square-color-0-1"><path d="M 1 257.5v 18a 22.5 22.5, 0, 0, 0, 22.5 22.5h 18a 22.5 22.5, 0, 0, 0, 22.5 -22.5v -18a 22.5 22.5, 0, 0, 0, -22.5 -22.5h -18a 22.5 22.5, 0, 0, 0, -22.5 22.5M 23.5 244h 18a 13.5 13.5, 0, 0, 1, 13.5 13.5v 18a 13.5 13.5, 0, 0, 1, -13.5 13.5h -18a 13.5 13.5, 0, 0, 1, -13.5 -13.5v -18a 13.5 13.5, 0, 0, 1, 13.5 -13.5" clip-rule="evenodd" transform="rotate(-90,32.5,266.5)"/></g><g class="corners-dot-color-0-1"><circle cx="32.5" cy="266.5" r="13.5" transform="rotate(-90,32.5,266.5)"/></g><svg xmlns="http://www.w3.org/2000/svg" id="githubLogotype" width="77" height="75" x="111" y="112" viewBox="0 0 51 50"><circle cx="25.5" cy="25" r="25" fill="#000"/><path fill="#fff" d="M25.5 4C13.8975 4 4.5 13.3975 4.5 25C4.5 34.2925 10.5112 42.1413 18.8587 44.9238C19.9087 45.1075 20.3025 44.4775 20.3025 43.9263C20.3025 43.4275 20.2763 41.7738 20.2763 40.015C15 40.9863 13.635 38.7287 13.215 37.5475C12.9788 36.9437 11.955 35.08 11.0625 34.5812C10.3275 34.1875 9.2775 33.2162 11.0363 33.19C12.69 33.1637 13.8713 34.7125 14.265 35.3425C16.155 38.5187 19.1738 37.6263 20.3813 37.075C20.565 35.71 21.1162 34.7913 21.72 34.2662C17.0475 33.7412 12.165 31.93 12.165 23.8975C12.165 21.6138 12.9788 19.7237 14.3175 18.2537C14.1075 17.7287 13.3725 15.5763 14.5275 12.6888C14.5275 12.6888 16.2863 12.1375 20.3025 14.8413C21.9825 14.3688 23.7675 14.1325 25.5525 14.1325C27.3375 14.1325 29.1225 14.3688 30.8025 14.8413C34.8188 12.1112 36.5775 12.6888 36.5775 12.6888C37.7325 15.5763 36.9975 17.7287 36.7875 18.2537C38.1263 19.7237 38.94 21.5875 38.94 23.8975C38.94 31.9562 34.0312 33.7412 29.3588 34.2662C30.12 34.9225 30.7763 36.1825 30.7763 38.1512C30.7763 40.96 30.75 43.2175 30.75 43.9263C30.75 44.4775 31.1438 45.1338 32.1938 44.9238C36.3626 43.5164 39.9852 40.8371 42.5516 37.263C45.1179 33.6889 46.4989 29.4 46.5 25C46.5 13.3975 37.1025 4 25.5 4Z"/></svg></svg></g></svg></svg>