<svg id="svgQrWrapper" viewBox="0 0 300 300" xmlns="http://www.w3.org/2000/svg" xmlns:xlink="http://www.w3.org/1999/xlink" style="width: 100%; height: 100%; background-color: rgb(255, 255, 255);"><svg><g transform="translate(9, 9)scale(0.95)" fill="none"><svg width="300" height="300"><style>.background-color{ fill: #fff; }.dot-color{ fill: #000000; }.corners-square-color-0-0{ fill: #000000; }.corners-dot-color-0-0{ fill: #000000; }.corners-square-color-1-0{ fill: #000000; }.corners-dot-color-1-0{ fill: #000000; }.corners-square-color-0-1{ fill: #000000; }.corners-dot-color-0-1{ fill: #000000; }</style><defs/><g class="dot-color"><circle cx="5.5" cy="95.5" r="4.5" transform="rotate(0,5.5,95.5)"/><circle cx="5.5" cy="113.5" r="4.5" transform="rotate(0,5.5,113.5)"/><circle cx="5.5" cy="149.5" r="4.5" transform="rotate(0,5.5,149.5)"/><circle cx="5.5" cy="185.5" r="4.5" transform="rotate(0,5.5,185.5)"/><circle cx="5.5" cy="194.5" r="4.5" transform="rotate(0,5.5,194.5)"/><circle cx="5.5" cy="212.5" r="4.5" transform="rotate(0,5.5,212.5)"/><circle cx="5.5" cy="221.5" r="4.5" transform="rotate(0,5.5,221.5)"/><circle cx="14.5" cy="86.5" r="4.5" transform="rotate(0,14.5,86.5)"/><circle cx="14.5" cy="104.5" r="4.5" transform="rotate(0,14.5,104.5)"/><circle cx="14.5" cy="149.5" r="4.5" transform="rotate(0,14.5,149.5)"/><circle cx="14.5" cy="167.5" r="4.5" transform="rotate(0,14.5,167.5)"/><circle cx="14.5" cy="176.5" r="4.5" transform="rotate(0,14.5,176.5)"/><circle cx="14.5" cy="185.5" r="4.5" transform="rotate(0,14.5,185.5)"/><circle cx="14.5" cy="194.5" r="4.5" transform="rotate(0,14.5,194.5)"/><circle cx="14.5" cy="212.5" r="4.5" transform="rotate(0,14.5,212.5)"/><circle cx="23.5" cy="95.5" r="4.5" transform="rotate(0,23.5,95.5)"/><circle cx="23.5" cy="104.5" r="4.5" transform="rotate(0,23.5,104.5)"/><circle cx="23.5" cy="122.5" r="4.5" transform="rotate(0,23.5,122.5)"/><circle cx="23.5" cy="149.5" r="4.5" transform="rotate(0,23.5,149.5)"/><circle cx="23.5" cy="167.5" r="4.5" transform="rotate(0,23.5,167.5)"/><circle cx="23.5" cy="176.5" r="4.5" transform="rotate(0,23.5,176.5)"/><circle cx="23.5" cy="185.5" r="4.5" transform="rotate(0,23.5,185.5)"/><circle cx="23.5" cy="212.5" r="4.5" transform="rotate(0,23.5,212.5)"/><circle cx="32.5" cy="95.5" r="4.5" transform="rotate(0,32.5,95.5)"/><circle cx="32.5" cy="122.5" r="4.5" transform="rotate(0,32.5,122.5)"/><circle cx="32.5" cy="140.5" r="4.5" transform="rotate(0,32.5,140.5)"/><circle cx="32.5" cy="203.5" r="4.5" transform="rotate(0,32.5,203.5)"/><circle cx="32.5" cy="212.5" r="4.5" transform="rotate(0,32.5,212.5)"/><circle cx="41.5" cy="77.5" r="4.5" transform="rotate(0,41.5,77.5)"/><circle cx="41.5" cy="86.5" r="4.5" transform="rotate(0,41.5,86.5)"/><circle cx="41.5" cy="104.5" r="4.5" transform="rotate(0,41.5,104.5)"/><circle cx="41.5" cy="158.5" r="4.5" transform="rotate(0,41.5,158.5)"/><circle cx="41.5" cy="167.5" r="4.5" transform="rotate(0,41.5,167.5)"/><circle cx="41.5" cy="176.5" r="4.5" transform="rotate(0,41.5,176.5)"/><circle cx="41.5" cy="185.5" r="4.5" transform="rotate(0,41.5,185.5)"/><circle cx="41.5" cy="212.5" r="4.5" transform="rotate(0,41.5,212.5)"/><circle cx="50.5" cy="86.5" r="4.5" transform="rotate(0,50.5,86.5)"/><circle cx="50.5" cy="113.5" r="4.5" transform="rotate(0,50.5,113.5)"/><circle cx="50.5" cy="122.5" r="4.5" transform="rotate(0,50.5,122.5)"/><circle cx="50.5" cy="131.5" r="4.5" transform="rotate(0,50.5,131.5)"/><circle cx="50.5" cy="140.5" r="4.5" transform="rotate(0,50.5,140.5)"/><circle cx="50.5" cy="221.5" r="4.5" transform="rotate(0,50.5,221.5)"/><circle cx="59.5" cy="77.5" r="4.5" transform="rotate(0,59.5,77.5)"/><circle cx="59.5" cy="95.5" r="4.5" transform="rotate(0,59.5,95.5)"/><circle cx="59.5" cy="113.5" r="4.5" transform="rotate(0,59.5,113.5)"/><circle cx="59.5" cy="131.5" r="4.5" transform="rotate(0,59.5,131.5)"/><circle cx="59.5" cy="149.5" r="4.5" transform="rotate(0,59.5,149.5)"/><circle cx="59.5" cy="167.5" r="4.5" transform="rotate(0,59.5,167.5)"/><circle cx="59.5" cy="185.5" r="4.5" transform="rotate(0,59.5,185.5)"/><circle cx="59.5" cy="203.5" r="4.5" transform="rotate(0,59.5,203.5)"/><circle cx="59.5" cy="221.5" r="4.5" transform="rotate(0,59.5,221.5)"/><circle cx="68.5" cy="77.5" r="4.5" transform="rotate(0,68.5,77.5)"/><circle cx="68.5" cy="95.5" r="4.5" transform="rotate(0,68.5,95.5)"/><circle cx="68.5" cy="104.5" r="4.5" transform="rotate(0,68.5,104.5)"/><circle cx="68.5" cy="113.5" r="4.5" transform="rotate(0,68.5,113.5)"/><circle cx="68.5" cy="122.5" r="4.5" transform="rotate(0,68.5,122.5)"/><circle cx="68.5" cy="131.5" r="4.5" transform="rotate(0,68.5,131.5)"/><circle cx="68.5" cy="158.5" r="4.5" transform="rotate(0,68.5,158.5)"/><circle cx="68.5" cy="203.5" r="4.5" transform="rotate(0,68.5,203.5)"/><circle cx="68.5" cy="212.5" r="4.5" transform="rotate(0,68.5,212.5)"/><circle cx="77.5" cy="23.5" r="4.5" transform="rotate(0,77.5,23.5)"/><circle cx="77.5" cy="32.5" r="4.5" transform="rotate(0,77.5,32.5)"/><circle cx="77.5" cy="59.5" r="4.5" transform="rotate(0,77.5,59.5)"/><circle cx="77.5" cy="68.5" r="4.5" transform="rotate(0,77.5,68.5)"/><circle cx="77.5" cy="77.5" r="4.5" transform="rotate(0,77.5,77.5)"/><circle cx="77.5" cy="86.5" r="4.5" transform="rotate(0,77.5,86.5)"/><circle cx="77.5" cy="131.5" r="4.5" transform="rotate(0,77.5,131.5)"/><circle cx="77.5" cy="140.5" r="4.5" transform="rotate(0,77.5,140.5)"/><circle cx="77.5" cy="167.5" r="4.5" transform="rotate(0,77.5,167.5)"/><circle cx="77.5" cy="185.5" r="4.5" transform="rotate(0,77.5,185.5)"/><circle cx="77.5" cy="194.5" r="4.5" transform="rotate(0,77.5,194.5)"/><circle cx="77.5" cy="221.5" r="4.5" transform="rotate(0,77.5,221.5)"/><circle cx="77.5" cy="230.5" r="4.5" transform="rotate(0,77.5,230.5)"/><circle cx="77.5" cy="239.5" r="4.5" transform="rotate(0,77.5,239.5)"/><circle cx="77.5" cy="257.5" r="4.5" transform="rotate(0,77.5,257.5)"/><circle cx="86.5" cy="23.5" r="4.5" transform="rotate(0,86.5,23.5)"/><circle cx="86.5" cy="32.5" r="4.5" transform="rotate(0,86.5,32.5)"/><circle cx="86.5" cy="50.5" r="4.5" transform="rotate(0,86.5,50.5)"/><circle cx="86.5" cy="95.5" r="4.5" transform="rotate(0,86.5,95.5)"/><circle cx="86.5" cy="113.5" r="4.5" transform="rotate(0,86.5,113.5)"/><circle cx="86.5" cy="122.5" r="4.5" transform="rotate(0,86.5,122.5)"/><circle cx="86.5" cy="131.5" r="4.5" transform="rotate(0,86.5,131.5)"/><circle cx="86.5" cy="140.5" r="4.5" transform="rotate(0,86.5,140.5)"/><circle cx="86.5" cy="149.5" r="4.5" transform="rotate(0,86.5,149.5)"/><circle cx="86.5" cy="158.5" r="4.5" transform="rotate(0,86.5,158.5)"/><circle cx="86.5" cy="176.5" r="4.5" transform="rotate(0,86.5,176.5)"/><circle cx="86.5" cy="203.5" r="4.5" transform="rotate(0,86.5,203.5)"/><circle cx="86.5" cy="212.5" r="4.5" transform="rotate(0,86.5,212.5)"/><circle cx="86.5" cy="221.5" r="4.5" transform="rotate(0,86.5,221.5)"/><circle cx="86.5" cy="230.5" r="4.5" transform="rotate(0,86.5,230.5)"/><circle cx="86.5" cy="239.5" r="4.5" transform="rotate(0,86.5,239.5)"/><circle cx="86.5" cy="266.5" r="4.5" transform="rotate(0,86.5,266.5)"/><circle cx="86.5" cy="293.5" r="4.5" transform="rotate(0,86.5,293.5)"/><circle cx="95.5" cy="5.5" r="4.5" transform="rotate(0,95.5,5.5)"/><circle cx="95.5" cy="14.5" r="4.5" transform="rotate(0,95.5,14.5)"/><circle cx="95.5" cy="23.5" r="4.5" transform="rotate(0,95.5,23.5)"/><circle cx="95.5" cy="50.5" r="4.5" transform="rotate(0,95.5,50.5)"/><circle cx="95.5" cy="59.5" r="4.5" transform="rotate(0,95.5,59.5)"/><circle cx="95.5" cy="68.5" r="4.5" transform="rotate(0,95.5,68.5)"/><circle cx="95.5" cy="95.5" r="4.5" transform="rotate(0,95.5,95.5)"/><circle cx="95.5" cy="104.5" r="4.5" transform="rotate(0,95.5,104.5)"/><circle cx="95.5" cy="113.5" r="4.5" transform="rotate(0,95.5,113.5)"/><circle cx="95.5" cy="122.5" r="4.5" transform="rotate(0,95.5,122.5)"/><circle cx="95.5" cy="158.5" r="4.5" transform="rotate(0,95.5,158.5)"/><circle cx="95.5" cy="167.5" r="4.5" transform="rotate(0,95.5,167.5)"/><circle cx="95.5" cy="185.5" r="4.5" transform="rotate(0,95.5,185.5)"/><circle cx="95.5" cy="194.5" r="4.5" transform="rotate(0,95.5,194.5)"/><circle cx="95.5" cy="203.5" r="4.5" transform="rotate(0,95.5,203.5)"/><circle cx="95.5" cy="212.5" r="4.5" transform="rotate(0,95.5,212.5)"/><circle cx="95.5" cy="221.5" r="4.5" transform="rotate(0,95.5,221.5)"/><circle cx="95.5" cy="239.5" r="4.5" transform="rotate(0,95.5,239.5)"/><circle cx="95.5" cy="275.5" r="4.5" transform="rotate(0,95.5,275.5)"/><circle cx="95.5" cy="284.5" r="4.5" transform="rotate(0,95.5,284.5)"/><circle cx="95.5" cy="293.5" r="4.5" transform="rotate(0,95.5,293.5)"/><circle cx="104.5" cy="50.5" r="4.5" transform="rotate(0,104.5,50.5)"/><circle cx="104.5" cy="113.5" r="4.5" transform="rotate(0,104.5,113.5)"/><circle cx="104.5" cy="131.5" r="4.5" transform="rotate(0,104.5,131.5)"/><circle cx="104.5" cy="140.5" r="4.5" transform="rotate(0,104.5,140.5)"/><circle cx="104.5" cy="149.5" r="4.5" transform="rotate(0,104.5,149.5)"/><circle cx="104.5" cy="176.5" r="4.5" transform="rotate(0,104.5,176.5)"/><circle cx="104.5" cy="185.5" r="4.5" transform="rotate(0,104.5,185.5)"/><circle cx="104.5" cy="194.5" r="4.5" transform="rotate(0,104.5,194.5)"/><circle cx="104.5" cy="203.5" r="4.5" transform="rotate(0,104.5,203.5)"/><circle cx="104.5" cy="212.5" r="4.5" transform="rotate(0,104.5,212.5)"/><circle cx="104.5" cy="248.5" r="4.5" transform="rotate(0,104.5,248.5)"/><circle cx="104.5" cy="257.5" r="4.5" transform="rotate(0,104.5,257.5)"/><circle cx="104.5" cy="266.5" r="4.5" transform="rotate(0,104.5,266.5)"/><circle cx="113.5" cy="5.5" r="4.5" transform="rotate(0,113.5,5.5)"/><circle cx="113.5" cy="14.5" r="4.5" transform="rotate(0,113.5,14.5)"/><circle cx="113.5" cy="32.5" r="4.5" transform="rotate(0,113.5,32.5)"/><circle cx="113.5" cy="59.5" r="4.5" transform="rotate(0,113.5,59.5)"/><circle cx="113.5" cy="68.5" r="4.5" transform="rotate(0,113.5,68.5)"/><circle cx="113.5" cy="86.5" r="4.5" transform="rotate(0,113.5,86.5)"/><circle cx="113.5" cy="194.5" r="4.5" transform="rotate(0,113.5,194.5)"/><circle cx="113.5" cy="203.5" r="4.5" transform="rotate(0,113.5,203.5)"/><circle cx="113.5" cy="221.5" r="4.5" transform="rotate(0,113.5,221.5)"/><circle cx="113.5" cy="230.5" r="4.5" transform="rotate(0,113.5,230.5)"/><circle cx="113.5" cy="248.5" r="4.5" transform="rotate(0,113.5,248.5)"/><circle cx="113.5" cy="284.5" r="4.5" transform="rotate(0,113.5,284.5)"/><circle cx="113.5" cy="293.5" r="4.5" transform="rotate(0,113.5,293.5)"/><circle cx="122.5" cy="32.5" r="4.5" transform="rotate(0,122.5,32.5)"/><circle cx="122.5" cy="50.5" r="4.5" transform="rotate(0,122.5,50.5)"/><circle cx="122.5" cy="68.5" r="4.5" transform="rotate(0,122.5,68.5)"/><circle cx="122.5" cy="77.5" r="4.5" transform="rotate(0,122.5,77.5)"/><circle cx="122.5" cy="104.5" r="4.5" transform="rotate(0,122.5,104.5)"/><circle cx="122.5" cy="194.5" r="4.5" transform="rotate(0,122.5,194.5)"/><circle cx="122.5" cy="221.5" r="4.5" transform="rotate(0,122.5,221.5)"/><circle cx="122.5" cy="230.5" r="4.5" transform="rotate(0,122.5,230.5)"/><circle cx="122.5" cy="248.5" r="4.5" transform="rotate(0,122.5,248.5)"/><circle cx="122.5" cy="257.5" r="4.5" transform="rotate(0,122.5,257.5)"/><circle cx="122.5" cy="275.5" r="4.5" transform="rotate(0,122.5,275.5)"/><circle cx="131.5" cy="5.5" r="4.5" transform="rotate(0,131.5,5.5)"/><circle cx="131.5" cy="14.5" r="4.5" transform="rotate(0,131.5,14.5)"/><circle cx="131.5" cy="23.5" r="4.5" transform="rotate(0,131.5,23.5)"/><circle cx="131.5" cy="32.5" r="4.5" transform="rotate(0,131.5,32.5)"/><circle cx="131.5" cy="59.5" r="4.5" transform="rotate(0,131.5,59.5)"/><circle cx="131.5" cy="68.5" r="4.5" transform="rotate(0,131.5,68.5)"/><circle cx="131.5" cy="77.5" r="4.5" transform="rotate(0,131.5,77.5)"/><circle cx="131.5" cy="95.5" r="4.5" transform="rotate(0,131.5,95.5)"/><circle cx="131.5" cy="194.5" r="4.5" transform="rotate(0,131.5,194.5)"/><circle cx="131.5" cy="230.5" r="4.5" transform="rotate(0,131.5,230.5)"/><circle cx="131.5" cy="239.5" r="4.5" transform="rotate(0,131.5,239.5)"/><circle cx="131.5" cy="275.5" r="4.5" transform="rotate(0,131.5,275.5)"/><circle cx="140.5" cy="5.5" r="4.5" transform="rotate(0,140.5,5.5)"/><circle cx="140.5" cy="32.5" r="4.5" transform="rotate(0,140.5,32.5)"/><circle cx="140.5" cy="41.5" r="4.5" transform="rotate(0,140.5,41.5)"/><circle cx="140.5" cy="50.5" r="4.5" transform="rotate(0,140.5,50.5)"/><circle cx="140.5" cy="86.5" r="4.5" transform="rotate(0,140.5,86.5)"/><circle cx="140.5" cy="95.5" r="4.5" transform="rotate(0,140.5,95.5)"/><circle cx="140.5" cy="194.5" r="4.5" transform="rotate(0,140.5,194.5)"/><circle cx="140.5" cy="203.5" r="4.5" transform="rotate(0,140.5,203.5)"/><circle cx="140.5" cy="212.5" r="4.5" transform="rotate(0,140.5,212.5)"/><circle cx="140.5" cy="257.5" r="4.5" transform="rotate(0,140.5,257.5)"/><circle cx="140.5" cy="266.5" r="4.5" transform="rotate(0,140.5,266.5)"/><circle cx="140.5" cy="293.5" r="4.5" transform="rotate(0,140.5,293.5)"/><circle cx="149.5" cy="14.5" r="4.5" transform="rotate(0,149.5,14.5)"/><circle cx="149.5" cy="23.5" r="4.5" transform="rotate(0,149.5,23.5)"/><circle cx="149.5" cy="41.5" r="4.5" transform="rotate(0,149.5,41.5)"/><circle cx="149.5" cy="59.5" r="4.5" transform="rotate(0,149.5,59.5)"/><circle cx="149.5" cy="77.5" r="4.5" transform="rotate(0,149.5,77.5)"/><circle cx="149.5" cy="194.5" r="4.5" transform="rotate(0,149.5,194.5)"/><circle cx="149.5" cy="221.5" r="4.5" transform="rotate(0,149.5,221.5)"/><circle cx="149.5" cy="230.5" r="4.5" transform="rotate(0,149.5,230.5)"/><circle cx="149.5" cy="239.5" r="4.5" transform="rotate(0,149.5,239.5)"/><circle cx="149.5" cy="266.5" r="4.5" transform="rotate(0,149.5,266.5)"/><circle cx="158.5" cy="5.5" r="4.5" transform="rotate(0,158.5,5.5)"/><circle cx="158.5" cy="23.5" r="4.5" transform="rotate(0,158.5,23.5)"/><circle cx="158.5" cy="41.5" r="4.5" transform="rotate(0,158.5,41.5)"/><circle cx="158.5" cy="50.5" r="4.5" transform="rotate(0,158.5,50.5)"/><circle cx="158.5" cy="77.5" r="4.5" transform="rotate(0,158.5,77.5)"/><circle cx="158.5" cy="194.5" r="4.5" transform="rotate(0,158.5,194.5)"/><circle cx="158.5" cy="203.5" r="4.5" transform="rotate(0,158.5,203.5)"/><circle cx="158.5" cy="212.5" r="4.5" transform="rotate(0,158.5,212.5)"/><circle cx="158.5" cy="239.5" r="4.5" transform="rotate(0,158.5,239.5)"/><circle cx="158.5" cy="248.5" r="4.5" transform="rotate(0,158.5,248.5)"/><circle cx="158.5" cy="257.5" r="4.5" transform="rotate(0,158.5,257.5)"/><circle cx="158.5" cy="275.5" r="4.5" transform="rotate(0,158.5,275.5)"/><circle cx="158.5" cy="284.5" r="4.5" transform="rotate(0,158.5,284.5)"/><circle cx="167.5" cy="5.5" r="4.5" transform="rotate(0,167.5,5.5)"/><circle cx="167.5" cy="23.5" r="4.5" transform="rotate(0,167.5,23.5)"/><circle cx="167.5" cy="32.5" r="4.5" transform="rotate(0,167.5,32.5)"/><circle cx="167.5" cy="41.5" r="4.5" transform="rotate(0,167.5,41.5)"/><circle cx="167.5" cy="59.5" r="4.5" transform="rotate(0,167.5,59.5)"/><circle cx="167.5" cy="86.5" r="4.5" transform="rotate(0,167.5,86.5)"/><circle cx="167.5" cy="104.5" r="4.5" transform="rotate(0,167.5,104.5)"/><circle cx="167.5" cy="203.5" r="4.5" transform="rotate(0,167.5,203.5)"/><circle cx="167.5" cy="248.5" r="4.5" transform="rotate(0,167.5,248.5)"/><circle cx="167.5" cy="275.5" r="4.5" transform="rotate(0,167.5,275.5)"/><circle cx="176.5" cy="23.5" r="4.5" transform="rotate(0,176.5,23.5)"/><circle cx="176.5" cy="32.5" r="4.5" transform="rotate(0,176.5,32.5)"/><circle cx="176.5" cy="41.5" r="4.5" transform="rotate(0,176.5,41.5)"/><circle cx="176.5" cy="50.5" r="4.5" transform="rotate(0,176.5,50.5)"/><circle cx="176.5" cy="68.5" r="4.5" transform="rotate(0,176.5,68.5)"/><circle cx="176.5" cy="77.5" r="4.5" transform="rotate(0,176.5,77.5)"/><circle cx="176.5" cy="86.5" r="4.5" transform="rotate(0,176.5,86.5)"/><circle cx="176.5" cy="104.5" r="4.5" transform="rotate(0,176.5,104.5)"/><circle cx="176.5" cy="203.5" r="4.5" transform="rotate(0,176.5,203.5)"/><circle cx="176.5" cy="230.5" r="4.5" transform="rotate(0,176.5,230.5)"/><circle cx="176.5" cy="239.5" r="4.5" transform="rotate(0,176.5,239.5)"/><circle cx="176.5" cy="248.5" r="4.5" transform="rotate(0,176.5,248.5)"/><circle cx="185.5" cy="14.5" r="4.5" transform="rotate(0,185.5,14.5)"/><circle cx="185.5" cy="23.5" r="4.5" transform="rotate(0,185.5,23.5)"/><circle cx="185.5" cy="32.5" r="4.5" transform="rotate(0,185.5,32.5)"/><circle cx="185.5" cy="50.5" r="4.5" transform="rotate(0,185.5,50.5)"/><circle cx="185.5" cy="59.5" r="4.5" transform="rotate(0,185.5,59.5)"/><circle cx="185.5" cy="86.5" r="4.5" transform="rotate(0,185.5,86.5)"/><circle cx="185.5" cy="95.5" r="4.5" transform="rotate(0,185.5,95.5)"/><circle cx="185.5" cy="104.5" r="4.5" transform="rotate(0,185.5,104.5)"/><circle cx="185.5" cy="194.5" r="4.5" transform="rotate(0,185.5,194.5)"/><circle cx="185.5" cy="230.5" r="4.5" transform="rotate(0,185.5,230.5)"/><circle cx="185.5" cy="248.5" r="4.5" transform="rotate(0,185.5,248.5)"/><circle cx="185.5" cy="266.5" r="4.5" transform="rotate(0,185.5,266.5)"/><circle cx="185.5" cy="275.5" r="4.5" transform="rotate(0,185.5,275.5)"/><circle cx="185.5" cy="284.5" r="4.5" transform="rotate(0,185.5,284.5)"/><circle cx="185.5" cy="293.5" r="4.5" transform="rotate(0,185.5,293.5)"/><circle cx="194.5" cy="5.5" r="4.5" transform="rotate(0,194.5,5.5)"/><circle cx="194.5" cy="14.5" r="4.5" transform="rotate(0,194.5,14.5)"/><circle cx="194.5" cy="50.5" r="4.5" transform="rotate(0,194.5,50.5)"/><circle cx="194.5" cy="104.5" r="4.5" transform="rotate(0,194.5,104.5)"/><circle cx="194.5" cy="122.5" r="4.5" transform="rotate(0,194.5,122.5)"/><circle cx="194.5" cy="131.5" r="4.5" transform="rotate(0,194.5,131.5)"/><circle cx="194.5" cy="140.5" r="4.5" transform="rotate(0,194.5,140.5)"/><circle cx="194.5" cy="149.5" r="4.5" transform="rotate(0,194.5,149.5)"/><circle cx="194.5" cy="185.5" r="4.5" transform="rotate(0,194.5,185.5)"/><circle cx="194.5" cy="194.5" r="4.5" transform="rotate(0,194.5,194.5)"/><circle cx="194.5" cy="230.5" r="4.5" transform="rotate(0,194.5,230.5)"/><circle cx="194.5" cy="266.5" r="4.5" transform="rotate(0,194.5,266.5)"/><circle cx="194.5" cy="275.5" r="4.5" transform="rotate(0,194.5,275.5)"/><circle cx="194.5" cy="293.5" r="4.5" transform="rotate(0,194.5,293.5)"/><circle cx="203.5" cy="23.5" r="4.5" transform="rotate(0,203.5,23.5)"/><circle cx="203.5" cy="32.5" r="4.5" transform="rotate(0,203.5,32.5)"/><circle cx="203.5" cy="41.5" r="4.5" transform="rotate(0,203.5,41.5)"/><circle cx="203.5" cy="50.5" r="4.5" transform="rotate(0,203.5,50.5)"/><circle cx="203.5" cy="59.5" r="4.5" transform="rotate(0,203.5,59.5)"/><circle cx="203.5" cy="86.5" r="4.5" transform="rotate(0,203.5,86.5)"/><circle cx="203.5" cy="95.5" r="4.5" transform="rotate(0,203.5,95.5)"/><circle cx="203.5" cy="113.5" r="4.5" transform="rotate(0,203.5,113.5)"/><circle cx="203.5" cy="131.5" r="4.5" transform="rotate(0,203.5,131.5)"/><circle cx="203.5" cy="158.5" r="4.5" transform="rotate(0,203.5,158.5)"/><circle cx="203.5" cy="167.5" r="4.5" transform="rotate(0,203.5,167.5)"/><circle cx="203.5" cy="185.5" r="4.5" transform="rotate(0,203.5,185.5)"/><circle cx="203.5" cy="194.5" r="4.5" transform="rotate(0,203.5,194.5)"/><circle cx="203.5" cy="203.5" r="4.5" transform="rotate(0,203.5,203.5)"/><circle cx="203.5" cy="239.5" r="4.5" transform="rotate(0,203.5,239.5)"/><circle cx="203.5" cy="248.5" r="4.5" transform="rotate(0,203.5,248.5)"/><circle cx="203.5" cy="293.5" r="4.5" transform="rotate(0,203.5,293.5)"/><circle cx="212.5" cy="14.5" r="4.5" transform="rotate(0,212.5,14.5)"/><circle cx="212.5" cy="32.5" r="4.5" transform="rotate(0,212.5,32.5)"/><circle cx="212.5" cy="77.5" r="4.5" transform="rotate(0,212.5,77.5)"/><circle cx="212.5" cy="95.5" r="4.5" transform="rotate(0,212.5,95.5)"/><circle cx="212.5" cy="104.5" r="4.5" transform="rotate(0,212.5,104.5)"/><circle cx="212.5" cy="158.5" r="4.5" transform="rotate(0,212.5,158.5)"/><circle cx="212.5" cy="185.5" r="4.5" transform="rotate(0,212.5,185.5)"/><circle cx="212.5" cy="212.5" r="4.5" transform="rotate(0,212.5,212.5)"/><circle cx="212.5" cy="221.5" r="4.5" transform="rotate(0,212.5,221.5)"/><circle cx="212.5" cy="230.5" r="4.5" transform="rotate(0,212.5,230.5)"/><circle cx="212.5" cy="248.5" r="4.5" transform="rotate(0,212.5,248.5)"/><circle cx="221.5" cy="5.5" r="4.5" transform="rotate(0,221.5,5.5)"/><circle cx="221.5" cy="23.5" r="4.5" transform="rotate(0,221.5,23.5)"/><circle cx="221.5" cy="41.5" r="4.5" transform="rotate(0,221.5,41.5)"/><circle cx="221.5" cy="50.5" r="4.5" transform="rotate(0,221.5,50.5)"/><circle cx="221.5" cy="59.5" r="4.5" transform="rotate(0,221.5,59.5)"/><circle cx="221.5" cy="68.5" r="4.5" transform="rotate(0,221.5,68.5)"/><circle cx="221.5" cy="77.5" r="4.5" transform="rotate(0,221.5,77.5)"/><circle cx="221.5" cy="104.5" r="4.5" transform="rotate(0,221.5,104.5)"/><circle cx="221.5" cy="131.5" r="4.5" transform="rotate(0,221.5,131.5)"/><circle cx="221.5" cy="158.5" r="4.5" transform="rotate(0,221.5,158.5)"/><circle cx="221.5" cy="203.5" r="4.5" transform="rotate(0,221.5,203.5)"/><circle cx="221.5" cy="212.5" r="4.5" transform="rotate(0,221.5,212.5)"/><circle cx="221.5" cy="221.5" r="4.5" transform="rotate(0,221.5,221.5)"/><circle cx="221.5" cy="230.5" r="4.5" transform="rotate(0,221.5,230.5)"/><circle cx="221.5" cy="239.5" r="4.5" transform="rotate(0,221.5,239.5)"/><circle cx="221.5" cy="248.5" r="4.5" transform="rotate(0,221.5,248.5)"/><circle cx="221.5" cy="257.5" r="4.5" transform="rotate(0,221.5,257.5)"/><circle cx="221.5" cy="284.5" r="4.5" transform="rotate(0,221.5,284.5)"/><circle cx="221.5" cy="293.5" r="4.5" transform="rotate(0,221.5,293.5)"/><circle cx="230.5" cy="77.5" r="4.5" transform="rotate(0,230.5,77.5)"/><circle cx="230.5" cy="86.5" r="4.5" transform="rotate(0,230.5,86.5)"/><circle cx="230.5" cy="95.5" r="4.5" transform="rotate(0,230.5,95.5)"/><circle cx="230.5" cy="140.5" r="4.5" transform="rotate(0,230.5,140.5)"/><circle cx="230.5" cy="149.5" r="4.5" transform="rotate(0,230.5,149.5)"/><circle cx="230.5" cy="158.5" r="4.5" transform="rotate(0,230.5,158.5)"/><circle cx="230.5" cy="167.5" r="4.5" transform="rotate(0,230.5,167.5)"/><circle cx="230.5" cy="176.5" r="4.5" transform="rotate(0,230.5,176.5)"/><circle cx="230.5" cy="203.5" r="4.5" transform="rotate(0,230.5,203.5)"/><circle cx="230.5" cy="212.5" r="4.5" transform="rotate(0,230.5,212.5)"/><circle cx="230.5" cy="221.5" r="4.5" transform="rotate(0,230.5,221.5)"/><circle cx="230.5" cy="257.5" r="4.5" transform="rotate(0,230.5,257.5)"/><circle cx="230.5" cy="266.5" r="4.5" transform="rotate(0,230.5,266.5)"/><circle cx="239.5" cy="77.5" r="4.5" transform="rotate(0,239.5,77.5)"/><circle cx="239.5" cy="95.5" r="4.5" transform="rotate(0,239.5,95.5)"/><circle cx="239.5" cy="104.5" r="4.5" transform="rotate(0,239.5,104.5)"/><circle cx="239.5" cy="113.5" r="4.5" transform="rotate(0,239.5,113.5)"/><circle cx="239.5" cy="149.5" r="4.5" transform="rotate(0,239.5,149.5)"/><circle cx="239.5" cy="167.5" r="4.5" transform="rotate(0,239.5,167.5)"/><circle cx="239.5" cy="176.5" r="4.5" transform="rotate(0,239.5,176.5)"/><circle cx="239.5" cy="185.5" r="4.5" transform="rotate(0,239.5,185.5)"/><circle cx="239.5" cy="203.5" r="4.5" transform="rotate(0,239.5,203.5)"/><circle cx="239.5" cy="212.5" r="4.5" transform="rotate(0,239.5,212.5)"/><circle cx="239.5" cy="221.5" r="4.5" transform="rotate(0,239.5,221.5)"/><circle cx="239.5" cy="239.5" r="4.5" transform="rotate(0,239.5,239.5)"/><circle cx="239.5" cy="257.5" r="4.5" transform="rotate(0,239.5,257.5)"/><circle cx="239.5" cy="266.5" r="4.5" transform="rotate(0,239.5,266.5)"/><circle cx="239.5" cy="275.5" r="4.5" transform="rotate(0,239.5,275.5)"/><circle cx="248.5" cy="86.5" r="4.5" transform="rotate(0,248.5,86.5)"/><circle cx="248.5" cy="95.5" r="4.5" transform="rotate(0,248.5,95.5)"/><circle cx="248.5" cy="113.5" r="4.5" transform="rotate(0,248.5,113.5)"/><circle cx="248.5" cy="131.5" r="4.5" transform="rotate(0,248.5,131.5)"/><circle cx="248.5" cy="140.5" r="4.5" transform="rotate(0,248.5,140.5)"/><circle cx="248.5" cy="149.5" r="4.5" transform="rotate(0,248.5,149.5)"/><circle cx="248.5" cy="185.5" r="4.5" transform="rotate(0,248.5,185.5)"/><circle cx="248.5" cy="194.5" r="4.5" transform="rotate(0,248.5,194.5)"/><circle cx="248.5" cy="203.5" r="4.5" transform="rotate(0,248.5,203.5)"/><circle cx="248.5" cy="212.5" r="4.5" transform="rotate(0,248.5,212.5)"/><circle cx="248.5" cy="221.5" r="4.5" transform="rotate(0,248.5,221.5)"/><circle cx="248.5" cy="257.5" r="4.5" transform="rotate(0,248.5,257.5)"/><circle cx="248.5" cy="266.5" r="4.5" transform="rotate(0,248.5,266.5)"/><circle cx="248.5" cy="275.5" r="4.5" transform="rotate(0,248.5,275.5)"/><circle cx="248.5" cy="284.5" r="4.5" transform="rotate(0,248.5,284.5)"/><circle cx="248.5" cy="293.5" r="4.5" transform="rotate(0,248.5,293.5)"/><circle cx="257.5" cy="86.5" r="4.5" transform="rotate(0,257.5,86.5)"/><circle cx="257.5" cy="95.5" r="4.5" transform="rotate(0,257.5,95.5)"/><circle cx="257.5" cy="113.5" r="4.5" transform="rotate(0,257.5,113.5)"/><circle cx="257.5" cy="122.5" r="4.5" transform="rotate(0,257.5,122.5)"/><circle cx="257.5" cy="140.5" r="4.5" transform="rotate(0,257.5,140.5)"/><circle cx="257.5" cy="158.5" r="4.5" transform="rotate(0,257.5,158.5)"/><circle cx="257.5" cy="176.5" r="4.5" transform="rotate(0,257.5,176.5)"/><circle cx="257.5" cy="185.5" r="4.5" transform="rotate(0,257.5,185.5)"/><circle cx="257.5" cy="212.5" r="4.5" transform="rotate(0,257.5,212.5)"/><circle cx="257.5" cy="221.5" r="4.5" transform="rotate(0,257.5,221.5)"/><circle cx="257.5" cy="230.5" r="4.5" transform="rotate(0,257.5,230.5)"/><circle cx="257.5" cy="239.5" r="4.5" transform="rotate(0,257.5,239.5)"/><circle cx="257.5" cy="248.5" r="4.5" transform="rotate(0,257.5,248.5)"/><circle cx="257.5" cy="257.5" r="4.5" transform="rotate(0,257.5,257.5)"/><circle cx="257.5" cy="284.5" r="4.5" transform="rotate(0,257.5,284.5)"/><circle cx="266.5" cy="77.5" r="4.5" transform="rotate(0,266.5,77.5)"/><circle cx="266.5" cy="95.5" r="4.5" transform="rotate(0,266.5,95.5)"/><circle cx="266.5" cy="104.5" r="4.5" transform="rotate(0,266.5,104.5)"/><circle cx="266.5" cy="113.5" r="4.5" transform="rotate(0,266.5,113.5)"/><circle cx="266.5" cy="122.5" r="4.5" transform="rotate(0,266.5,122.5)"/><circle cx="266.5" cy="131.5" r="4.5" transform="rotate(0,266.5,131.5)"/><circle cx="266.5" cy="158.5" r="4.5" transform="rotate(0,266.5,158.5)"/><circle cx="266.5" cy="167.5" r="4.5" transform="rotate(0,266.5,167.5)"/><circle cx="266.5" cy="194.5" r="4.5" transform="rotate(0,266.5,194.5)"/><circle cx="266.5" cy="212.5" r="4.5" transform="rotate(0,266.5,212.5)"/><circle cx="266.5" cy="248.5" r="4.5" transform="rotate(0,266.5,248.5)"/><circle cx="275.5" cy="77.5" r="4.5" transform="rotate(0,275.5,77.5)"/><circle cx="275.5" cy="113.5" r="4.5" transform="rotate(0,275.5,113.5)"/><circle cx="275.5" cy="167.5" r="4.5" transform="rotate(0,275.5,167.5)"/><circle cx="275.5" cy="176.5" r="4.5" transform="rotate(0,275.5,176.5)"/><circle cx="275.5" cy="185.5" r="4.5" transform="rotate(0,275.5,185.5)"/><circle cx="275.5" cy="203.5" r="4.5" transform="rotate(0,275.5,203.5)"/><circle cx="275.5" cy="221.5" r="4.5" transform="rotate(0,275.5,221.5)"/><circle cx="275.5" cy="230.5" r="4.5" transform="rotate(0,275.5,230.5)"/><circle cx="275.5" cy="239.5" r="4.5" transform="rotate(0,275.5,239.5)"/><circle cx="275.5" cy="266.5" r="4.5" transform="rotate(0,275.5,266.5)"/><circle cx="275.5" cy="275.5" r="4.5" transform="rotate(0,275.5,275.5)"/><circle cx="284.5" cy="95.5" r="4.5" transform="rotate(0,284.5,95.5)"/><circle cx="284.5" cy="104.5" r="4.5" transform="rotate(0,284.5,104.5)"/><circle cx="284.5" cy="113.5" r="4.5" transform="rotate(0,284.5,113.5)"/><circle cx="284.5" cy="122.5" r="4.5" transform="rotate(0,284.5,122.5)"/><circle cx="284.5" cy="140.5" r="4.5" transform="rotate(0,284.5,140.5)"/><circle cx="284.5" cy="149.5" r="4.5" transform="rotate(0,284.5,149.5)"/><circle cx="284.5" cy="167.5" r="4.5" transform="rotate(0,284.5,167.5)"/><circle cx="284.5" cy="176.5" r="4.5" transform="rotate(0,284.5,176.5)"/><circle cx="284.5" cy="185.5" r="4.5" transform="rotate(0,284.5,185.5)"/><circle cx="284.5" cy="194.5" r="4.5" transform="rotate(0,284.5,194.5)"/><circle cx="284.5" cy="212.5" r="4.5" transform="rotate(0,284.5,212.5)"/><circle cx="284.5" cy="221.5" r="4.5" transform="rotate(0,284.5,221.5)"/><circle cx="284.5" cy="239.5" r="4.5" transform="rotate(0,284.5,239.5)"/><circle cx="284.5" cy="266.5" r="4.5" transform="rotate(0,284.5,266.5)"/><circle cx="284.5" cy="293.5" r="4.5" transform="rotate(0,284.5,293.5)"/><circle cx="293.5" cy="140.5" r="4.5" transform="rotate(0,293.5,140.5)"/><circle cx="293.5" cy="149.5" r="4.5" transform="rotate(0,293.5,149.5)"/><circle cx="293.5" cy="167.5" r="4.5" transform="rotate(0,293.5,167.5)"/><circle cx="293.5" cy="176.5" r="4.5" transform="rotate(0,293.5,176.5)"/><circle cx="293.5" cy="230.5" r="4.5" transform="rotate(0,293.5,230.5)"/><circle cx="293.5" cy="239.5" r="4.5" transform="rotate(0,293.5,239.5)"/><circle cx="293.5" cy="248.5" r="4.5" transform="rotate(0,293.5,248.5)"/><circle cx="293.5" cy="257.5" r="4.5" transform="rotate(0,293.5,257.5)"/><circle cx="293.5" cy="266.5" r="4.5" transform="rotate(0,293.5,266.5)"/></g><g class="corners-square-color-0-0"><path clip-rule="evenodd" d="M 32.5 1a 31.5 31.5 0 1 0 0.1 0zm 0 9a 22.5 22.5 0 1 1 -0.1 0Z" transform="rotate(0,32.5,32.5)"/></g><g class="corners-dot-color-0-0"><circle cx="32.5" cy="32.5" r="13.5" transform="rotate(0,32.5,32.5)"/></g><g class="corners-square-color-1-0"><path clip-rule="evenodd" d="M 266.5 1a 31.5 31.5 0 1 0 0.1 0zm 0 9a 22.5 22.5 0 1 1 -0.1 0Z" transform="rotate(90,266.5,32.5)"/></g><g class="corners-dot-color-1-0"><circle cx="266.5" cy="32.5" r="13.5" transform="rotate(90,266.5,32.5)"/></g><g class="corners-square-color-0-1"><path clip-rule="evenodd" d="M 32.5 235a 31.5 31.5 0 1 0 0.1 0zm 0 9a 22.5 22.5 0 1 1 -0.1 0Z" transform="rotate(-90,32.5,266.5)"/></g><g class="corners-dot-color-0-1"><circle cx="32.5" cy="266.5" r="13.5" transform="rotate(-90,32.5,266.5)"/></g><svg id="linkedInLogotype" xmlns="http://www.w3.org/2000/svg" viewBox="0 0 51 50" x="111" y="112" width="77px" height="75px"><path fill="#0A66C2" d="M.5 3.582C.5 1.604 2.144 0 4.172 0h42.656C48.856 0 50.5 1.604 50.5 3.582v42.836c0 1.979-1.644 3.582-3.672 3.582H4.172C2.144 50 .5 48.397.5 46.418V3.582Zm15.448 38.273V19.277H8.444v22.578h7.504Zm-3.752-25.66c2.617 0 4.246-1.734 4.246-3.9-.05-2.216-1.63-3.902-4.197-3.902S8 10.08 8 12.294c0 2.167 1.628 3.9 4.147 3.9h.049Zm15.34 25.66V29.247c0-.675.048-1.35.246-1.831.543-1.349 1.778-2.745 3.851-2.745 2.716 0 3.802 2.07 3.802 5.106v12.078h7.503V28.91c0-6.934-3.702-10.161-8.64-10.161-3.98 0-5.765 2.188-6.762 3.726v.078h-.05l.05-.078v-3.197H20.03c.099 2.119 0 22.578 0 22.578h7.505Z"/></svg></svg></g></svg></svg>